<?xml version="1.0" encoding="utf-8" standalone="no"?>
<!DOCTYPE svg PUBLIC "-//W3C//DTD SVG 1.1//EN"
  "http://www.w3.org/Graphics/SVG/1.1/DTD/svg11.dtd">
<svg xmlns:xlink="http://www.w3.org/1999/xlink" width="714.684317pt" height="423.154375pt" viewBox="0 0 714.684317 423.154375" xmlns="http://www.w3.org/2000/svg" version="1.1">
 <metadata>
  <rdf:RDF xmlns:dc="http://purl.org/dc/elements/1.1/" xmlns:cc="http://creativecommons.org/ns#" xmlns:rdf="http://www.w3.org/1999/02/22-rdf-syntax-ns#">
   <cc:Work>
    <dc:type rdf:resource="http://purl.org/dc/dcmitype/StillImage"/>
    <dc:date>2026-05-17T23:24:38.246811</dc:date>
    <dc:format>image/svg+xml</dc:format>
    <dc:creator>
     <cc:Agent>
      <dc:title>Matplotlib v3.10.8, https://matplotlib.org/</dc:title>
     </cc:Agent>
    </dc:creator>
   </cc:Work>
  </rdf:RDF>
 </metadata>
 <defs>
  <style type="text/css">*{stroke-linejoin: round; stroke-linecap: butt}</style>
 </defs>
 <g id="figure_1">
  <g id="patch_1">
   <path d="M 0 423.154375 
L 714.684317 423.154375 
L 714.684317 0 
L 0 0 
z
" style="fill: #ffffff"/>
  </g>
  <g id="axes_1">
   <g id="patch_2">
    <path d="M 198.271875 385.598125 
L 703.839018 385.598125 
L 703.839018 22.798125 
L 198.271875 22.798125 
z
" style="fill: #ffffff"/>
   </g>
   <g id="patch_3">
    <path d="M 198.271875 369.107216 
L 198.555273 369.107216 
L 198.555273 348.49358 
L 198.271875 348.49358 
z
" clip-path="url(#pab894af9db)" style="fill: #1f77b4"/>
   </g>
   <g id="patch_4">
    <path d="M 198.271875 343.34017 
L 199.688863 343.34017 
L 199.688863 322.726534 
L 198.271875 322.726534 
z
" clip-path="url(#pab894af9db)" style="fill: #1f77b4"/>
   </g>
   <g id="patch_5">
    <path d="M 198.271875 317.573125 
L 200.255658 317.573125 
L 200.255658 296.959489 
L 198.271875 296.959489 
z
" clip-path="url(#pab894af9db)" style="fill: #1f77b4"/>
   </g>
   <g id="patch_6">
    <path d="M 198.271875 291.80608 
L 202.522839 291.80608 
L 202.522839 271.192443 
L 198.271875 271.192443 
z
" clip-path="url(#pab894af9db)" style="fill: #1f77b4"/>
   </g>
   <g id="patch_7">
    <path d="M 198.271875 266.039034 
L 210.174574 266.039034 
L 210.174574 245.425398 
L 198.271875 245.425398 
z
" clip-path="url(#pab894af9db)" style="fill: #1f77b4"/>
   </g>
   <g id="patch_8">
    <path d="M 198.271875 240.271989 
L 212.158357 240.271989 
L 212.158357 219.658352 
L 198.271875 219.658352 
z
" clip-path="url(#pab894af9db)" style="fill: #1f77b4"/>
   </g>
   <g id="patch_9">
    <path d="M 198.271875 214.504943 
L 231.145996 214.504943 
L 231.145996 193.891307 
L 198.271875 193.891307 
z
" clip-path="url(#pab894af9db)" style="fill: #1f77b4"/>
   </g>
   <g id="patch_10">
    <path d="M 198.271875 188.737898 
L 241.915105 188.737898 
L 241.915105 168.124261 
L 198.271875 168.124261 
z
" clip-path="url(#pab894af9db)" style="fill: #1f77b4"/>
   </g>
   <g id="patch_11">
    <path d="M 198.271875 162.970852 
L 252.684214 162.970852 
L 252.684214 142.357216 
L 198.271875 142.357216 
z
" clip-path="url(#pab894af9db)" style="fill: #1f77b4"/>
   </g>
   <g id="patch_12">
    <path d="M 198.271875 137.203807 
L 273.088841 137.203807 
L 273.088841 116.59017 
L 198.271875 116.59017 
z
" clip-path="url(#pab894af9db)" style="fill: #1f77b4"/>
   </g>
   <g id="patch_13">
    <path d="M 198.271875 111.436761 
L 307.663347 111.436761 
L 307.663347 90.823125 
L 198.271875 90.823125 
z
" clip-path="url(#pab894af9db)" style="fill: #1f77b4"/>
   </g>
   <g id="patch_14">
    <path d="M 198.271875 85.669716 
L 449.928941 85.669716 
L 449.928941 65.05608 
L 198.271875 65.05608 
z
" clip-path="url(#pab894af9db)" style="fill: #1f77b4"/>
   </g>
   <g id="patch_15">
    <path d="M 198.271875 59.90267 
L 679.764392 59.90267 
L 679.764392 39.289034 
L 198.271875 39.289034 
z
" clip-path="url(#pab894af9db)" style="fill: #1f77b4"/>
   </g>
   <g id="matplotlib.axis_1">
    <g id="xtick_1">
     <g id="line2d_1">
      <defs>
       <path id="m10c582a680" d="M 0 0 
L 0 3.5 
" style="stroke: #000000; stroke-width: 0.8"/>
      </defs>
      <g>
       <use xlink:href="#m10c582a680" x="198.271875" y="385.598125" style="stroke: #000000; stroke-width: 0.8"/>
      </g>
     </g>
     <g id="text_1">
      <!-- 0 -->
      <g transform="translate(195.090625 400.196562) scale(0.1 -0.1)">
       <defs>
        <path id="DejaVuSans-30" d="M 2034 4250 
Q 1547 4250 1301 3770 
Q 1056 3291 1056 2328 
Q 1056 1369 1301 889 
Q 1547 409 2034 409 
Q 2525 409 2770 889 
Q 3016 1369 3016 2328 
Q 3016 3291 2770 3770 
Q 2525 4250 2034 4250 
z
M 2034 4750 
Q 2819 4750 3233 4129 
Q 3647 3509 3647 2328 
Q 3647 1150 3233 529 
Q 2819 -91 2034 -91 
Q 1250 -91 836 529 
Q 422 1150 422 2328 
Q 422 3509 836 4129 
Q 1250 4750 2034 4750 
z
" transform="scale(0.015625)"/>
       </defs>
       <use xlink:href="#DejaVuSans-30"/>
      </g>
     </g>
    </g>
    <g id="xtick_2">
     <g id="line2d_2">
      <g>
       <use xlink:href="#m10c582a680" x="254.951394" y="385.598125" style="stroke: #000000; stroke-width: 0.8"/>
      </g>
     </g>
     <g id="text_2">
      <!-- 200 -->
      <g transform="translate(245.407644 400.196562) scale(0.1 -0.1)">
       <defs>
        <path id="DejaVuSans-32" d="M 1228 531 
L 3431 531 
L 3431 0 
L 469 0 
L 469 531 
Q 828 903 1448 1529 
Q 2069 2156 2228 2338 
Q 2531 2678 2651 2914 
Q 2772 3150 2772 3378 
Q 2772 3750 2511 3984 
Q 2250 4219 1831 4219 
Q 1534 4219 1204 4116 
Q 875 4013 500 3803 
L 500 4441 
Q 881 4594 1212 4672 
Q 1544 4750 1819 4750 
Q 2544 4750 2975 4387 
Q 3406 4025 3406 3419 
Q 3406 3131 3298 2873 
Q 3191 2616 2906 2266 
Q 2828 2175 2409 1742 
Q 1991 1309 1228 531 
z
" transform="scale(0.015625)"/>
       </defs>
       <use xlink:href="#DejaVuSans-32"/>
       <use xlink:href="#DejaVuSans-30" transform="translate(63.623047 0)"/>
       <use xlink:href="#DejaVuSans-30" transform="translate(127.246094 0)"/>
      </g>
     </g>
    </g>
    <g id="xtick_3">
     <g id="line2d_3">
      <g>
       <use xlink:href="#m10c582a680" x="311.630914" y="385.598125" style="stroke: #000000; stroke-width: 0.8"/>
      </g>
     </g>
     <g id="text_3">
      <!-- 400 -->
      <g transform="translate(302.087164 400.196562) scale(0.1 -0.1)">
       <defs>
        <path id="DejaVuSans-34" d="M 2419 4116 
L 825 1625 
L 2419 1625 
L 2419 4116 
z
M 2253 4666 
L 3047 4666 
L 3047 1625 
L 3713 1625 
L 3713 1100 
L 3047 1100 
L 3047 0 
L 2419 0 
L 2419 1100 
L 313 1100 
L 313 1709 
L 2253 4666 
z
" transform="scale(0.015625)"/>
       </defs>
       <use xlink:href="#DejaVuSans-34"/>
       <use xlink:href="#DejaVuSans-30" transform="translate(63.623047 0)"/>
       <use xlink:href="#DejaVuSans-30" transform="translate(127.246094 0)"/>
      </g>
     </g>
    </g>
    <g id="xtick_4">
     <g id="line2d_4">
      <g>
       <use xlink:href="#m10c582a680" x="368.310433" y="385.598125" style="stroke: #000000; stroke-width: 0.8"/>
      </g>
     </g>
     <g id="text_4">
      <!-- 600 -->
      <g transform="translate(358.766683 400.196562) scale(0.1 -0.1)">
       <defs>
        <path id="DejaVuSans-36" d="M 2113 2584 
Q 1688 2584 1439 2293 
Q 1191 2003 1191 1497 
Q 1191 994 1439 701 
Q 1688 409 2113 409 
Q 2538 409 2786 701 
Q 3034 994 3034 1497 
Q 3034 2003 2786 2293 
Q 2538 2584 2113 2584 
z
M 3366 4563 
L 3366 3988 
Q 3128 4100 2886 4159 
Q 2644 4219 2406 4219 
Q 1781 4219 1451 3797 
Q 1122 3375 1075 2522 
Q 1259 2794 1537 2939 
Q 1816 3084 2150 3084 
Q 2853 3084 3261 2657 
Q 3669 2231 3669 1497 
Q 3669 778 3244 343 
Q 2819 -91 2113 -91 
Q 1303 -91 875 529 
Q 447 1150 447 2328 
Q 447 3434 972 4092 
Q 1497 4750 2381 4750 
Q 2619 4750 2861 4703 
Q 3103 4656 3366 4563 
z
" transform="scale(0.015625)"/>
       </defs>
       <use xlink:href="#DejaVuSans-36"/>
       <use xlink:href="#DejaVuSans-30" transform="translate(63.623047 0)"/>
       <use xlink:href="#DejaVuSans-30" transform="translate(127.246094 0)"/>
      </g>
     </g>
    </g>
    <g id="xtick_5">
     <g id="line2d_5">
      <g>
       <use xlink:href="#m10c582a680" x="424.989952" y="385.598125" style="stroke: #000000; stroke-width: 0.8"/>
      </g>
     </g>
     <g id="text_5">
      <!-- 800 -->
      <g transform="translate(415.446202 400.196562) scale(0.1 -0.1)">
       <defs>
        <path id="DejaVuSans-38" d="M 2034 2216 
Q 1584 2216 1326 1975 
Q 1069 1734 1069 1313 
Q 1069 891 1326 650 
Q 1584 409 2034 409 
Q 2484 409 2743 651 
Q 3003 894 3003 1313 
Q 3003 1734 2745 1975 
Q 2488 2216 2034 2216 
z
M 1403 2484 
Q 997 2584 770 2862 
Q 544 3141 544 3541 
Q 544 4100 942 4425 
Q 1341 4750 2034 4750 
Q 2731 4750 3128 4425 
Q 3525 4100 3525 3541 
Q 3525 3141 3298 2862 
Q 3072 2584 2669 2484 
Q 3125 2378 3379 2068 
Q 3634 1759 3634 1313 
Q 3634 634 3220 271 
Q 2806 -91 2034 -91 
Q 1263 -91 848 271 
Q 434 634 434 1313 
Q 434 1759 690 2068 
Q 947 2378 1403 2484 
z
M 1172 3481 
Q 1172 3119 1398 2916 
Q 1625 2713 2034 2713 
Q 2441 2713 2670 2916 
Q 2900 3119 2900 3481 
Q 2900 3844 2670 4047 
Q 2441 4250 2034 4250 
Q 1625 4250 1398 4047 
Q 1172 3844 1172 3481 
z
" transform="scale(0.015625)"/>
       </defs>
       <use xlink:href="#DejaVuSans-38"/>
       <use xlink:href="#DejaVuSans-30" transform="translate(63.623047 0)"/>
       <use xlink:href="#DejaVuSans-30" transform="translate(127.246094 0)"/>
      </g>
     </g>
    </g>
    <g id="xtick_6">
     <g id="line2d_6">
      <g>
       <use xlink:href="#m10c582a680" x="481.669472" y="385.598125" style="stroke: #000000; stroke-width: 0.8"/>
      </g>
     </g>
     <g id="text_6">
      <!-- 1000 -->
      <g transform="translate(468.944472 400.196562) scale(0.1 -0.1)">
       <defs>
        <path id="DejaVuSans-31" d="M 794 531 
L 1825 531 
L 1825 4091 
L 703 3866 
L 703 4441 
L 1819 4666 
L 2450 4666 
L 2450 531 
L 3481 531 
L 3481 0 
L 794 0 
L 794 531 
z
" transform="scale(0.015625)"/>
       </defs>
       <use xlink:href="#DejaVuSans-31"/>
       <use xlink:href="#DejaVuSans-30" transform="translate(63.623047 0)"/>
       <use xlink:href="#DejaVuSans-30" transform="translate(127.246094 0)"/>
       <use xlink:href="#DejaVuSans-30" transform="translate(190.869141 0)"/>
      </g>
     </g>
    </g>
    <g id="xtick_7">
     <g id="line2d_7">
      <g>
       <use xlink:href="#m10c582a680" x="538.348991" y="385.598125" style="stroke: #000000; stroke-width: 0.8"/>
      </g>
     </g>
     <g id="text_7">
      <!-- 1200 -->
      <g transform="translate(525.623991 400.196562) scale(0.1 -0.1)">
       <use xlink:href="#DejaVuSans-31"/>
       <use xlink:href="#DejaVuSans-32" transform="translate(63.623047 0)"/>
       <use xlink:href="#DejaVuSans-30" transform="translate(127.246094 0)"/>
       <use xlink:href="#DejaVuSans-30" transform="translate(190.869141 0)"/>
      </g>
     </g>
    </g>
    <g id="xtick_8">
     <g id="line2d_8">
      <g>
       <use xlink:href="#m10c582a680" x="595.028511" y="385.598125" style="stroke: #000000; stroke-width: 0.8"/>
      </g>
     </g>
     <g id="text_8">
      <!-- 1400 -->
      <g transform="translate(582.303511 400.196562) scale(0.1 -0.1)">
       <use xlink:href="#DejaVuSans-31"/>
       <use xlink:href="#DejaVuSans-34" transform="translate(63.623047 0)"/>
       <use xlink:href="#DejaVuSans-30" transform="translate(127.246094 0)"/>
       <use xlink:href="#DejaVuSans-30" transform="translate(190.869141 0)"/>
      </g>
     </g>
    </g>
    <g id="xtick_9">
     <g id="line2d_9">
      <g>
       <use xlink:href="#m10c582a680" x="651.70803" y="385.598125" style="stroke: #000000; stroke-width: 0.8"/>
      </g>
     </g>
     <g id="text_9">
      <!-- 1600 -->
      <g transform="translate(638.98303 400.196562) scale(0.1 -0.1)">
       <use xlink:href="#DejaVuSans-31"/>
       <use xlink:href="#DejaVuSans-36" transform="translate(63.623047 0)"/>
       <use xlink:href="#DejaVuSans-30" transform="translate(127.246094 0)"/>
       <use xlink:href="#DejaVuSans-30" transform="translate(190.869141 0)"/>
      </g>
     </g>
    </g>
    <g id="text_10">
     <!-- Número de filas -->
     <g transform="translate(411.560915 413.874687) scale(0.1 -0.1)">
      <defs>
       <path id="DejaVuSans-4e" d="M 628 4666 
L 1478 4666 
L 3547 763 
L 3547 4666 
L 4159 4666 
L 4159 0 
L 3309 0 
L 1241 3903 
L 1241 0 
L 628 0 
L 628 4666 
z
" transform="scale(0.015625)"/>
       <path id="DejaVuSans-fa" d="M 544 1381 
L 544 3500 
L 1119 3500 
L 1119 1403 
Q 1119 906 1312 657 
Q 1506 409 1894 409 
Q 2359 409 2629 706 
Q 2900 1003 2900 1516 
L 2900 3500 
L 3475 3500 
L 3475 0 
L 2900 0 
L 2900 538 
Q 2691 219 2414 64 
Q 2138 -91 1772 -91 
Q 1169 -91 856 284 
Q 544 659 544 1381 
z
M 1991 3584 
L 1991 3584 
z
M 2418 5119 
L 3040 5119 
L 2022 3944 
L 1543 3944 
L 2418 5119 
z
" transform="scale(0.015625)"/>
       <path id="DejaVuSans-6d" d="M 3328 2828 
Q 3544 3216 3844 3400 
Q 4144 3584 4550 3584 
Q 5097 3584 5394 3201 
Q 5691 2819 5691 2113 
L 5691 0 
L 5113 0 
L 5113 2094 
Q 5113 2597 4934 2840 
Q 4756 3084 4391 3084 
Q 3944 3084 3684 2787 
Q 3425 2491 3425 1978 
L 3425 0 
L 2847 0 
L 2847 2094 
Q 2847 2600 2669 2842 
Q 2491 3084 2119 3084 
Q 1678 3084 1418 2786 
Q 1159 2488 1159 1978 
L 1159 0 
L 581 0 
L 581 3500 
L 1159 3500 
L 1159 2956 
Q 1356 3278 1631 3431 
Q 1906 3584 2284 3584 
Q 2666 3584 2933 3390 
Q 3200 3197 3328 2828 
z
" transform="scale(0.015625)"/>
       <path id="DejaVuSans-65" d="M 3597 1894 
L 3597 1613 
L 953 1613 
Q 991 1019 1311 708 
Q 1631 397 2203 397 
Q 2534 397 2845 478 
Q 3156 559 3463 722 
L 3463 178 
Q 3153 47 2828 -22 
Q 2503 -91 2169 -91 
Q 1331 -91 842 396 
Q 353 884 353 1716 
Q 353 2575 817 3079 
Q 1281 3584 2069 3584 
Q 2775 3584 3186 3129 
Q 3597 2675 3597 1894 
z
M 3022 2063 
Q 3016 2534 2758 2815 
Q 2500 3097 2075 3097 
Q 1594 3097 1305 2825 
Q 1016 2553 972 2059 
L 3022 2063 
z
" transform="scale(0.015625)"/>
       <path id="DejaVuSans-72" d="M 2631 2963 
Q 2534 3019 2420 3045 
Q 2306 3072 2169 3072 
Q 1681 3072 1420 2755 
Q 1159 2438 1159 1844 
L 1159 0 
L 581 0 
L 581 3500 
L 1159 3500 
L 1159 2956 
Q 1341 3275 1631 3429 
Q 1922 3584 2338 3584 
Q 2397 3584 2469 3576 
Q 2541 3569 2628 3553 
L 2631 2963 
z
" transform="scale(0.015625)"/>
       <path id="DejaVuSans-6f" d="M 1959 3097 
Q 1497 3097 1228 2736 
Q 959 2375 959 1747 
Q 959 1119 1226 758 
Q 1494 397 1959 397 
Q 2419 397 2687 759 
Q 2956 1122 2956 1747 
Q 2956 2369 2687 2733 
Q 2419 3097 1959 3097 
z
M 1959 3584 
Q 2709 3584 3137 3096 
Q 3566 2609 3566 1747 
Q 3566 888 3137 398 
Q 2709 -91 1959 -91 
Q 1206 -91 779 398 
Q 353 888 353 1747 
Q 353 2609 779 3096 
Q 1206 3584 1959 3584 
z
" transform="scale(0.015625)"/>
       <path id="DejaVuSans-20" transform="scale(0.015625)"/>
       <path id="DejaVuSans-64" d="M 2906 2969 
L 2906 4863 
L 3481 4863 
L 3481 0 
L 2906 0 
L 2906 525 
Q 2725 213 2448 61 
Q 2172 -91 1784 -91 
Q 1150 -91 751 415 
Q 353 922 353 1747 
Q 353 2572 751 3078 
Q 1150 3584 1784 3584 
Q 2172 3584 2448 3432 
Q 2725 3281 2906 2969 
z
M 947 1747 
Q 947 1113 1208 752 
Q 1469 391 1925 391 
Q 2381 391 2643 752 
Q 2906 1113 2906 1747 
Q 2906 2381 2643 2742 
Q 2381 3103 1925 3103 
Q 1469 3103 1208 2742 
Q 947 2381 947 1747 
z
" transform="scale(0.015625)"/>
       <path id="DejaVuSans-66" d="M 2375 4863 
L 2375 4384 
L 1825 4384 
Q 1516 4384 1395 4259 
Q 1275 4134 1275 3809 
L 1275 3500 
L 2222 3500 
L 2222 3053 
L 1275 3053 
L 1275 0 
L 697 0 
L 697 3053 
L 147 3053 
L 147 3500 
L 697 3500 
L 697 3744 
Q 697 4328 969 4595 
Q 1241 4863 1831 4863 
L 2375 4863 
z
" transform="scale(0.015625)"/>
       <path id="DejaVuSans-69" d="M 603 3500 
L 1178 3500 
L 1178 0 
L 603 0 
L 603 3500 
z
M 603 4863 
L 1178 4863 
L 1178 4134 
L 603 4134 
L 603 4863 
z
" transform="scale(0.015625)"/>
       <path id="DejaVuSans-6c" d="M 603 4863 
L 1178 4863 
L 1178 0 
L 603 0 
L 603 4863 
z
" transform="scale(0.015625)"/>
       <path id="DejaVuSans-61" d="M 2194 1759 
Q 1497 1759 1228 1600 
Q 959 1441 959 1056 
Q 959 750 1161 570 
Q 1363 391 1709 391 
Q 2188 391 2477 730 
Q 2766 1069 2766 1631 
L 2766 1759 
L 2194 1759 
z
M 3341 1997 
L 3341 0 
L 2766 0 
L 2766 531 
Q 2569 213 2275 61 
Q 1981 -91 1556 -91 
Q 1019 -91 701 211 
Q 384 513 384 1019 
Q 384 1609 779 1909 
Q 1175 2209 1959 2209 
L 2766 2209 
L 2766 2266 
Q 2766 2663 2505 2880 
Q 2244 3097 1772 3097 
Q 1472 3097 1187 3025 
Q 903 2953 641 2809 
L 641 3341 
Q 956 3463 1253 3523 
Q 1550 3584 1831 3584 
Q 2591 3584 2966 3190 
Q 3341 2797 3341 1997 
z
" transform="scale(0.015625)"/>
       <path id="DejaVuSans-73" d="M 2834 3397 
L 2834 2853 
Q 2591 2978 2328 3040 
Q 2066 3103 1784 3103 
Q 1356 3103 1142 2972 
Q 928 2841 928 2578 
Q 928 2378 1081 2264 
Q 1234 2150 1697 2047 
L 1894 2003 
Q 2506 1872 2764 1633 
Q 3022 1394 3022 966 
Q 3022 478 2636 193 
Q 2250 -91 1575 -91 
Q 1294 -91 989 -36 
Q 684 19 347 128 
L 347 722 
Q 666 556 975 473 
Q 1284 391 1588 391 
Q 1994 391 2212 530 
Q 2431 669 2431 922 
Q 2431 1156 2273 1281 
Q 2116 1406 1581 1522 
L 1381 1569 
Q 847 1681 609 1914 
Q 372 2147 372 2553 
Q 372 3047 722 3315 
Q 1072 3584 1716 3584 
Q 2034 3584 2315 3537 
Q 2597 3491 2834 3397 
z
" transform="scale(0.015625)"/>
      </defs>
      <use xlink:href="#DejaVuSans-4e"/>
      <use xlink:href="#DejaVuSans-fa" transform="translate(74.804688 0)"/>
      <use xlink:href="#DejaVuSans-6d" transform="translate(138.183594 0)"/>
      <use xlink:href="#DejaVuSans-65" transform="translate(235.595703 0)"/>
      <use xlink:href="#DejaVuSans-72" transform="translate(297.119141 0)"/>
      <use xlink:href="#DejaVuSans-6f" transform="translate(335.982422 0)"/>
      <use xlink:href="#DejaVuSans-20" transform="translate(397.164062 0)"/>
      <use xlink:href="#DejaVuSans-64" transform="translate(428.951172 0)"/>
      <use xlink:href="#DejaVuSans-65" transform="translate(492.427734 0)"/>
      <use xlink:href="#DejaVuSans-20" transform="translate(553.951172 0)"/>
      <use xlink:href="#DejaVuSans-66" transform="translate(585.738281 0)"/>
      <use xlink:href="#DejaVuSans-69" transform="translate(620.943359 0)"/>
      <use xlink:href="#DejaVuSans-6c" transform="translate(648.726562 0)"/>
      <use xlink:href="#DejaVuSans-61" transform="translate(676.509766 0)"/>
      <use xlink:href="#DejaVuSans-73" transform="translate(737.789062 0)"/>
     </g>
    </g>
   </g>
   <g id="matplotlib.axis_2">
    <g id="ytick_1">
     <g id="line2d_10">
      <defs>
       <path id="m3340efae1c" d="M 0 0 
L -3.5 0 
" style="stroke: #000000; stroke-width: 0.8"/>
      </defs>
      <g>
       <use xlink:href="#m3340efae1c" x="198.271875" y="358.800398" style="stroke: #000000; stroke-width: 0.8"/>
      </g>
     </g>
     <g id="text_11">
      <!-- no_indexing_report_review_excluded -->
      <g transform="translate(7.2 362.599616) scale(0.1 -0.1)">
       <defs>
        <path id="DejaVuSans-6e" d="M 3513 2113 
L 3513 0 
L 2938 0 
L 2938 2094 
Q 2938 2591 2744 2837 
Q 2550 3084 2163 3084 
Q 1697 3084 1428 2787 
Q 1159 2491 1159 1978 
L 1159 0 
L 581 0 
L 581 3500 
L 1159 3500 
L 1159 2956 
Q 1366 3272 1645 3428 
Q 1925 3584 2291 3584 
Q 2894 3584 3203 3211 
Q 3513 2838 3513 2113 
z
" transform="scale(0.015625)"/>
        <path id="DejaVuSans-5f" d="M 3263 -1063 
L 3263 -1509 
L -63 -1509 
L -63 -1063 
L 3263 -1063 
z
" transform="scale(0.015625)"/>
        <path id="DejaVuSans-78" d="M 3513 3500 
L 2247 1797 
L 3578 0 
L 2900 0 
L 1881 1375 
L 863 0 
L 184 0 
L 1544 1831 
L 300 3500 
L 978 3500 
L 1906 2253 
L 2834 3500 
L 3513 3500 
z
" transform="scale(0.015625)"/>
        <path id="DejaVuSans-67" d="M 2906 1791 
Q 2906 2416 2648 2759 
Q 2391 3103 1925 3103 
Q 1463 3103 1205 2759 
Q 947 2416 947 1791 
Q 947 1169 1205 825 
Q 1463 481 1925 481 
Q 2391 481 2648 825 
Q 2906 1169 2906 1791 
z
M 3481 434 
Q 3481 -459 3084 -895 
Q 2688 -1331 1869 -1331 
Q 1566 -1331 1297 -1286 
Q 1028 -1241 775 -1147 
L 775 -588 
Q 1028 -725 1275 -790 
Q 1522 -856 1778 -856 
Q 2344 -856 2625 -561 
Q 2906 -266 2906 331 
L 2906 616 
Q 2728 306 2450 153 
Q 2172 0 1784 0 
Q 1141 0 747 490 
Q 353 981 353 1791 
Q 353 2603 747 3093 
Q 1141 3584 1784 3584 
Q 2172 3584 2450 3431 
Q 2728 3278 2906 2969 
L 2906 3500 
L 3481 3500 
L 3481 434 
z
" transform="scale(0.015625)"/>
        <path id="DejaVuSans-70" d="M 1159 525 
L 1159 -1331 
L 581 -1331 
L 581 3500 
L 1159 3500 
L 1159 2969 
Q 1341 3281 1617 3432 
Q 1894 3584 2278 3584 
Q 2916 3584 3314 3078 
Q 3713 2572 3713 1747 
Q 3713 922 3314 415 
Q 2916 -91 2278 -91 
Q 1894 -91 1617 61 
Q 1341 213 1159 525 
z
M 3116 1747 
Q 3116 2381 2855 2742 
Q 2594 3103 2138 3103 
Q 1681 3103 1420 2742 
Q 1159 2381 1159 1747 
Q 1159 1113 1420 752 
Q 1681 391 2138 391 
Q 2594 391 2855 752 
Q 3116 1113 3116 1747 
z
" transform="scale(0.015625)"/>
        <path id="DejaVuSans-74" d="M 1172 4494 
L 1172 3500 
L 2356 3500 
L 2356 3053 
L 1172 3053 
L 1172 1153 
Q 1172 725 1289 603 
Q 1406 481 1766 481 
L 2356 481 
L 2356 0 
L 1766 0 
Q 1100 0 847 248 
Q 594 497 594 1153 
L 594 3053 
L 172 3053 
L 172 3500 
L 594 3500 
L 594 4494 
L 1172 4494 
z
" transform="scale(0.015625)"/>
        <path id="DejaVuSans-76" d="M 191 3500 
L 800 3500 
L 1894 563 
L 2988 3500 
L 3597 3500 
L 2284 0 
L 1503 0 
L 191 3500 
z
" transform="scale(0.015625)"/>
        <path id="DejaVuSans-77" d="M 269 3500 
L 844 3500 
L 1563 769 
L 2278 3500 
L 2956 3500 
L 3675 769 
L 4391 3500 
L 4966 3500 
L 4050 0 
L 3372 0 
L 2619 2869 
L 1863 0 
L 1184 0 
L 269 3500 
z
" transform="scale(0.015625)"/>
        <path id="DejaVuSans-63" d="M 3122 3366 
L 3122 2828 
Q 2878 2963 2633 3030 
Q 2388 3097 2138 3097 
Q 1578 3097 1268 2742 
Q 959 2388 959 1747 
Q 959 1106 1268 751 
Q 1578 397 2138 397 
Q 2388 397 2633 464 
Q 2878 531 3122 666 
L 3122 134 
Q 2881 22 2623 -34 
Q 2366 -91 2075 -91 
Q 1284 -91 818 406 
Q 353 903 353 1747 
Q 353 2603 823 3093 
Q 1294 3584 2113 3584 
Q 2378 3584 2631 3529 
Q 2884 3475 3122 3366 
z
" transform="scale(0.015625)"/>
        <path id="DejaVuSans-75" d="M 544 1381 
L 544 3500 
L 1119 3500 
L 1119 1403 
Q 1119 906 1312 657 
Q 1506 409 1894 409 
Q 2359 409 2629 706 
Q 2900 1003 2900 1516 
L 2900 3500 
L 3475 3500 
L 3475 0 
L 2900 0 
L 2900 538 
Q 2691 219 2414 64 
Q 2138 -91 1772 -91 
Q 1169 -91 856 284 
Q 544 659 544 1381 
z
M 1991 3584 
L 1991 3584 
z
" transform="scale(0.015625)"/>
       </defs>
       <use xlink:href="#DejaVuSans-6e"/>
       <use xlink:href="#DejaVuSans-6f" transform="translate(63.378906 0)"/>
       <use xlink:href="#DejaVuSans-5f" transform="translate(124.560547 0)"/>
       <use xlink:href="#DejaVuSans-69" transform="translate(174.560547 0)"/>
       <use xlink:href="#DejaVuSans-6e" transform="translate(202.34375 0)"/>
       <use xlink:href="#DejaVuSans-64" transform="translate(265.722656 0)"/>
       <use xlink:href="#DejaVuSans-65" transform="translate(329.199219 0)"/>
       <use xlink:href="#DejaVuSans-78" transform="translate(388.972656 0)"/>
       <use xlink:href="#DejaVuSans-69" transform="translate(448.152344 0)"/>
       <use xlink:href="#DejaVuSans-6e" transform="translate(475.935547 0)"/>
       <use xlink:href="#DejaVuSans-67" transform="translate(539.314453 0)"/>
       <use xlink:href="#DejaVuSans-5f" transform="translate(602.791016 0)"/>
       <use xlink:href="#DejaVuSans-72" transform="translate(652.791016 0)"/>
       <use xlink:href="#DejaVuSans-65" transform="translate(691.654297 0)"/>
       <use xlink:href="#DejaVuSans-70" transform="translate(753.177734 0)"/>
       <use xlink:href="#DejaVuSans-6f" transform="translate(816.654297 0)"/>
       <use xlink:href="#DejaVuSans-72" transform="translate(877.835938 0)"/>
       <use xlink:href="#DejaVuSans-74" transform="translate(918.949219 0)"/>
       <use xlink:href="#DejaVuSans-5f" transform="translate(958.158203 0)"/>
       <use xlink:href="#DejaVuSans-72" transform="translate(1008.158203 0)"/>
       <use xlink:href="#DejaVuSans-65" transform="translate(1047.021484 0)"/>
       <use xlink:href="#DejaVuSans-76" transform="translate(1108.544922 0)"/>
       <use xlink:href="#DejaVuSans-69" transform="translate(1167.724609 0)"/>
       <use xlink:href="#DejaVuSans-65" transform="translate(1195.507812 0)"/>
       <use xlink:href="#DejaVuSans-77" transform="translate(1257.03125 0)"/>
       <use xlink:href="#DejaVuSans-5f" transform="translate(1338.818359 0)"/>
       <use xlink:href="#DejaVuSans-65" transform="translate(1388.818359 0)"/>
       <use xlink:href="#DejaVuSans-78" transform="translate(1448.591797 0)"/>
       <use xlink:href="#DejaVuSans-63" transform="translate(1506.021484 0)"/>
       <use xlink:href="#DejaVuSans-6c" transform="translate(1561.001953 0)"/>
       <use xlink:href="#DejaVuSans-75" transform="translate(1588.785156 0)"/>
       <use xlink:href="#DejaVuSans-64" transform="translate(1652.164062 0)"/>
       <use xlink:href="#DejaVuSans-65" transform="translate(1715.640625 0)"/>
       <use xlink:href="#DejaVuSans-64" transform="translate(1777.164062 0)"/>
      </g>
     </g>
    </g>
    <g id="ytick_2">
     <g id="line2d_11">
      <g>
       <use xlink:href="#m3340efae1c" x="198.271875" y="333.033352" style="stroke: #000000; stroke-width: 0.8"/>
      </g>
     </g>
     <g id="text_12">
      <!-- no_indexing_unclear_excluded -->
      <g transform="translate(38.460938 336.832571) scale(0.1 -0.1)">
       <use xlink:href="#DejaVuSans-6e"/>
       <use xlink:href="#DejaVuSans-6f" transform="translate(63.378906 0)"/>
       <use xlink:href="#DejaVuSans-5f" transform="translate(124.560547 0)"/>
       <use xlink:href="#DejaVuSans-69" transform="translate(174.560547 0)"/>
       <use xlink:href="#DejaVuSans-6e" transform="translate(202.34375 0)"/>
       <use xlink:href="#DejaVuSans-64" transform="translate(265.722656 0)"/>
       <use xlink:href="#DejaVuSans-65" transform="translate(329.199219 0)"/>
       <use xlink:href="#DejaVuSans-78" transform="translate(388.972656 0)"/>
       <use xlink:href="#DejaVuSans-69" transform="translate(448.152344 0)"/>
       <use xlink:href="#DejaVuSans-6e" transform="translate(475.935547 0)"/>
       <use xlink:href="#DejaVuSans-67" transform="translate(539.314453 0)"/>
       <use xlink:href="#DejaVuSans-5f" transform="translate(602.791016 0)"/>
       <use xlink:href="#DejaVuSans-75" transform="translate(652.791016 0)"/>
       <use xlink:href="#DejaVuSans-6e" transform="translate(716.169922 0)"/>
       <use xlink:href="#DejaVuSans-63" transform="translate(779.548828 0)"/>
       <use xlink:href="#DejaVuSans-6c" transform="translate(834.529297 0)"/>
       <use xlink:href="#DejaVuSans-65" transform="translate(862.3125 0)"/>
       <use xlink:href="#DejaVuSans-61" transform="translate(923.835938 0)"/>
       <use xlink:href="#DejaVuSans-72" transform="translate(985.115234 0)"/>
       <use xlink:href="#DejaVuSans-5f" transform="translate(1026.228516 0)"/>
       <use xlink:href="#DejaVuSans-65" transform="translate(1076.228516 0)"/>
       <use xlink:href="#DejaVuSans-78" transform="translate(1136.001953 0)"/>
       <use xlink:href="#DejaVuSans-63" transform="translate(1193.431641 0)"/>
       <use xlink:href="#DejaVuSans-6c" transform="translate(1248.412109 0)"/>
       <use xlink:href="#DejaVuSans-75" transform="translate(1276.195312 0)"/>
       <use xlink:href="#DejaVuSans-64" transform="translate(1339.574219 0)"/>
       <use xlink:href="#DejaVuSans-65" transform="translate(1403.050781 0)"/>
       <use xlink:href="#DejaVuSans-64" transform="translate(1464.574219 0)"/>
      </g>
     </g>
    </g>
    <g id="ytick_3">
     <g id="line2d_12">
      <g>
       <use xlink:href="#m3340efae1c" x="198.271875" y="307.266307" style="stroke: #000000; stroke-width: 0.8"/>
      </g>
     </g>
     <g id="text_13">
      <!-- discordant_review_excluded -->
      <g transform="translate(50.395312 311.065526) scale(0.1 -0.1)">
       <use xlink:href="#DejaVuSans-64"/>
       <use xlink:href="#DejaVuSans-69" transform="translate(63.476562 0)"/>
       <use xlink:href="#DejaVuSans-73" transform="translate(91.259766 0)"/>
       <use xlink:href="#DejaVuSans-63" transform="translate(143.359375 0)"/>
       <use xlink:href="#DejaVuSans-6f" transform="translate(198.339844 0)"/>
       <use xlink:href="#DejaVuSans-72" transform="translate(259.521484 0)"/>
       <use xlink:href="#DejaVuSans-64" transform="translate(298.884766 0)"/>
       <use xlink:href="#DejaVuSans-61" transform="translate(362.361328 0)"/>
       <use xlink:href="#DejaVuSans-6e" transform="translate(423.640625 0)"/>
       <use xlink:href="#DejaVuSans-74" transform="translate(487.019531 0)"/>
       <use xlink:href="#DejaVuSans-5f" transform="translate(526.228516 0)"/>
       <use xlink:href="#DejaVuSans-72" transform="translate(576.228516 0)"/>
       <use xlink:href="#DejaVuSans-65" transform="translate(615.091797 0)"/>
       <use xlink:href="#DejaVuSans-76" transform="translate(676.615234 0)"/>
       <use xlink:href="#DejaVuSans-69" transform="translate(735.794922 0)"/>
       <use xlink:href="#DejaVuSans-65" transform="translate(763.578125 0)"/>
       <use xlink:href="#DejaVuSans-77" transform="translate(825.101562 0)"/>
       <use xlink:href="#DejaVuSans-5f" transform="translate(906.888672 0)"/>
       <use xlink:href="#DejaVuSans-65" transform="translate(956.888672 0)"/>
       <use xlink:href="#DejaVuSans-78" transform="translate(1016.662109 0)"/>
       <use xlink:href="#DejaVuSans-63" transform="translate(1074.091797 0)"/>
       <use xlink:href="#DejaVuSans-6c" transform="translate(1129.072266 0)"/>
       <use xlink:href="#DejaVuSans-75" transform="translate(1156.855469 0)"/>
       <use xlink:href="#DejaVuSans-64" transform="translate(1220.234375 0)"/>
       <use xlink:href="#DejaVuSans-65" transform="translate(1283.710938 0)"/>
       <use xlink:href="#DejaVuSans-64" transform="translate(1345.234375 0)"/>
      </g>
     </g>
    </g>
    <g id="ytick_4">
     <g id="line2d_13">
      <g>
       <use xlink:href="#m3340efae1c" x="198.271875" y="281.499261" style="stroke: #000000; stroke-width: 0.8"/>
      </g>
     </g>
     <g id="text_14">
      <!-- benign_nodular_review_excluded -->
      <g transform="translate(25.55625 285.29848) scale(0.1 -0.1)">
       <defs>
        <path id="DejaVuSans-62" d="M 3116 1747 
Q 3116 2381 2855 2742 
Q 2594 3103 2138 3103 
Q 1681 3103 1420 2742 
Q 1159 2381 1159 1747 
Q 1159 1113 1420 752 
Q 1681 391 2138 391 
Q 2594 391 2855 752 
Q 3116 1113 3116 1747 
z
M 1159 2969 
Q 1341 3281 1617 3432 
Q 1894 3584 2278 3584 
Q 2916 3584 3314 3078 
Q 3713 2572 3713 1747 
Q 3713 922 3314 415 
Q 2916 -91 2278 -91 
Q 1894 -91 1617 61 
Q 1341 213 1159 525 
L 1159 0 
L 581 0 
L 581 4863 
L 1159 4863 
L 1159 2969 
z
" transform="scale(0.015625)"/>
       </defs>
       <use xlink:href="#DejaVuSans-62"/>
       <use xlink:href="#DejaVuSans-65" transform="translate(63.476562 0)"/>
       <use xlink:href="#DejaVuSans-6e" transform="translate(125 0)"/>
       <use xlink:href="#DejaVuSans-69" transform="translate(188.378906 0)"/>
       <use xlink:href="#DejaVuSans-67" transform="translate(216.162109 0)"/>
       <use xlink:href="#DejaVuSans-6e" transform="translate(279.638672 0)"/>
       <use xlink:href="#DejaVuSans-5f" transform="translate(343.017578 0)"/>
       <use xlink:href="#DejaVuSans-6e" transform="translate(393.017578 0)"/>
       <use xlink:href="#DejaVuSans-6f" transform="translate(456.396484 0)"/>
       <use xlink:href="#DejaVuSans-64" transform="translate(517.578125 0)"/>
       <use xlink:href="#DejaVuSans-75" transform="translate(581.054688 0)"/>
       <use xlink:href="#DejaVuSans-6c" transform="translate(644.433594 0)"/>
       <use xlink:href="#DejaVuSans-61" transform="translate(672.216797 0)"/>
       <use xlink:href="#DejaVuSans-72" transform="translate(733.496094 0)"/>
       <use xlink:href="#DejaVuSans-5f" transform="translate(774.609375 0)"/>
       <use xlink:href="#DejaVuSans-72" transform="translate(824.609375 0)"/>
       <use xlink:href="#DejaVuSans-65" transform="translate(863.472656 0)"/>
       <use xlink:href="#DejaVuSans-76" transform="translate(924.996094 0)"/>
       <use xlink:href="#DejaVuSans-69" transform="translate(984.175781 0)"/>
       <use xlink:href="#DejaVuSans-65" transform="translate(1011.958984 0)"/>
       <use xlink:href="#DejaVuSans-77" transform="translate(1073.482422 0)"/>
       <use xlink:href="#DejaVuSans-5f" transform="translate(1155.269531 0)"/>
       <use xlink:href="#DejaVuSans-65" transform="translate(1205.269531 0)"/>
       <use xlink:href="#DejaVuSans-78" transform="translate(1265.042969 0)"/>
       <use xlink:href="#DejaVuSans-63" transform="translate(1322.472656 0)"/>
       <use xlink:href="#DejaVuSans-6c" transform="translate(1377.453125 0)"/>
       <use xlink:href="#DejaVuSans-75" transform="translate(1405.236328 0)"/>
       <use xlink:href="#DejaVuSans-64" transform="translate(1468.615234 0)"/>
       <use xlink:href="#DejaVuSans-65" transform="translate(1532.091797 0)"/>
       <use xlink:href="#DejaVuSans-64" transform="translate(1593.615234 0)"/>
      </g>
     </g>
    </g>
    <g id="ytick_5">
     <g id="line2d_14">
      <g>
       <use xlink:href="#m3340efae1c" x="198.271875" y="255.732216" style="stroke: #000000; stroke-width: 0.8"/>
      </g>
     </g>
     <g id="text_15">
      <!-- nodular -->
      <g transform="translate(153.1125 259.531435) scale(0.1 -0.1)">
       <use xlink:href="#DejaVuSans-6e"/>
       <use xlink:href="#DejaVuSans-6f" transform="translate(63.378906 0)"/>
       <use xlink:href="#DejaVuSans-64" transform="translate(124.560547 0)"/>
       <use xlink:href="#DejaVuSans-75" transform="translate(188.037109 0)"/>
       <use xlink:href="#DejaVuSans-6c" transform="translate(251.416016 0)"/>
       <use xlink:href="#DejaVuSans-61" transform="translate(279.199219 0)"/>
       <use xlink:href="#DejaVuSans-72" transform="translate(340.478516 0)"/>
      </g>
     </g>
    </g>
    <g id="ytick_6">
     <g id="line2d_15">
      <g>
       <use xlink:href="#m3340efae1c" x="198.271875" y="229.96517" style="stroke: #000000; stroke-width: 0.8"/>
      </g>
     </g>
     <g id="text_16">
      <!-- unclear_excluded -->
      <g transform="translate(103.742187 233.764389) scale(0.1 -0.1)">
       <use xlink:href="#DejaVuSans-75"/>
       <use xlink:href="#DejaVuSans-6e" transform="translate(63.378906 0)"/>
       <use xlink:href="#DejaVuSans-63" transform="translate(126.757812 0)"/>
       <use xlink:href="#DejaVuSans-6c" transform="translate(181.738281 0)"/>
       <use xlink:href="#DejaVuSans-65" transform="translate(209.521484 0)"/>
       <use xlink:href="#DejaVuSans-61" transform="translate(271.044922 0)"/>
       <use xlink:href="#DejaVuSans-72" transform="translate(332.324219 0)"/>
       <use xlink:href="#DejaVuSans-5f" transform="translate(373.4375 0)"/>
       <use xlink:href="#DejaVuSans-65" transform="translate(423.4375 0)"/>
       <use xlink:href="#DejaVuSans-78" transform="translate(483.210938 0)"/>
       <use xlink:href="#DejaVuSans-63" transform="translate(540.640625 0)"/>
       <use xlink:href="#DejaVuSans-6c" transform="translate(595.621094 0)"/>
       <use xlink:href="#DejaVuSans-75" transform="translate(623.404297 0)"/>
       <use xlink:href="#DejaVuSans-64" transform="translate(686.783203 0)"/>
       <use xlink:href="#DejaVuSans-65" transform="translate(750.259766 0)"/>
       <use xlink:href="#DejaVuSans-64" transform="translate(811.783203 0)"/>
      </g>
     </g>
    </g>
    <g id="ytick_7">
     <g id="line2d_16">
      <g>
       <use xlink:href="#m3340efae1c" x="198.271875" y="204.198125" style="stroke: #000000; stroke-width: 0.8"/>
      </g>
     </g>
     <g id="text_17">
      <!-- resolved_nonactive_excluded -->
      <g transform="translate(44.329687 207.997344) scale(0.1 -0.1)">
       <use xlink:href="#DejaVuSans-72"/>
       <use xlink:href="#DejaVuSans-65" transform="translate(38.863281 0)"/>
       <use xlink:href="#DejaVuSans-73" transform="translate(100.386719 0)"/>
       <use xlink:href="#DejaVuSans-6f" transform="translate(152.486328 0)"/>
       <use xlink:href="#DejaVuSans-6c" transform="translate(213.667969 0)"/>
       <use xlink:href="#DejaVuSans-76" transform="translate(241.451172 0)"/>
       <use xlink:href="#DejaVuSans-65" transform="translate(300.630859 0)"/>
       <use xlink:href="#DejaVuSans-64" transform="translate(362.154297 0)"/>
       <use xlink:href="#DejaVuSans-5f" transform="translate(425.630859 0)"/>
       <use xlink:href="#DejaVuSans-6e" transform="translate(475.630859 0)"/>
       <use xlink:href="#DejaVuSans-6f" transform="translate(539.009766 0)"/>
       <use xlink:href="#DejaVuSans-6e" transform="translate(600.191406 0)"/>
       <use xlink:href="#DejaVuSans-61" transform="translate(663.570312 0)"/>
       <use xlink:href="#DejaVuSans-63" transform="translate(724.849609 0)"/>
       <use xlink:href="#DejaVuSans-74" transform="translate(779.830078 0)"/>
       <use xlink:href="#DejaVuSans-69" transform="translate(819.039062 0)"/>
       <use xlink:href="#DejaVuSans-76" transform="translate(846.822266 0)"/>
       <use xlink:href="#DejaVuSans-65" transform="translate(906.001953 0)"/>
       <use xlink:href="#DejaVuSans-5f" transform="translate(967.525391 0)"/>
       <use xlink:href="#DejaVuSans-65" transform="translate(1017.525391 0)"/>
       <use xlink:href="#DejaVuSans-78" transform="translate(1077.298828 0)"/>
       <use xlink:href="#DejaVuSans-63" transform="translate(1134.728516 0)"/>
       <use xlink:href="#DejaVuSans-6c" transform="translate(1189.708984 0)"/>
       <use xlink:href="#DejaVuSans-75" transform="translate(1217.492188 0)"/>
       <use xlink:href="#DejaVuSans-64" transform="translate(1280.871094 0)"/>
       <use xlink:href="#DejaVuSans-65" transform="translate(1344.347656 0)"/>
       <use xlink:href="#DejaVuSans-64" transform="translate(1405.871094 0)"/>
      </g>
     </g>
    </g>
    <g id="ytick_8">
     <g id="line2d_17">
      <g>
       <use xlink:href="#m3340efae1c" x="198.271875" y="178.43108" style="stroke: #000000; stroke-width: 0.8"/>
      </g>
     </g>
     <g id="text_18">
      <!-- mild_ambiguous -->
      <g transform="translate(109.279687 182.230298) scale(0.1 -0.1)">
       <use xlink:href="#DejaVuSans-6d"/>
       <use xlink:href="#DejaVuSans-69" transform="translate(97.412109 0)"/>
       <use xlink:href="#DejaVuSans-6c" transform="translate(125.195312 0)"/>
       <use xlink:href="#DejaVuSans-64" transform="translate(152.978516 0)"/>
       <use xlink:href="#DejaVuSans-5f" transform="translate(216.455078 0)"/>
       <use xlink:href="#DejaVuSans-61" transform="translate(266.455078 0)"/>
       <use xlink:href="#DejaVuSans-6d" transform="translate(327.734375 0)"/>
       <use xlink:href="#DejaVuSans-62" transform="translate(425.146484 0)"/>
       <use xlink:href="#DejaVuSans-69" transform="translate(488.623047 0)"/>
       <use xlink:href="#DejaVuSans-67" transform="translate(516.40625 0)"/>
       <use xlink:href="#DejaVuSans-75" transform="translate(579.882812 0)"/>
       <use xlink:href="#DejaVuSans-6f" transform="translate(643.261719 0)"/>
       <use xlink:href="#DejaVuSans-75" transform="translate(704.443359 0)"/>
       <use xlink:href="#DejaVuSans-73" transform="translate(767.822266 0)"/>
      </g>
     </g>
    </g>
    <g id="ytick_9">
     <g id="line2d_18">
      <g>
       <use xlink:href="#m3340efae1c" x="198.271875" y="152.664034" style="stroke: #000000; stroke-width: 0.8"/>
      </g>
     </g>
     <g id="text_19">
      <!-- hypothetical_unclear_excluded -->
      <g transform="translate(36.504687 156.463253) scale(0.1 -0.1)">
       <defs>
        <path id="DejaVuSans-68" d="M 3513 2113 
L 3513 0 
L 2938 0 
L 2938 2094 
Q 2938 2591 2744 2837 
Q 2550 3084 2163 3084 
Q 1697 3084 1428 2787 
Q 1159 2491 1159 1978 
L 1159 0 
L 581 0 
L 581 4863 
L 1159 4863 
L 1159 2956 
Q 1366 3272 1645 3428 
Q 1925 3584 2291 3584 
Q 2894 3584 3203 3211 
Q 3513 2838 3513 2113 
z
" transform="scale(0.015625)"/>
        <path id="DejaVuSans-79" d="M 2059 -325 
Q 1816 -950 1584 -1140 
Q 1353 -1331 966 -1331 
L 506 -1331 
L 506 -850 
L 844 -850 
Q 1081 -850 1212 -737 
Q 1344 -625 1503 -206 
L 1606 56 
L 191 3500 
L 800 3500 
L 1894 763 
L 2988 3500 
L 3597 3500 
L 2059 -325 
z
" transform="scale(0.015625)"/>
       </defs>
       <use xlink:href="#DejaVuSans-68"/>
       <use xlink:href="#DejaVuSans-79" transform="translate(63.378906 0)"/>
       <use xlink:href="#DejaVuSans-70" transform="translate(122.558594 0)"/>
       <use xlink:href="#DejaVuSans-6f" transform="translate(186.035156 0)"/>
       <use xlink:href="#DejaVuSans-74" transform="translate(247.216797 0)"/>
       <use xlink:href="#DejaVuSans-68" transform="translate(286.425781 0)"/>
       <use xlink:href="#DejaVuSans-65" transform="translate(349.804688 0)"/>
       <use xlink:href="#DejaVuSans-74" transform="translate(411.328125 0)"/>
       <use xlink:href="#DejaVuSans-69" transform="translate(450.537109 0)"/>
       <use xlink:href="#DejaVuSans-63" transform="translate(478.320312 0)"/>
       <use xlink:href="#DejaVuSans-61" transform="translate(533.300781 0)"/>
       <use xlink:href="#DejaVuSans-6c" transform="translate(594.580078 0)"/>
       <use xlink:href="#DejaVuSans-5f" transform="translate(622.363281 0)"/>
       <use xlink:href="#DejaVuSans-75" transform="translate(672.363281 0)"/>
       <use xlink:href="#DejaVuSans-6e" transform="translate(735.742188 0)"/>
       <use xlink:href="#DejaVuSans-63" transform="translate(799.121094 0)"/>
       <use xlink:href="#DejaVuSans-6c" transform="translate(854.101562 0)"/>
       <use xlink:href="#DejaVuSans-65" transform="translate(881.884766 0)"/>
       <use xlink:href="#DejaVuSans-61" transform="translate(943.408203 0)"/>
       <use xlink:href="#DejaVuSans-72" transform="translate(1004.6875 0)"/>
       <use xlink:href="#DejaVuSans-5f" transform="translate(1045.800781 0)"/>
       <use xlink:href="#DejaVuSans-65" transform="translate(1095.800781 0)"/>
       <use xlink:href="#DejaVuSans-78" transform="translate(1155.574219 0)"/>
       <use xlink:href="#DejaVuSans-63" transform="translate(1213.003906 0)"/>
       <use xlink:href="#DejaVuSans-6c" transform="translate(1267.984375 0)"/>
       <use xlink:href="#DejaVuSans-75" transform="translate(1295.767578 0)"/>
       <use xlink:href="#DejaVuSans-64" transform="translate(1359.146484 0)"/>
       <use xlink:href="#DejaVuSans-65" transform="translate(1422.623047 0)"/>
       <use xlink:href="#DejaVuSans-64" transform="translate(1484.146484 0)"/>
      </g>
     </g>
    </g>
    <g id="ytick_10">
     <g id="line2d_19">
      <g>
       <use xlink:href="#m3340efae1c" x="198.271875" y="126.896989" style="stroke: #000000; stroke-width: 0.8"/>
      </g>
     </g>
     <g id="text_20">
      <!-- chronic_structural -->
      <g transform="translate(101.465625 130.696207) scale(0.1 -0.1)">
       <use xlink:href="#DejaVuSans-63"/>
       <use xlink:href="#DejaVuSans-68" transform="translate(54.980469 0)"/>
       <use xlink:href="#DejaVuSans-72" transform="translate(118.359375 0)"/>
       <use xlink:href="#DejaVuSans-6f" transform="translate(157.222656 0)"/>
       <use xlink:href="#DejaVuSans-6e" transform="translate(218.404297 0)"/>
       <use xlink:href="#DejaVuSans-69" transform="translate(281.783203 0)"/>
       <use xlink:href="#DejaVuSans-63" transform="translate(309.566406 0)"/>
       <use xlink:href="#DejaVuSans-5f" transform="translate(364.546875 0)"/>
       <use xlink:href="#DejaVuSans-73" transform="translate(414.546875 0)"/>
       <use xlink:href="#DejaVuSans-74" transform="translate(466.646484 0)"/>
       <use xlink:href="#DejaVuSans-72" transform="translate(505.855469 0)"/>
       <use xlink:href="#DejaVuSans-75" transform="translate(546.96875 0)"/>
       <use xlink:href="#DejaVuSans-63" transform="translate(610.347656 0)"/>
       <use xlink:href="#DejaVuSans-74" transform="translate(665.328125 0)"/>
       <use xlink:href="#DejaVuSans-75" transform="translate(704.537109 0)"/>
       <use xlink:href="#DejaVuSans-72" transform="translate(767.916016 0)"/>
       <use xlink:href="#DejaVuSans-61" transform="translate(809.029297 0)"/>
       <use xlink:href="#DejaVuSans-6c" transform="translate(870.308594 0)"/>
      </g>
     </g>
    </g>
    <g id="ytick_11">
     <g id="line2d_20">
      <g>
       <use xlink:href="#m3340efae1c" x="198.271875" y="101.129943" style="stroke: #000000; stroke-width: 0.8"/>
      </g>
     </g>
     <g id="text_21">
      <!-- acute_relevant -->
      <g transform="translate(116.959375 104.929162) scale(0.1 -0.1)">
       <use xlink:href="#DejaVuSans-61"/>
       <use xlink:href="#DejaVuSans-63" transform="translate(61.279297 0)"/>
       <use xlink:href="#DejaVuSans-75" transform="translate(116.259766 0)"/>
       <use xlink:href="#DejaVuSans-74" transform="translate(179.638672 0)"/>
       <use xlink:href="#DejaVuSans-65" transform="translate(218.847656 0)"/>
       <use xlink:href="#DejaVuSans-5f" transform="translate(280.371094 0)"/>
       <use xlink:href="#DejaVuSans-72" transform="translate(330.371094 0)"/>
       <use xlink:href="#DejaVuSans-65" transform="translate(369.234375 0)"/>
       <use xlink:href="#DejaVuSans-6c" transform="translate(430.757812 0)"/>
       <use xlink:href="#DejaVuSans-65" transform="translate(458.541016 0)"/>
       <use xlink:href="#DejaVuSans-76" transform="translate(520.064453 0)"/>
       <use xlink:href="#DejaVuSans-61" transform="translate(579.244141 0)"/>
       <use xlink:href="#DejaVuSans-6e" transform="translate(640.523438 0)"/>
       <use xlink:href="#DejaVuSans-74" transform="translate(703.902344 0)"/>
      </g>
     </g>
    </g>
    <g id="ytick_12">
     <g id="line2d_21">
      <g>
       <use xlink:href="#m3340efae1c" x="198.271875" y="75.362898" style="stroke: #000000; stroke-width: 0.8"/>
      </g>
     </g>
     <g id="text_22">
      <!-- incidental_excluded -->
      <g transform="translate(92.028125 79.162116) scale(0.1 -0.1)">
       <use xlink:href="#DejaVuSans-69"/>
       <use xlink:href="#DejaVuSans-6e" transform="translate(27.783203 0)"/>
       <use xlink:href="#DejaVuSans-63" transform="translate(91.162109 0)"/>
       <use xlink:href="#DejaVuSans-69" transform="translate(146.142578 0)"/>
       <use xlink:href="#DejaVuSans-64" transform="translate(173.925781 0)"/>
       <use xlink:href="#DejaVuSans-65" transform="translate(237.402344 0)"/>
       <use xlink:href="#DejaVuSans-6e" transform="translate(298.925781 0)"/>
       <use xlink:href="#DejaVuSans-74" transform="translate(362.304688 0)"/>
       <use xlink:href="#DejaVuSans-61" transform="translate(401.513672 0)"/>
       <use xlink:href="#DejaVuSans-6c" transform="translate(462.792969 0)"/>
       <use xlink:href="#DejaVuSans-5f" transform="translate(490.576172 0)"/>
       <use xlink:href="#DejaVuSans-65" transform="translate(540.576172 0)"/>
       <use xlink:href="#DejaVuSans-78" transform="translate(600.349609 0)"/>
       <use xlink:href="#DejaVuSans-63" transform="translate(657.779297 0)"/>
       <use xlink:href="#DejaVuSans-6c" transform="translate(712.759766 0)"/>
       <use xlink:href="#DejaVuSans-75" transform="translate(740.542969 0)"/>
       <use xlink:href="#DejaVuSans-64" transform="translate(803.921875 0)"/>
       <use xlink:href="#DejaVuSans-65" transform="translate(867.398438 0)"/>
       <use xlink:href="#DejaVuSans-64" transform="translate(928.921875 0)"/>
      </g>
     </g>
    </g>
    <g id="ytick_13">
     <g id="line2d_22">
      <g>
       <use xlink:href="#m3340efae1c" x="198.271875" y="49.595852" style="stroke: #000000; stroke-width: 0.8"/>
      </g>
     </g>
     <g id="text_23">
      <!-- normal -->
      <g transform="translate(156.232812 53.395071) scale(0.1 -0.1)">
       <use xlink:href="#DejaVuSans-6e"/>
       <use xlink:href="#DejaVuSans-6f" transform="translate(63.378906 0)"/>
       <use xlink:href="#DejaVuSans-72" transform="translate(124.560547 0)"/>
       <use xlink:href="#DejaVuSans-6d" transform="translate(163.923828 0)"/>
       <use xlink:href="#DejaVuSans-61" transform="translate(261.335938 0)"/>
       <use xlink:href="#DejaVuSans-6c" transform="translate(322.615234 0)"/>
      </g>
     </g>
    </g>
   </g>
   <g id="patch_16">
    <path d="M 198.271875 385.598125 
L 198.271875 22.798125 
" style="fill: none; stroke: #000000; stroke-width: 0.8; stroke-linejoin: miter; stroke-linecap: square"/>
   </g>
   <g id="patch_17">
    <path d="M 703.839018 385.598125 
L 703.839018 22.798125 
" style="fill: none; stroke: #000000; stroke-width: 0.8; stroke-linejoin: miter; stroke-linecap: square"/>
   </g>
   <g id="patch_18">
    <path d="M 198.271875 385.598125 
L 703.839018 385.598125 
" style="fill: none; stroke: #000000; stroke-width: 0.8; stroke-linejoin: miter; stroke-linecap: square"/>
   </g>
   <g id="patch_19">
    <path d="M 198.271875 22.798125 
L 703.839018 22.798125 
" style="fill: none; stroke: #000000; stroke-width: 0.8; stroke-linejoin: miter; stroke-linecap: square"/>
   </g>
   <g id="text_24">
    <!-- 1 -->
    <g transform="translate(203.370198 361.283835) scale(0.09 -0.09)">
     <use xlink:href="#DejaVuSans-31"/>
    </g>
   </g>
   <g id="text_25">
    <!-- 5 -->
    <g transform="translate(204.503788 335.51679) scale(0.09 -0.09)">
     <defs>
      <path id="DejaVuSans-35" d="M 691 4666 
L 3169 4666 
L 3169 4134 
L 1269 4134 
L 1269 2991 
Q 1406 3038 1543 3061 
Q 1681 3084 1819 3084 
Q 2600 3084 3056 2656 
Q 3513 2228 3513 1497 
Q 3513 744 3044 326 
Q 2575 -91 1722 -91 
Q 1428 -91 1123 -41 
Q 819 9 494 109 
L 494 744 
Q 775 591 1075 516 
Q 1375 441 1709 441 
Q 2250 441 2565 725 
Q 2881 1009 2881 1497 
Q 2881 1984 2565 2268 
Q 2250 2553 1709 2553 
Q 1456 2553 1204 2497 
Q 953 2441 691 2322 
L 691 4666 
z
" transform="scale(0.015625)"/>
     </defs>
     <use xlink:href="#DejaVuSans-35"/>
    </g>
   </g>
   <g id="text_26">
    <!-- 7 -->
    <g transform="translate(205.070583 309.749744) scale(0.09 -0.09)">
     <defs>
      <path id="DejaVuSans-37" d="M 525 4666 
L 3525 4666 
L 3525 4397 
L 1831 0 
L 1172 0 
L 2766 4134 
L 525 4134 
L 525 4666 
z
" transform="scale(0.015625)"/>
     </defs>
     <use xlink:href="#DejaVuSans-37"/>
    </g>
   </g>
   <g id="text_27">
    <!-- 15 -->
    <g transform="translate(207.337764 283.982699) scale(0.09 -0.09)">
     <use xlink:href="#DejaVuSans-31"/>
     <use xlink:href="#DejaVuSans-35" transform="translate(63.623047 0)"/>
    </g>
   </g>
   <g id="text_28">
    <!-- 42 -->
    <g transform="translate(214.989499 258.215653) scale(0.09 -0.09)">
     <use xlink:href="#DejaVuSans-34"/>
     <use xlink:href="#DejaVuSans-32" transform="translate(63.623047 0)"/>
    </g>
   </g>
   <g id="text_29">
    <!-- 49 -->
    <g transform="translate(216.973282 232.448608) scale(0.09 -0.09)">
     <defs>
      <path id="DejaVuSans-39" d="M 703 97 
L 703 672 
Q 941 559 1184 500 
Q 1428 441 1663 441 
Q 2288 441 2617 861 
Q 2947 1281 2994 2138 
Q 2813 1869 2534 1725 
Q 2256 1581 1919 1581 
Q 1219 1581 811 2004 
Q 403 2428 403 3163 
Q 403 3881 828 4315 
Q 1253 4750 1959 4750 
Q 2769 4750 3195 4129 
Q 3622 3509 3622 2328 
Q 3622 1225 3098 567 
Q 2575 -91 1691 -91 
Q 1453 -91 1209 -44 
Q 966 3 703 97 
z
M 1959 2075 
Q 2384 2075 2632 2365 
Q 2881 2656 2881 3163 
Q 2881 3666 2632 3958 
Q 2384 4250 1959 4250 
Q 1534 4250 1286 3958 
Q 1038 3666 1038 3163 
Q 1038 2656 1286 2365 
Q 1534 2075 1959 2075 
z
" transform="scale(0.015625)"/>
     </defs>
     <use xlink:href="#DejaVuSans-34"/>
     <use xlink:href="#DejaVuSans-39" transform="translate(63.623047 0)"/>
    </g>
   </g>
   <g id="text_30">
    <!-- 116 -->
    <g transform="translate(235.960921 206.681562) scale(0.09 -0.09)">
     <use xlink:href="#DejaVuSans-31"/>
     <use xlink:href="#DejaVuSans-31" transform="translate(63.623047 0)"/>
     <use xlink:href="#DejaVuSans-36" transform="translate(127.246094 0)"/>
    </g>
   </g>
   <g id="text_31">
    <!-- 154 -->
    <g transform="translate(246.73003 180.914517) scale(0.09 -0.09)">
     <use xlink:href="#DejaVuSans-31"/>
     <use xlink:href="#DejaVuSans-35" transform="translate(63.623047 0)"/>
     <use xlink:href="#DejaVuSans-34" transform="translate(127.246094 0)"/>
    </g>
   </g>
   <g id="text_32">
    <!-- 192 -->
    <g transform="translate(257.499139 155.147472) scale(0.09 -0.09)">
     <use xlink:href="#DejaVuSans-31"/>
     <use xlink:href="#DejaVuSans-39" transform="translate(63.623047 0)"/>
     <use xlink:href="#DejaVuSans-32" transform="translate(127.246094 0)"/>
    </g>
   </g>
   <g id="text_33">
    <!-- 264 -->
    <g transform="translate(277.903766 129.380426) scale(0.09 -0.09)">
     <use xlink:href="#DejaVuSans-32"/>
     <use xlink:href="#DejaVuSans-36" transform="translate(63.623047 0)"/>
     <use xlink:href="#DejaVuSans-34" transform="translate(127.246094 0)"/>
    </g>
   </g>
   <g id="text_34">
    <!-- 386 -->
    <g transform="translate(312.478273 103.613381) scale(0.09 -0.09)">
     <defs>
      <path id="DejaVuSans-33" d="M 2597 2516 
Q 3050 2419 3304 2112 
Q 3559 1806 3559 1356 
Q 3559 666 3084 287 
Q 2609 -91 1734 -91 
Q 1441 -91 1130 -33 
Q 819 25 488 141 
L 488 750 
Q 750 597 1062 519 
Q 1375 441 1716 441 
Q 2309 441 2620 675 
Q 2931 909 2931 1356 
Q 2931 1769 2642 2001 
Q 2353 2234 1838 2234 
L 1294 2234 
L 1294 2753 
L 1863 2753 
Q 2328 2753 2575 2939 
Q 2822 3125 2822 3475 
Q 2822 3834 2567 4026 
Q 2313 4219 1838 4219 
Q 1578 4219 1281 4162 
Q 984 4106 628 3988 
L 628 4550 
Q 988 4650 1302 4700 
Q 1616 4750 1894 4750 
Q 2613 4750 3031 4423 
Q 3450 4097 3450 3541 
Q 3450 3153 3228 2886 
Q 3006 2619 2597 2516 
z
" transform="scale(0.015625)"/>
     </defs>
     <use xlink:href="#DejaVuSans-33"/>
     <use xlink:href="#DejaVuSans-38" transform="translate(63.623047 0)"/>
     <use xlink:href="#DejaVuSans-36" transform="translate(127.246094 0)"/>
    </g>
   </g>
   <g id="text_35">
    <!-- 888 -->
    <g transform="translate(454.743866 77.846335) scale(0.09 -0.09)">
     <use xlink:href="#DejaVuSans-38"/>
     <use xlink:href="#DejaVuSans-38" transform="translate(63.623047 0)"/>
     <use xlink:href="#DejaVuSans-38" transform="translate(127.246094 0)"/>
    </g>
   </g>
   <g id="text_36">
    <!-- 1699 -->
    <g transform="translate(684.579317 52.07929) scale(0.09 -0.09)">
     <use xlink:href="#DejaVuSans-31"/>
     <use xlink:href="#DejaVuSans-36" transform="translate(63.623047 0)"/>
     <use xlink:href="#DejaVuSans-39" transform="translate(127.246094 0)"/>
     <use xlink:href="#DejaVuSans-39" transform="translate(190.869141 0)"/>
    </g>
   </g>
   <g id="text_37">
    <!-- Distribución de categorías antes del filtro binario -->
    <g transform="translate(304.349821 16.798125) scale(0.12 -0.12)">
     <defs>
      <path id="DejaVuSans-44" d="M 1259 4147 
L 1259 519 
L 2022 519 
Q 2988 519 3436 956 
Q 3884 1394 3884 2338 
Q 3884 3275 3436 3711 
Q 2988 4147 2022 4147 
L 1259 4147 
z
M 628 4666 
L 1925 4666 
Q 3281 4666 3915 4102 
Q 4550 3538 4550 2338 
Q 4550 1131 3912 565 
Q 3275 0 1925 0 
L 628 0 
L 628 4666 
z
" transform="scale(0.015625)"/>
      <path id="DejaVuSans-f3" d="M 1959 3097 
Q 1497 3097 1228 2736 
Q 959 2375 959 1747 
Q 959 1119 1226 758 
Q 1494 397 1959 397 
Q 2419 397 2687 759 
Q 2956 1122 2956 1747 
Q 2956 2369 2687 2733 
Q 2419 3097 1959 3097 
z
M 1959 3584 
Q 2709 3584 3137 3096 
Q 3566 2609 3566 1747 
Q 3566 888 3137 398 
Q 2709 -91 1959 -91 
Q 1206 -91 779 398 
Q 353 888 353 1747 
Q 353 2609 779 3096 
Q 1206 3584 1959 3584 
z
M 2394 5119 
L 3016 5119 
L 1998 3944 
L 1519 3944 
L 2394 5119 
z
" transform="scale(0.015625)"/>
      <path id="DejaVuSans-ed" d="M 1322 5119 
L 1944 5119 
L 926 3944 
L 447 3944 
L 1322 5119 
z
M 603 3500 
L 1178 3500 
L 1178 0 
L 603 0 
L 603 3500 
z
M 891 3584 
L 891 3584 
z
" transform="scale(0.015625)"/>
     </defs>
     <use xlink:href="#DejaVuSans-44"/>
     <use xlink:href="#DejaVuSans-69" transform="translate(77.001953 0)"/>
     <use xlink:href="#DejaVuSans-73" transform="translate(104.785156 0)"/>
     <use xlink:href="#DejaVuSans-74" transform="translate(156.884766 0)"/>
     <use xlink:href="#DejaVuSans-72" transform="translate(196.09375 0)"/>
     <use xlink:href="#DejaVuSans-69" transform="translate(237.207031 0)"/>
     <use xlink:href="#DejaVuSans-62" transform="translate(264.990234 0)"/>
     <use xlink:href="#DejaVuSans-75" transform="translate(328.466797 0)"/>
     <use xlink:href="#DejaVuSans-63" transform="translate(391.845703 0)"/>
     <use xlink:href="#DejaVuSans-69" transform="translate(446.826172 0)"/>
     <use xlink:href="#DejaVuSans-f3" transform="translate(474.609375 0)"/>
     <use xlink:href="#DejaVuSans-6e" transform="translate(535.791016 0)"/>
     <use xlink:href="#DejaVuSans-20" transform="translate(599.169922 0)"/>
     <use xlink:href="#DejaVuSans-64" transform="translate(630.957031 0)"/>
     <use xlink:href="#DejaVuSans-65" transform="translate(694.433594 0)"/>
     <use xlink:href="#DejaVuSans-20" transform="translate(755.957031 0)"/>
     <use xlink:href="#DejaVuSans-63" transform="translate(787.744141 0)"/>
     <use xlink:href="#DejaVuSans-61" transform="translate(842.724609 0)"/>
     <use xlink:href="#DejaVuSans-74" transform="translate(904.003906 0)"/>
     <use xlink:href="#DejaVuSans-65" transform="translate(943.212891 0)"/>
     <use xlink:href="#DejaVuSans-67" transform="translate(1004.736328 0)"/>
     <use xlink:href="#DejaVuSans-6f" transform="translate(1068.212891 0)"/>
     <use xlink:href="#DejaVuSans-72" transform="translate(1129.394531 0)"/>
     <use xlink:href="#DejaVuSans-ed" transform="translate(1170.507812 0)"/>
     <use xlink:href="#DejaVuSans-61" transform="translate(1198.291016 0)"/>
     <use xlink:href="#DejaVuSans-73" transform="translate(1259.570312 0)"/>
     <use xlink:href="#DejaVuSans-20" transform="translate(1311.669922 0)"/>
     <use xlink:href="#DejaVuSans-61" transform="translate(1343.457031 0)"/>
     <use xlink:href="#DejaVuSans-6e" transform="translate(1404.736328 0)"/>
     <use xlink:href="#DejaVuSans-74" transform="translate(1468.115234 0)"/>
     <use xlink:href="#DejaVuSans-65" transform="translate(1507.324219 0)"/>
     <use xlink:href="#DejaVuSans-73" transform="translate(1568.847656 0)"/>
     <use xlink:href="#DejaVuSans-20" transform="translate(1620.947266 0)"/>
     <use xlink:href="#DejaVuSans-64" transform="translate(1652.734375 0)"/>
     <use xlink:href="#DejaVuSans-65" transform="translate(1716.210938 0)"/>
     <use xlink:href="#DejaVuSans-6c" transform="translate(1777.734375 0)"/>
     <use xlink:href="#DejaVuSans-20" transform="translate(1805.517578 0)"/>
     <use xlink:href="#DejaVuSans-66" transform="translate(1837.304688 0)"/>
     <use xlink:href="#DejaVuSans-69" transform="translate(1872.509766 0)"/>
     <use xlink:href="#DejaVuSans-6c" transform="translate(1900.292969 0)"/>
     <use xlink:href="#DejaVuSans-74" transform="translate(1928.076172 0)"/>
     <use xlink:href="#DejaVuSans-72" transform="translate(1967.285156 0)"/>
     <use xlink:href="#DejaVuSans-6f" transform="translate(2006.148438 0)"/>
     <use xlink:href="#DejaVuSans-20" transform="translate(2067.330078 0)"/>
     <use xlink:href="#DejaVuSans-62" transform="translate(2099.117188 0)"/>
     <use xlink:href="#DejaVuSans-69" transform="translate(2162.59375 0)"/>
     <use xlink:href="#DejaVuSans-6e" transform="translate(2190.376953 0)"/>
     <use xlink:href="#DejaVuSans-61" transform="translate(2253.755859 0)"/>
     <use xlink:href="#DejaVuSans-72" transform="translate(2315.035156 0)"/>
     <use xlink:href="#DejaVuSans-69" transform="translate(2356.148438 0)"/>
     <use xlink:href="#DejaVuSans-6f" transform="translate(2383.931641 0)"/>
    </g>
   </g>
  </g>
 </g>
 <defs>
  <clipPath id="pab894af9db">
   <rect x="198.271875" y="22.798125" width="505.567143" height="362.8"/>
  </clipPath>
 </defs>
</svg>
