<?xml version="1.0" encoding="utf-8" standalone="no"?>
<!DOCTYPE svg PUBLIC "-//W3C//DTD SVG 1.1//EN"
  "http://www.w3.org/Graphics/SVG/1.1/DTD/svg11.dtd">
<svg xmlns:xlink="http://www.w3.org/1999/xlink" width="714.829665pt" height="408.754375pt" viewBox="0 0 714.829665 408.754375" xmlns="http://www.w3.org/2000/svg" version="1.1">
 <metadata>
  <rdf:RDF xmlns:dc="http://purl.org/dc/elements/1.1/" xmlns:cc="http://creativecommons.org/ns#" xmlns:rdf="http://www.w3.org/1999/02/22-rdf-syntax-ns#">
   <cc:Work>
    <dc:type rdf:resource="http://purl.org/dc/dcmitype/StillImage"/>
    <dc:date>2026-05-17T23:24:40.111726</dc:date>
    <dc:format>image/svg+xml</dc:format>
    <dc:creator>
     <cc:Agent>
      <dc:title>Matplotlib v3.10.8, https://matplotlib.org/</dc:title>
     </cc:Agent>
    </dc:creator>
   </cc:Work>
  </rdf:RDF>
 </metadata>
 <defs>
  <style type="text/css">*{stroke-linejoin: round; stroke-linecap: butt}</style>
 </defs>
 <g id="figure_1">
  <g id="patch_1">
   <path d="M 0 408.754375 
L 714.829665 408.754375 
L 714.829665 0 
L 0 0 
z
" style="fill: #ffffff"/>
  </g>
  <g id="axes_1">
   <g id="patch_2">
    <path d="M 178.579688 371.198125 
L 671.90683 371.198125 
L 671.90683 22.798125 
L 178.579688 22.798125 
z
" style="fill: #ffffff"/>
   </g>
   <g id="patch_3">
    <path d="M 178.579688 38.634489 
L 178.579688 38.634489 
L 178.579688 60.107524 
L 178.579688 60.107524 
z
" clip-path="url(#pa0b861355f)" style="fill: #1f77b4"/>
   </g>
   <g id="patch_4">
    <path d="M 178.579688 65.475783 
L 178.579688 65.475783 
L 178.579688 86.948818 
L 178.579688 86.948818 
z
" clip-path="url(#pa0b861355f)" style="fill: #1f77b4"/>
   </g>
   <g id="patch_5">
    <path d="M 178.579688 92.317077 
L 178.579688 92.317077 
L 178.579688 113.790113 
L 178.579688 113.790113 
z
" clip-path="url(#pa0b861355f)" style="fill: #1f77b4"/>
   </g>
   <g id="patch_6">
    <path d="M 178.579688 119.158372 
L 178.579688 119.158372 
L 178.579688 140.631407 
L 178.579688 140.631407 
z
" clip-path="url(#pa0b861355f)" style="fill: #1f77b4"/>
   </g>
   <g id="patch_7">
    <path d="M 178.579688 145.999666 
L 178.579688 145.999666 
L 178.579688 167.472701 
L 178.579688 167.472701 
z
" clip-path="url(#pa0b861355f)" style="fill: #1f77b4"/>
   </g>
   <g id="patch_8">
    <path d="M 178.579688 172.84096 
L 178.659722 172.84096 
L 178.659722 194.313996 
L 178.579688 194.313996 
z
" clip-path="url(#pa0b861355f)" style="fill: #1f77b4"/>
   </g>
   <g id="patch_9">
    <path d="M 178.579688 199.682254 
L 178.659656 199.682254 
L 178.659656 221.15529 
L 178.579688 221.15529 
z
" clip-path="url(#pa0b861355f)" style="fill: #1f77b4"/>
   </g>
   <g id="patch_10">
    <path d="M 178.579688 226.523549 
L 648.415062 226.523549 
L 648.415062 247.996584 
L 178.579688 247.996584 
z
" clip-path="url(#pa0b861355f)" style="fill: #1f77b4"/>
   </g>
   <g id="patch_11">
    <path d="M 178.579688 253.364843 
L 632.652486 253.364843 
L 632.652486 274.837878 
L 178.579688 274.837878 
z
" clip-path="url(#pa0b861355f)" style="fill: #1f77b4"/>
   </g>
   <g id="patch_12">
    <path d="M 178.579688 280.206137 
L 369.942889 280.206137 
L 369.942889 301.679173 
L 178.579688 301.679173 
z
" clip-path="url(#pa0b861355f)" style="fill: #1f77b4"/>
   </g>
   <g id="patch_13">
    <path d="M 178.579688 307.047432 
L 363.306015 307.047432 
L 363.306015 328.520467 
L 178.579688 328.520467 
z
" clip-path="url(#pa0b861355f)" style="fill: #1f77b4"/>
   </g>
   <g id="patch_14">
    <path d="M 178.579688 333.888726 
L 271.495924 333.888726 
L 271.495924 355.361761 
L 178.579688 355.361761 
z
" clip-path="url(#pa0b861355f)" style="fill: #1f77b4"/>
   </g>
   <g id="matplotlib.axis_1">
    <g id="xtick_1">
     <g id="line2d_1">
      <defs>
       <path id="m491f4b7a19" d="M 0 0 
L 0 3.5 
" style="stroke: #000000; stroke-width: 0.8"/>
      </defs>
      <g>
       <use xlink:href="#m491f4b7a19" x="178.579688" y="371.198125" style="stroke: #000000; stroke-width: 0.8"/>
      </g>
     </g>
     <g id="text_1">
      <!-- 0 -->
      <g transform="translate(175.398438 385.796562) scale(0.1 -0.1)">
       <defs>
        <path id="DejaVuSans-30" d="M 2034 4250 
Q 1547 4250 1301 3770 
Q 1056 3291 1056 2328 
Q 1056 1369 1301 889 
Q 1547 409 2034 409 
Q 2525 409 2770 889 
Q 3016 1369 3016 2328 
Q 3016 3291 2770 3770 
Q 2525 4250 2034 4250 
z
M 2034 4750 
Q 2819 4750 3233 4129 
Q 3647 3509 3647 2328 
Q 3647 1150 3233 529 
Q 2819 -91 2034 -91 
Q 1250 -91 836 529 
Q 422 1150 422 2328 
Q 422 3509 836 4129 
Q 1250 4750 2034 4750 
z
" transform="scale(0.015625)"/>
       </defs>
       <use xlink:href="#DejaVuSans-30"/>
      </g>
     </g>
    </g>
    <g id="xtick_2">
     <g id="line2d_2">
      <g>
       <use xlink:href="#m491f4b7a19" x="233.886971" y="371.198125" style="stroke: #000000; stroke-width: 0.8"/>
      </g>
     </g>
     <g id="text_2">
      <!-- 200 -->
      <g transform="translate(224.343221 385.796562) scale(0.1 -0.1)">
       <defs>
        <path id="DejaVuSans-32" d="M 1228 531 
L 3431 531 
L 3431 0 
L 469 0 
L 469 531 
Q 828 903 1448 1529 
Q 2069 2156 2228 2338 
Q 2531 2678 2651 2914 
Q 2772 3150 2772 3378 
Q 2772 3750 2511 3984 
Q 2250 4219 1831 4219 
Q 1534 4219 1204 4116 
Q 875 4013 500 3803 
L 500 4441 
Q 881 4594 1212 4672 
Q 1544 4750 1819 4750 
Q 2544 4750 2975 4387 
Q 3406 4025 3406 3419 
Q 3406 3131 3298 2873 
Q 3191 2616 2906 2266 
Q 2828 2175 2409 1742 
Q 1991 1309 1228 531 
z
" transform="scale(0.015625)"/>
       </defs>
       <use xlink:href="#DejaVuSans-32"/>
       <use xlink:href="#DejaVuSans-30" transform="translate(63.623047 0)"/>
       <use xlink:href="#DejaVuSans-30" transform="translate(127.246094 0)"/>
      </g>
     </g>
    </g>
    <g id="xtick_3">
     <g id="line2d_3">
      <g>
       <use xlink:href="#m491f4b7a19" x="289.194255" y="371.198125" style="stroke: #000000; stroke-width: 0.8"/>
      </g>
     </g>
     <g id="text_3">
      <!-- 400 -->
      <g transform="translate(279.650505 385.796562) scale(0.1 -0.1)">
       <defs>
        <path id="DejaVuSans-34" d="M 2419 4116 
L 825 1625 
L 2419 1625 
L 2419 4116 
z
M 2253 4666 
L 3047 4666 
L 3047 1625 
L 3713 1625 
L 3713 1100 
L 3047 1100 
L 3047 0 
L 2419 0 
L 2419 1100 
L 313 1100 
L 313 1709 
L 2253 4666 
z
" transform="scale(0.015625)"/>
       </defs>
       <use xlink:href="#DejaVuSans-34"/>
       <use xlink:href="#DejaVuSans-30" transform="translate(63.623047 0)"/>
       <use xlink:href="#DejaVuSans-30" transform="translate(127.246094 0)"/>
      </g>
     </g>
    </g>
    <g id="xtick_4">
     <g id="line2d_4">
      <g>
       <use xlink:href="#m491f4b7a19" x="344.501538" y="371.198125" style="stroke: #000000; stroke-width: 0.8"/>
      </g>
     </g>
     <g id="text_4">
      <!-- 600 -->
      <g transform="translate(334.957788 385.796562) scale(0.1 -0.1)">
       <defs>
        <path id="DejaVuSans-36" d="M 2113 2584 
Q 1688 2584 1439 2293 
Q 1191 2003 1191 1497 
Q 1191 994 1439 701 
Q 1688 409 2113 409 
Q 2538 409 2786 701 
Q 3034 994 3034 1497 
Q 3034 2003 2786 2293 
Q 2538 2584 2113 2584 
z
M 3366 4563 
L 3366 3988 
Q 3128 4100 2886 4159 
Q 2644 4219 2406 4219 
Q 1781 4219 1451 3797 
Q 1122 3375 1075 2522 
Q 1259 2794 1537 2939 
Q 1816 3084 2150 3084 
Q 2853 3084 3261 2657 
Q 3669 2231 3669 1497 
Q 3669 778 3244 343 
Q 2819 -91 2113 -91 
Q 1303 -91 875 529 
Q 447 1150 447 2328 
Q 447 3434 972 4092 
Q 1497 4750 2381 4750 
Q 2619 4750 2861 4703 
Q 3103 4656 3366 4563 
z
" transform="scale(0.015625)"/>
       </defs>
       <use xlink:href="#DejaVuSans-36"/>
       <use xlink:href="#DejaVuSans-30" transform="translate(63.623047 0)"/>
       <use xlink:href="#DejaVuSans-30" transform="translate(127.246094 0)"/>
      </g>
     </g>
    </g>
    <g id="xtick_5">
     <g id="line2d_5">
      <g>
       <use xlink:href="#m491f4b7a19" x="399.808822" y="371.198125" style="stroke: #000000; stroke-width: 0.8"/>
      </g>
     </g>
     <g id="text_5">
      <!-- 800 -->
      <g transform="translate(390.265072 385.796562) scale(0.1 -0.1)">
       <defs>
        <path id="DejaVuSans-38" d="M 2034 2216 
Q 1584 2216 1326 1975 
Q 1069 1734 1069 1313 
Q 1069 891 1326 650 
Q 1584 409 2034 409 
Q 2484 409 2743 651 
Q 3003 894 3003 1313 
Q 3003 1734 2745 1975 
Q 2488 2216 2034 2216 
z
M 1403 2484 
Q 997 2584 770 2862 
Q 544 3141 544 3541 
Q 544 4100 942 4425 
Q 1341 4750 2034 4750 
Q 2731 4750 3128 4425 
Q 3525 4100 3525 3541 
Q 3525 3141 3298 2862 
Q 3072 2584 2669 2484 
Q 3125 2378 3379 2068 
Q 3634 1759 3634 1313 
Q 3634 634 3220 271 
Q 2806 -91 2034 -91 
Q 1263 -91 848 271 
Q 434 634 434 1313 
Q 434 1759 690 2068 
Q 947 2378 1403 2484 
z
M 1172 3481 
Q 1172 3119 1398 2916 
Q 1625 2713 2034 2713 
Q 2441 2713 2670 2916 
Q 2900 3119 2900 3481 
Q 2900 3844 2670 4047 
Q 2441 4250 2034 4250 
Q 1625 4250 1398 4047 
Q 1172 3844 1172 3481 
z
" transform="scale(0.015625)"/>
       </defs>
       <use xlink:href="#DejaVuSans-38"/>
       <use xlink:href="#DejaVuSans-30" transform="translate(63.623047 0)"/>
       <use xlink:href="#DejaVuSans-30" transform="translate(127.246094 0)"/>
      </g>
     </g>
    </g>
    <g id="xtick_6">
     <g id="line2d_6">
      <g>
       <use xlink:href="#m491f4b7a19" x="455.116105" y="371.198125" style="stroke: #000000; stroke-width: 0.8"/>
      </g>
     </g>
     <g id="text_6">
      <!-- 1000 -->
      <g transform="translate(442.391105 385.796562) scale(0.1 -0.1)">
       <defs>
        <path id="DejaVuSans-31" d="M 794 531 
L 1825 531 
L 1825 4091 
L 703 3866 
L 703 4441 
L 1819 4666 
L 2450 4666 
L 2450 531 
L 3481 531 
L 3481 0 
L 794 0 
L 794 531 
z
" transform="scale(0.015625)"/>
       </defs>
       <use xlink:href="#DejaVuSans-31"/>
       <use xlink:href="#DejaVuSans-30" transform="translate(63.623047 0)"/>
       <use xlink:href="#DejaVuSans-30" transform="translate(127.246094 0)"/>
       <use xlink:href="#DejaVuSans-30" transform="translate(190.869141 0)"/>
      </g>
     </g>
    </g>
    <g id="xtick_7">
     <g id="line2d_7">
      <g>
       <use xlink:href="#m491f4b7a19" x="510.423389" y="371.198125" style="stroke: #000000; stroke-width: 0.8"/>
      </g>
     </g>
     <g id="text_7">
      <!-- 1200 -->
      <g transform="translate(497.698389 385.796562) scale(0.1 -0.1)">
       <use xlink:href="#DejaVuSans-31"/>
       <use xlink:href="#DejaVuSans-32" transform="translate(63.623047 0)"/>
       <use xlink:href="#DejaVuSans-30" transform="translate(127.246094 0)"/>
       <use xlink:href="#DejaVuSans-30" transform="translate(190.869141 0)"/>
      </g>
     </g>
    </g>
    <g id="xtick_8">
     <g id="line2d_8">
      <g>
       <use xlink:href="#m491f4b7a19" x="565.730673" y="371.198125" style="stroke: #000000; stroke-width: 0.8"/>
      </g>
     </g>
     <g id="text_8">
      <!-- 1400 -->
      <g transform="translate(553.005673 385.796562) scale(0.1 -0.1)">
       <use xlink:href="#DejaVuSans-31"/>
       <use xlink:href="#DejaVuSans-34" transform="translate(63.623047 0)"/>
       <use xlink:href="#DejaVuSans-30" transform="translate(127.246094 0)"/>
       <use xlink:href="#DejaVuSans-30" transform="translate(190.869141 0)"/>
      </g>
     </g>
    </g>
    <g id="xtick_9">
     <g id="line2d_9">
      <g>
       <use xlink:href="#m491f4b7a19" x="621.037956" y="371.198125" style="stroke: #000000; stroke-width: 0.8"/>
      </g>
     </g>
     <g id="text_9">
      <!-- 1600 -->
      <g transform="translate(608.312956 385.796562) scale(0.1 -0.1)">
       <use xlink:href="#DejaVuSans-31"/>
       <use xlink:href="#DejaVuSans-36" transform="translate(63.623047 0)"/>
       <use xlink:href="#DejaVuSans-30" transform="translate(127.246094 0)"/>
       <use xlink:href="#DejaVuSans-30" transform="translate(190.869141 0)"/>
      </g>
     </g>
    </g>
    <g id="text_10">
     <!-- Valor observado -->
     <g transform="translate(384.826071 399.474687) scale(0.1 -0.1)">
      <defs>
       <path id="DejaVuSans-56" d="M 1831 0 
L 50 4666 
L 709 4666 
L 2188 738 
L 3669 4666 
L 4325 4666 
L 2547 0 
L 1831 0 
z
" transform="scale(0.015625)"/>
       <path id="DejaVuSans-61" d="M 2194 1759 
Q 1497 1759 1228 1600 
Q 959 1441 959 1056 
Q 959 750 1161 570 
Q 1363 391 1709 391 
Q 2188 391 2477 730 
Q 2766 1069 2766 1631 
L 2766 1759 
L 2194 1759 
z
M 3341 1997 
L 3341 0 
L 2766 0 
L 2766 531 
Q 2569 213 2275 61 
Q 1981 -91 1556 -91 
Q 1019 -91 701 211 
Q 384 513 384 1019 
Q 384 1609 779 1909 
Q 1175 2209 1959 2209 
L 2766 2209 
L 2766 2266 
Q 2766 2663 2505 2880 
Q 2244 3097 1772 3097 
Q 1472 3097 1187 3025 
Q 903 2953 641 2809 
L 641 3341 
Q 956 3463 1253 3523 
Q 1550 3584 1831 3584 
Q 2591 3584 2966 3190 
Q 3341 2797 3341 1997 
z
" transform="scale(0.015625)"/>
       <path id="DejaVuSans-6c" d="M 603 4863 
L 1178 4863 
L 1178 0 
L 603 0 
L 603 4863 
z
" transform="scale(0.015625)"/>
       <path id="DejaVuSans-6f" d="M 1959 3097 
Q 1497 3097 1228 2736 
Q 959 2375 959 1747 
Q 959 1119 1226 758 
Q 1494 397 1959 397 
Q 2419 397 2687 759 
Q 2956 1122 2956 1747 
Q 2956 2369 2687 2733 
Q 2419 3097 1959 3097 
z
M 1959 3584 
Q 2709 3584 3137 3096 
Q 3566 2609 3566 1747 
Q 3566 888 3137 398 
Q 2709 -91 1959 -91 
Q 1206 -91 779 398 
Q 353 888 353 1747 
Q 353 2609 779 3096 
Q 1206 3584 1959 3584 
z
" transform="scale(0.015625)"/>
       <path id="DejaVuSans-72" d="M 2631 2963 
Q 2534 3019 2420 3045 
Q 2306 3072 2169 3072 
Q 1681 3072 1420 2755 
Q 1159 2438 1159 1844 
L 1159 0 
L 581 0 
L 581 3500 
L 1159 3500 
L 1159 2956 
Q 1341 3275 1631 3429 
Q 1922 3584 2338 3584 
Q 2397 3584 2469 3576 
Q 2541 3569 2628 3553 
L 2631 2963 
z
" transform="scale(0.015625)"/>
       <path id="DejaVuSans-20" transform="scale(0.015625)"/>
       <path id="DejaVuSans-62" d="M 3116 1747 
Q 3116 2381 2855 2742 
Q 2594 3103 2138 3103 
Q 1681 3103 1420 2742 
Q 1159 2381 1159 1747 
Q 1159 1113 1420 752 
Q 1681 391 2138 391 
Q 2594 391 2855 752 
Q 3116 1113 3116 1747 
z
M 1159 2969 
Q 1341 3281 1617 3432 
Q 1894 3584 2278 3584 
Q 2916 3584 3314 3078 
Q 3713 2572 3713 1747 
Q 3713 922 3314 415 
Q 2916 -91 2278 -91 
Q 1894 -91 1617 61 
Q 1341 213 1159 525 
L 1159 0 
L 581 0 
L 581 4863 
L 1159 4863 
L 1159 2969 
z
" transform="scale(0.015625)"/>
       <path id="DejaVuSans-73" d="M 2834 3397 
L 2834 2853 
Q 2591 2978 2328 3040 
Q 2066 3103 1784 3103 
Q 1356 3103 1142 2972 
Q 928 2841 928 2578 
Q 928 2378 1081 2264 
Q 1234 2150 1697 2047 
L 1894 2003 
Q 2506 1872 2764 1633 
Q 3022 1394 3022 966 
Q 3022 478 2636 193 
Q 2250 -91 1575 -91 
Q 1294 -91 989 -36 
Q 684 19 347 128 
L 347 722 
Q 666 556 975 473 
Q 1284 391 1588 391 
Q 1994 391 2212 530 
Q 2431 669 2431 922 
Q 2431 1156 2273 1281 
Q 2116 1406 1581 1522 
L 1381 1569 
Q 847 1681 609 1914 
Q 372 2147 372 2553 
Q 372 3047 722 3315 
Q 1072 3584 1716 3584 
Q 2034 3584 2315 3537 
Q 2597 3491 2834 3397 
z
" transform="scale(0.015625)"/>
       <path id="DejaVuSans-65" d="M 3597 1894 
L 3597 1613 
L 953 1613 
Q 991 1019 1311 708 
Q 1631 397 2203 397 
Q 2534 397 2845 478 
Q 3156 559 3463 722 
L 3463 178 
Q 3153 47 2828 -22 
Q 2503 -91 2169 -91 
Q 1331 -91 842 396 
Q 353 884 353 1716 
Q 353 2575 817 3079 
Q 1281 3584 2069 3584 
Q 2775 3584 3186 3129 
Q 3597 2675 3597 1894 
z
M 3022 2063 
Q 3016 2534 2758 2815 
Q 2500 3097 2075 3097 
Q 1594 3097 1305 2825 
Q 1016 2553 972 2059 
L 3022 2063 
z
" transform="scale(0.015625)"/>
       <path id="DejaVuSans-76" d="M 191 3500 
L 800 3500 
L 1894 563 
L 2988 3500 
L 3597 3500 
L 2284 0 
L 1503 0 
L 191 3500 
z
" transform="scale(0.015625)"/>
       <path id="DejaVuSans-64" d="M 2906 2969 
L 2906 4863 
L 3481 4863 
L 3481 0 
L 2906 0 
L 2906 525 
Q 2725 213 2448 61 
Q 2172 -91 1784 -91 
Q 1150 -91 751 415 
Q 353 922 353 1747 
Q 353 2572 751 3078 
Q 1150 3584 1784 3584 
Q 2172 3584 2448 3432 
Q 2725 3281 2906 2969 
z
M 947 1747 
Q 947 1113 1208 752 
Q 1469 391 1925 391 
Q 2381 391 2643 752 
Q 2906 1113 2906 1747 
Q 2906 2381 2643 2742 
Q 2381 3103 1925 3103 
Q 1469 3103 1208 2742 
Q 947 2381 947 1747 
z
" transform="scale(0.015625)"/>
      </defs>
      <use xlink:href="#DejaVuSans-56"/>
      <use xlink:href="#DejaVuSans-61" transform="translate(60.658203 0)"/>
      <use xlink:href="#DejaVuSans-6c" transform="translate(121.9375 0)"/>
      <use xlink:href="#DejaVuSans-6f" transform="translate(149.720703 0)"/>
      <use xlink:href="#DejaVuSans-72" transform="translate(210.902344 0)"/>
      <use xlink:href="#DejaVuSans-20" transform="translate(252.015625 0)"/>
      <use xlink:href="#DejaVuSans-6f" transform="translate(283.802734 0)"/>
      <use xlink:href="#DejaVuSans-62" transform="translate(344.984375 0)"/>
      <use xlink:href="#DejaVuSans-73" transform="translate(408.460938 0)"/>
      <use xlink:href="#DejaVuSans-65" transform="translate(460.560547 0)"/>
      <use xlink:href="#DejaVuSans-72" transform="translate(522.083984 0)"/>
      <use xlink:href="#DejaVuSans-76" transform="translate(563.197266 0)"/>
      <use xlink:href="#DejaVuSans-61" transform="translate(622.376953 0)"/>
      <use xlink:href="#DejaVuSans-64" transform="translate(683.65625 0)"/>
      <use xlink:href="#DejaVuSans-6f" transform="translate(747.132812 0)"/>
     </g>
    </g>
   </g>
   <g id="matplotlib.axis_2">
    <g id="ytick_1">
     <g id="line2d_10">
      <defs>
       <path id="m637aa06e72" d="M 0 0 
L -3.5 0 
" style="stroke: #000000; stroke-width: 0.8"/>
      </defs>
      <g>
       <use xlink:href="#m637aa06e72" x="178.579688" y="49.371006" style="stroke: #000000; stroke-width: 0.8"/>
      </g>
     </g>
     <g id="text_11">
      <!-- normal_tokens_labeled_positive -->
      <g transform="translate(12.460938 53.170225) scale(0.1 -0.1)">
       <defs>
        <path id="DejaVuSans-6e" d="M 3513 2113 
L 3513 0 
L 2938 0 
L 2938 2094 
Q 2938 2591 2744 2837 
Q 2550 3084 2163 3084 
Q 1697 3084 1428 2787 
Q 1159 2491 1159 1978 
L 1159 0 
L 581 0 
L 581 3500 
L 1159 3500 
L 1159 2956 
Q 1366 3272 1645 3428 
Q 1925 3584 2291 3584 
Q 2894 3584 3203 3211 
Q 3513 2838 3513 2113 
z
" transform="scale(0.015625)"/>
        <path id="DejaVuSans-6d" d="M 3328 2828 
Q 3544 3216 3844 3400 
Q 4144 3584 4550 3584 
Q 5097 3584 5394 3201 
Q 5691 2819 5691 2113 
L 5691 0 
L 5113 0 
L 5113 2094 
Q 5113 2597 4934 2840 
Q 4756 3084 4391 3084 
Q 3944 3084 3684 2787 
Q 3425 2491 3425 1978 
L 3425 0 
L 2847 0 
L 2847 2094 
Q 2847 2600 2669 2842 
Q 2491 3084 2119 3084 
Q 1678 3084 1418 2786 
Q 1159 2488 1159 1978 
L 1159 0 
L 581 0 
L 581 3500 
L 1159 3500 
L 1159 2956 
Q 1356 3278 1631 3431 
Q 1906 3584 2284 3584 
Q 2666 3584 2933 3390 
Q 3200 3197 3328 2828 
z
" transform="scale(0.015625)"/>
        <path id="DejaVuSans-5f" d="M 3263 -1063 
L 3263 -1509 
L -63 -1509 
L -63 -1063 
L 3263 -1063 
z
" transform="scale(0.015625)"/>
        <path id="DejaVuSans-74" d="M 1172 4494 
L 1172 3500 
L 2356 3500 
L 2356 3053 
L 1172 3053 
L 1172 1153 
Q 1172 725 1289 603 
Q 1406 481 1766 481 
L 2356 481 
L 2356 0 
L 1766 0 
Q 1100 0 847 248 
Q 594 497 594 1153 
L 594 3053 
L 172 3053 
L 172 3500 
L 594 3500 
L 594 4494 
L 1172 4494 
z
" transform="scale(0.015625)"/>
        <path id="DejaVuSans-6b" d="M 581 4863 
L 1159 4863 
L 1159 1991 
L 2875 3500 
L 3609 3500 
L 1753 1863 
L 3688 0 
L 2938 0 
L 1159 1709 
L 1159 0 
L 581 0 
L 581 4863 
z
" transform="scale(0.015625)"/>
        <path id="DejaVuSans-70" d="M 1159 525 
L 1159 -1331 
L 581 -1331 
L 581 3500 
L 1159 3500 
L 1159 2969 
Q 1341 3281 1617 3432 
Q 1894 3584 2278 3584 
Q 2916 3584 3314 3078 
Q 3713 2572 3713 1747 
Q 3713 922 3314 415 
Q 2916 -91 2278 -91 
Q 1894 -91 1617 61 
Q 1341 213 1159 525 
z
M 3116 1747 
Q 3116 2381 2855 2742 
Q 2594 3103 2138 3103 
Q 1681 3103 1420 2742 
Q 1159 2381 1159 1747 
Q 1159 1113 1420 752 
Q 1681 391 2138 391 
Q 2594 391 2855 752 
Q 3116 1113 3116 1747 
z
" transform="scale(0.015625)"/>
        <path id="DejaVuSans-69" d="M 603 3500 
L 1178 3500 
L 1178 0 
L 603 0 
L 603 3500 
z
M 603 4863 
L 1178 4863 
L 1178 4134 
L 603 4134 
L 603 4863 
z
" transform="scale(0.015625)"/>
       </defs>
       <use xlink:href="#DejaVuSans-6e"/>
       <use xlink:href="#DejaVuSans-6f" transform="translate(63.378906 0)"/>
       <use xlink:href="#DejaVuSans-72" transform="translate(124.560547 0)"/>
       <use xlink:href="#DejaVuSans-6d" transform="translate(163.923828 0)"/>
       <use xlink:href="#DejaVuSans-61" transform="translate(261.335938 0)"/>
       <use xlink:href="#DejaVuSans-6c" transform="translate(322.615234 0)"/>
       <use xlink:href="#DejaVuSans-5f" transform="translate(350.398438 0)"/>
       <use xlink:href="#DejaVuSans-74" transform="translate(400.398438 0)"/>
       <use xlink:href="#DejaVuSans-6f" transform="translate(439.607422 0)"/>
       <use xlink:href="#DejaVuSans-6b" transform="translate(500.789062 0)"/>
       <use xlink:href="#DejaVuSans-65" transform="translate(555.074219 0)"/>
       <use xlink:href="#DejaVuSans-6e" transform="translate(616.597656 0)"/>
       <use xlink:href="#DejaVuSans-73" transform="translate(679.976562 0)"/>
       <use xlink:href="#DejaVuSans-5f" transform="translate(732.076172 0)"/>
       <use xlink:href="#DejaVuSans-6c" transform="translate(782.076172 0)"/>
       <use xlink:href="#DejaVuSans-61" transform="translate(809.859375 0)"/>
       <use xlink:href="#DejaVuSans-62" transform="translate(871.138672 0)"/>
       <use xlink:href="#DejaVuSans-65" transform="translate(934.615234 0)"/>
       <use xlink:href="#DejaVuSans-6c" transform="translate(996.138672 0)"/>
       <use xlink:href="#DejaVuSans-65" transform="translate(1023.921875 0)"/>
       <use xlink:href="#DejaVuSans-64" transform="translate(1085.445312 0)"/>
       <use xlink:href="#DejaVuSans-5f" transform="translate(1148.921875 0)"/>
       <use xlink:href="#DejaVuSans-70" transform="translate(1198.921875 0)"/>
       <use xlink:href="#DejaVuSans-6f" transform="translate(1262.398438 0)"/>
       <use xlink:href="#DejaVuSans-73" transform="translate(1323.580078 0)"/>
       <use xlink:href="#DejaVuSans-69" transform="translate(1375.679688 0)"/>
       <use xlink:href="#DejaVuSans-74" transform="translate(1403.462891 0)"/>
       <use xlink:href="#DejaVuSans-69" transform="translate(1442.671875 0)"/>
       <use xlink:href="#DejaVuSans-76" transform="translate(1470.455078 0)"/>
       <use xlink:href="#DejaVuSans-65" transform="translate(1529.634766 0)"/>
      </g>
     </g>
    </g>
    <g id="ytick_2">
     <g id="line2d_11">
      <g>
       <use xlink:href="#m637aa06e72" x="178.579688" y="76.212301" style="stroke: #000000; stroke-width: 0.8"/>
      </g>
     </g>
     <g id="text_12">
      <!-- positive_no_indexing -->
      <g transform="translate(67.073437 80.011519) scale(0.1 -0.1)">
       <defs>
        <path id="DejaVuSans-78" d="M 3513 3500 
L 2247 1797 
L 3578 0 
L 2900 0 
L 1881 1375 
L 863 0 
L 184 0 
L 1544 1831 
L 300 3500 
L 978 3500 
L 1906 2253 
L 2834 3500 
L 3513 3500 
z
" transform="scale(0.015625)"/>
        <path id="DejaVuSans-67" d="M 2906 1791 
Q 2906 2416 2648 2759 
Q 2391 3103 1925 3103 
Q 1463 3103 1205 2759 
Q 947 2416 947 1791 
Q 947 1169 1205 825 
Q 1463 481 1925 481 
Q 2391 481 2648 825 
Q 2906 1169 2906 1791 
z
M 3481 434 
Q 3481 -459 3084 -895 
Q 2688 -1331 1869 -1331 
Q 1566 -1331 1297 -1286 
Q 1028 -1241 775 -1147 
L 775 -588 
Q 1028 -725 1275 -790 
Q 1522 -856 1778 -856 
Q 2344 -856 2625 -561 
Q 2906 -266 2906 331 
L 2906 616 
Q 2728 306 2450 153 
Q 2172 0 1784 0 
Q 1141 0 747 490 
Q 353 981 353 1791 
Q 353 2603 747 3093 
Q 1141 3584 1784 3584 
Q 2172 3584 2450 3431 
Q 2728 3278 2906 2969 
L 2906 3500 
L 3481 3500 
L 3481 434 
z
" transform="scale(0.015625)"/>
       </defs>
       <use xlink:href="#DejaVuSans-70"/>
       <use xlink:href="#DejaVuSans-6f" transform="translate(63.476562 0)"/>
       <use xlink:href="#DejaVuSans-73" transform="translate(124.658203 0)"/>
       <use xlink:href="#DejaVuSans-69" transform="translate(176.757812 0)"/>
       <use xlink:href="#DejaVuSans-74" transform="translate(204.541016 0)"/>
       <use xlink:href="#DejaVuSans-69" transform="translate(243.75 0)"/>
       <use xlink:href="#DejaVuSans-76" transform="translate(271.533203 0)"/>
       <use xlink:href="#DejaVuSans-65" transform="translate(330.712891 0)"/>
       <use xlink:href="#DejaVuSans-5f" transform="translate(392.236328 0)"/>
       <use xlink:href="#DejaVuSans-6e" transform="translate(442.236328 0)"/>
       <use xlink:href="#DejaVuSans-6f" transform="translate(505.615234 0)"/>
       <use xlink:href="#DejaVuSans-5f" transform="translate(566.796875 0)"/>
       <use xlink:href="#DejaVuSans-69" transform="translate(616.796875 0)"/>
       <use xlink:href="#DejaVuSans-6e" transform="translate(644.580078 0)"/>
       <use xlink:href="#DejaVuSans-64" transform="translate(707.958984 0)"/>
       <use xlink:href="#DejaVuSans-65" transform="translate(771.435547 0)"/>
       <use xlink:href="#DejaVuSans-78" transform="translate(831.208984 0)"/>
       <use xlink:href="#DejaVuSans-69" transform="translate(890.388672 0)"/>
       <use xlink:href="#DejaVuSans-6e" transform="translate(918.171875 0)"/>
       <use xlink:href="#DejaVuSans-67" transform="translate(981.550781 0)"/>
      </g>
     </g>
    </g>
    <g id="ytick_3">
     <g id="line2d_12">
      <g>
       <use xlink:href="#m637aa06e72" x="178.579688" y="103.053595" style="stroke: #000000; stroke-width: 0.8"/>
      </g>
     </g>
     <g id="text_13">
      <!-- positive_hypothetical -->
      <g transform="translate(65.117188 106.852814) scale(0.1 -0.1)">
       <defs>
        <path id="DejaVuSans-68" d="M 3513 2113 
L 3513 0 
L 2938 0 
L 2938 2094 
Q 2938 2591 2744 2837 
Q 2550 3084 2163 3084 
Q 1697 3084 1428 2787 
Q 1159 2491 1159 1978 
L 1159 0 
L 581 0 
L 581 4863 
L 1159 4863 
L 1159 2956 
Q 1366 3272 1645 3428 
Q 1925 3584 2291 3584 
Q 2894 3584 3203 3211 
Q 3513 2838 3513 2113 
z
" transform="scale(0.015625)"/>
        <path id="DejaVuSans-79" d="M 2059 -325 
Q 1816 -950 1584 -1140 
Q 1353 -1331 966 -1331 
L 506 -1331 
L 506 -850 
L 844 -850 
Q 1081 -850 1212 -737 
Q 1344 -625 1503 -206 
L 1606 56 
L 191 3500 
L 800 3500 
L 1894 763 
L 2988 3500 
L 3597 3500 
L 2059 -325 
z
" transform="scale(0.015625)"/>
        <path id="DejaVuSans-63" d="M 3122 3366 
L 3122 2828 
Q 2878 2963 2633 3030 
Q 2388 3097 2138 3097 
Q 1578 3097 1268 2742 
Q 959 2388 959 1747 
Q 959 1106 1268 751 
Q 1578 397 2138 397 
Q 2388 397 2633 464 
Q 2878 531 3122 666 
L 3122 134 
Q 2881 22 2623 -34 
Q 2366 -91 2075 -91 
Q 1284 -91 818 406 
Q 353 903 353 1747 
Q 353 2603 823 3093 
Q 1294 3584 2113 3584 
Q 2378 3584 2631 3529 
Q 2884 3475 3122 3366 
z
" transform="scale(0.015625)"/>
       </defs>
       <use xlink:href="#DejaVuSans-70"/>
       <use xlink:href="#DejaVuSans-6f" transform="translate(63.476562 0)"/>
       <use xlink:href="#DejaVuSans-73" transform="translate(124.658203 0)"/>
       <use xlink:href="#DejaVuSans-69" transform="translate(176.757812 0)"/>
       <use xlink:href="#DejaVuSans-74" transform="translate(204.541016 0)"/>
       <use xlink:href="#DejaVuSans-69" transform="translate(243.75 0)"/>
       <use xlink:href="#DejaVuSans-76" transform="translate(271.533203 0)"/>
       <use xlink:href="#DejaVuSans-65" transform="translate(330.712891 0)"/>
       <use xlink:href="#DejaVuSans-5f" transform="translate(392.236328 0)"/>
       <use xlink:href="#DejaVuSans-68" transform="translate(442.236328 0)"/>
       <use xlink:href="#DejaVuSans-79" transform="translate(505.615234 0)"/>
       <use xlink:href="#DejaVuSans-70" transform="translate(564.794922 0)"/>
       <use xlink:href="#DejaVuSans-6f" transform="translate(628.271484 0)"/>
       <use xlink:href="#DejaVuSans-74" transform="translate(689.453125 0)"/>
       <use xlink:href="#DejaVuSans-68" transform="translate(728.662109 0)"/>
       <use xlink:href="#DejaVuSans-65" transform="translate(792.041016 0)"/>
       <use xlink:href="#DejaVuSans-74" transform="translate(853.564453 0)"/>
       <use xlink:href="#DejaVuSans-69" transform="translate(892.773438 0)"/>
       <use xlink:href="#DejaVuSans-63" transform="translate(920.556641 0)"/>
       <use xlink:href="#DejaVuSans-61" transform="translate(975.537109 0)"/>
       <use xlink:href="#DejaVuSans-6c" transform="translate(1036.816406 0)"/>
      </g>
     </g>
    </g>
    <g id="ytick_4">
     <g id="line2d_13">
      <g>
       <use xlink:href="#m637aa06e72" x="178.579688" y="129.894889" style="stroke: #000000; stroke-width: 0.8"/>
      </g>
     </g>
     <g id="text_14">
      <!-- positive_resolved -->
      <g transform="translate(84.789062 133.694108) scale(0.1 -0.1)">
       <use xlink:href="#DejaVuSans-70"/>
       <use xlink:href="#DejaVuSans-6f" transform="translate(63.476562 0)"/>
       <use xlink:href="#DejaVuSans-73" transform="translate(124.658203 0)"/>
       <use xlink:href="#DejaVuSans-69" transform="translate(176.757812 0)"/>
       <use xlink:href="#DejaVuSans-74" transform="translate(204.541016 0)"/>
       <use xlink:href="#DejaVuSans-69" transform="translate(243.75 0)"/>
       <use xlink:href="#DejaVuSans-76" transform="translate(271.533203 0)"/>
       <use xlink:href="#DejaVuSans-65" transform="translate(330.712891 0)"/>
       <use xlink:href="#DejaVuSans-5f" transform="translate(392.236328 0)"/>
       <use xlink:href="#DejaVuSans-72" transform="translate(442.236328 0)"/>
       <use xlink:href="#DejaVuSans-65" transform="translate(481.099609 0)"/>
       <use xlink:href="#DejaVuSans-73" transform="translate(542.623047 0)"/>
       <use xlink:href="#DejaVuSans-6f" transform="translate(594.722656 0)"/>
       <use xlink:href="#DejaVuSans-6c" transform="translate(655.904297 0)"/>
       <use xlink:href="#DejaVuSans-76" transform="translate(683.6875 0)"/>
       <use xlink:href="#DejaVuSans-65" transform="translate(742.867188 0)"/>
       <use xlink:href="#DejaVuSans-64" transform="translate(804.390625 0)"/>
      </g>
     </g>
    </g>
    <g id="ytick_5">
     <g id="line2d_14">
      <g>
       <use xlink:href="#m637aa06e72" x="178.579688" y="156.736184" style="stroke: #000000; stroke-width: 0.8"/>
      </g>
     </g>
     <g id="text_15">
      <!-- positive_benign_nodular_context -->
      <g transform="translate(7.2 160.535402) scale(0.1 -0.1)">
       <defs>
        <path id="DejaVuSans-75" d="M 544 1381 
L 544 3500 
L 1119 3500 
L 1119 1403 
Q 1119 906 1312 657 
Q 1506 409 1894 409 
Q 2359 409 2629 706 
Q 2900 1003 2900 1516 
L 2900 3500 
L 3475 3500 
L 3475 0 
L 2900 0 
L 2900 538 
Q 2691 219 2414 64 
Q 2138 -91 1772 -91 
Q 1169 -91 856 284 
Q 544 659 544 1381 
z
M 1991 3584 
L 1991 3584 
z
" transform="scale(0.015625)"/>
       </defs>
       <use xlink:href="#DejaVuSans-70"/>
       <use xlink:href="#DejaVuSans-6f" transform="translate(63.476562 0)"/>
       <use xlink:href="#DejaVuSans-73" transform="translate(124.658203 0)"/>
       <use xlink:href="#DejaVuSans-69" transform="translate(176.757812 0)"/>
       <use xlink:href="#DejaVuSans-74" transform="translate(204.541016 0)"/>
       <use xlink:href="#DejaVuSans-69" transform="translate(243.75 0)"/>
       <use xlink:href="#DejaVuSans-76" transform="translate(271.533203 0)"/>
       <use xlink:href="#DejaVuSans-65" transform="translate(330.712891 0)"/>
       <use xlink:href="#DejaVuSans-5f" transform="translate(392.236328 0)"/>
       <use xlink:href="#DejaVuSans-62" transform="translate(442.236328 0)"/>
       <use xlink:href="#DejaVuSans-65" transform="translate(505.712891 0)"/>
       <use xlink:href="#DejaVuSans-6e" transform="translate(567.236328 0)"/>
       <use xlink:href="#DejaVuSans-69" transform="translate(630.615234 0)"/>
       <use xlink:href="#DejaVuSans-67" transform="translate(658.398438 0)"/>
       <use xlink:href="#DejaVuSans-6e" transform="translate(721.875 0)"/>
       <use xlink:href="#DejaVuSans-5f" transform="translate(785.253906 0)"/>
       <use xlink:href="#DejaVuSans-6e" transform="translate(835.253906 0)"/>
       <use xlink:href="#DejaVuSans-6f" transform="translate(898.632812 0)"/>
       <use xlink:href="#DejaVuSans-64" transform="translate(959.814453 0)"/>
       <use xlink:href="#DejaVuSans-75" transform="translate(1023.291016 0)"/>
       <use xlink:href="#DejaVuSans-6c" transform="translate(1086.669922 0)"/>
       <use xlink:href="#DejaVuSans-61" transform="translate(1114.453125 0)"/>
       <use xlink:href="#DejaVuSans-72" transform="translate(1175.732422 0)"/>
       <use xlink:href="#DejaVuSans-5f" transform="translate(1216.845703 0)"/>
       <use xlink:href="#DejaVuSans-63" transform="translate(1266.845703 0)"/>
       <use xlink:href="#DejaVuSans-6f" transform="translate(1321.826172 0)"/>
       <use xlink:href="#DejaVuSans-6e" transform="translate(1383.007812 0)"/>
       <use xlink:href="#DejaVuSans-74" transform="translate(1446.386719 0)"/>
       <use xlink:href="#DejaVuSans-65" transform="translate(1485.595703 0)"/>
       <use xlink:href="#DejaVuSans-78" transform="translate(1545.369141 0)"/>
       <use xlink:href="#DejaVuSans-74" transform="translate(1604.548828 0)"/>
      </g>
     </g>
    </g>
    <g id="ytick_6">
     <g id="line2d_15">
      <g>
       <use xlink:href="#m637aa06e72" x="178.579688" y="183.577478" style="stroke: #000000; stroke-width: 0.8"/>
      </g>
     </g>
     <g id="text_16">
      <!-- row_prevalence -->
      <g transform="translate(93.042187 187.376697) scale(0.1 -0.1)">
       <defs>
        <path id="DejaVuSans-77" d="M 269 3500 
L 844 3500 
L 1563 769 
L 2278 3500 
L 2956 3500 
L 3675 769 
L 4391 3500 
L 4966 3500 
L 4050 0 
L 3372 0 
L 2619 2869 
L 1863 0 
L 1184 0 
L 269 3500 
z
" transform="scale(0.015625)"/>
       </defs>
       <use xlink:href="#DejaVuSans-72"/>
       <use xlink:href="#DejaVuSans-6f" transform="translate(38.863281 0)"/>
       <use xlink:href="#DejaVuSans-77" transform="translate(100.044922 0)"/>
       <use xlink:href="#DejaVuSans-5f" transform="translate(181.832031 0)"/>
       <use xlink:href="#DejaVuSans-70" transform="translate(231.832031 0)"/>
       <use xlink:href="#DejaVuSans-72" transform="translate(295.308594 0)"/>
       <use xlink:href="#DejaVuSans-65" transform="translate(334.171875 0)"/>
       <use xlink:href="#DejaVuSans-76" transform="translate(395.695312 0)"/>
       <use xlink:href="#DejaVuSans-61" transform="translate(454.875 0)"/>
       <use xlink:href="#DejaVuSans-6c" transform="translate(516.154297 0)"/>
       <use xlink:href="#DejaVuSans-65" transform="translate(543.9375 0)"/>
       <use xlink:href="#DejaVuSans-6e" transform="translate(605.460938 0)"/>
       <use xlink:href="#DejaVuSans-63" transform="translate(668.839844 0)"/>
       <use xlink:href="#DejaVuSans-65" transform="translate(723.820312 0)"/>
      </g>
     </g>
    </g>
    <g id="ytick_7">
     <g id="line2d_16">
      <g>
       <use xlink:href="#m637aa06e72" x="178.579688" y="210.418772" style="stroke: #000000; stroke-width: 0.8"/>
      </g>
     </g>
     <g id="text_17">
      <!-- uid_prevalence -->
      <g transform="translate(95.760937 214.217991) scale(0.1 -0.1)">
       <use xlink:href="#DejaVuSans-75"/>
       <use xlink:href="#DejaVuSans-69" transform="translate(63.378906 0)"/>
       <use xlink:href="#DejaVuSans-64" transform="translate(91.162109 0)"/>
       <use xlink:href="#DejaVuSans-5f" transform="translate(154.638672 0)"/>
       <use xlink:href="#DejaVuSans-70" transform="translate(204.638672 0)"/>
       <use xlink:href="#DejaVuSans-72" transform="translate(268.115234 0)"/>
       <use xlink:href="#DejaVuSans-65" transform="translate(306.978516 0)"/>
       <use xlink:href="#DejaVuSans-76" transform="translate(368.501953 0)"/>
       <use xlink:href="#DejaVuSans-61" transform="translate(427.681641 0)"/>
       <use xlink:href="#DejaVuSans-6c" transform="translate(488.960938 0)"/>
       <use xlink:href="#DejaVuSans-65" transform="translate(516.744141 0)"/>
       <use xlink:href="#DejaVuSans-6e" transform="translate(578.267578 0)"/>
       <use xlink:href="#DejaVuSans-63" transform="translate(641.646484 0)"/>
       <use xlink:href="#DejaVuSans-65" transform="translate(696.626953 0)"/>
      </g>
     </g>
    </g>
    <g id="ytick_8">
     <g id="line2d_17">
      <g>
       <use xlink:href="#m637aa06e72" x="178.579688" y="237.260066" style="stroke: #000000; stroke-width: 0.8"/>
      </g>
     </g>
     <g id="text_18">
      <!-- negative_rows -->
      <g transform="translate(99.45 241.059285) scale(0.1 -0.1)">
       <use xlink:href="#DejaVuSans-6e"/>
       <use xlink:href="#DejaVuSans-65" transform="translate(63.378906 0)"/>
       <use xlink:href="#DejaVuSans-67" transform="translate(124.902344 0)"/>
       <use xlink:href="#DejaVuSans-61" transform="translate(188.378906 0)"/>
       <use xlink:href="#DejaVuSans-74" transform="translate(249.658203 0)"/>
       <use xlink:href="#DejaVuSans-69" transform="translate(288.867188 0)"/>
       <use xlink:href="#DejaVuSans-76" transform="translate(316.650391 0)"/>
       <use xlink:href="#DejaVuSans-65" transform="translate(375.830078 0)"/>
       <use xlink:href="#DejaVuSans-5f" transform="translate(437.353516 0)"/>
       <use xlink:href="#DejaVuSans-72" transform="translate(487.353516 0)"/>
       <use xlink:href="#DejaVuSans-6f" transform="translate(526.216797 0)"/>
       <use xlink:href="#DejaVuSans-77" transform="translate(587.398438 0)"/>
       <use xlink:href="#DejaVuSans-73" transform="translate(669.185547 0)"/>
      </g>
     </g>
    </g>
    <g id="ytick_9">
     <g id="line2d_18">
      <g>
       <use xlink:href="#m637aa06e72" x="178.579688" y="264.101361" style="stroke: #000000; stroke-width: 0.8"/>
      </g>
     </g>
     <g id="text_19">
      <!-- negative_uids -->
      <g transform="translate(102.16875 267.900579) scale(0.1 -0.1)">
       <use xlink:href="#DejaVuSans-6e"/>
       <use xlink:href="#DejaVuSans-65" transform="translate(63.378906 0)"/>
       <use xlink:href="#DejaVuSans-67" transform="translate(124.902344 0)"/>
       <use xlink:href="#DejaVuSans-61" transform="translate(188.378906 0)"/>
       <use xlink:href="#DejaVuSans-74" transform="translate(249.658203 0)"/>
       <use xlink:href="#DejaVuSans-69" transform="translate(288.867188 0)"/>
       <use xlink:href="#DejaVuSans-76" transform="translate(316.650391 0)"/>
       <use xlink:href="#DejaVuSans-65" transform="translate(375.830078 0)"/>
       <use xlink:href="#DejaVuSans-5f" transform="translate(437.353516 0)"/>
       <use xlink:href="#DejaVuSans-75" transform="translate(487.353516 0)"/>
       <use xlink:href="#DejaVuSans-69" transform="translate(550.732422 0)"/>
       <use xlink:href="#DejaVuSans-64" transform="translate(578.515625 0)"/>
       <use xlink:href="#DejaVuSans-73" transform="translate(641.992188 0)"/>
      </g>
     </g>
    </g>
    <g id="ytick_10">
     <g id="line2d_19">
      <g>
       <use xlink:href="#m637aa06e72" x="178.579688" y="290.942655" style="stroke: #000000; stroke-width: 0.8"/>
      </g>
     </g>
     <g id="text_20">
      <!-- positive_rows -->
      <g transform="translate(103.9625 294.741874) scale(0.1 -0.1)">
       <use xlink:href="#DejaVuSans-70"/>
       <use xlink:href="#DejaVuSans-6f" transform="translate(63.476562 0)"/>
       <use xlink:href="#DejaVuSans-73" transform="translate(124.658203 0)"/>
       <use xlink:href="#DejaVuSans-69" transform="translate(176.757812 0)"/>
       <use xlink:href="#DejaVuSans-74" transform="translate(204.541016 0)"/>
       <use xlink:href="#DejaVuSans-69" transform="translate(243.75 0)"/>
       <use xlink:href="#DejaVuSans-76" transform="translate(271.533203 0)"/>
       <use xlink:href="#DejaVuSans-65" transform="translate(330.712891 0)"/>
       <use xlink:href="#DejaVuSans-5f" transform="translate(392.236328 0)"/>
       <use xlink:href="#DejaVuSans-72" transform="translate(442.236328 0)"/>
       <use xlink:href="#DejaVuSans-6f" transform="translate(481.099609 0)"/>
       <use xlink:href="#DejaVuSans-77" transform="translate(542.28125 0)"/>
       <use xlink:href="#DejaVuSans-73" transform="translate(624.068359 0)"/>
      </g>
     </g>
    </g>
    <g id="ytick_11">
     <g id="line2d_20">
      <g>
       <use xlink:href="#m637aa06e72" x="178.579688" y="317.783949" style="stroke: #000000; stroke-width: 0.8"/>
      </g>
     </g>
     <g id="text_21">
      <!-- positive_uids -->
      <g transform="translate(106.68125 321.583168) scale(0.1 -0.1)">
       <use xlink:href="#DejaVuSans-70"/>
       <use xlink:href="#DejaVuSans-6f" transform="translate(63.476562 0)"/>
       <use xlink:href="#DejaVuSans-73" transform="translate(124.658203 0)"/>
       <use xlink:href="#DejaVuSans-69" transform="translate(176.757812 0)"/>
       <use xlink:href="#DejaVuSans-74" transform="translate(204.541016 0)"/>
       <use xlink:href="#DejaVuSans-69" transform="translate(243.75 0)"/>
       <use xlink:href="#DejaVuSans-76" transform="translate(271.533203 0)"/>
       <use xlink:href="#DejaVuSans-65" transform="translate(330.712891 0)"/>
       <use xlink:href="#DejaVuSans-5f" transform="translate(392.236328 0)"/>
       <use xlink:href="#DejaVuSans-75" transform="translate(442.236328 0)"/>
       <use xlink:href="#DejaVuSans-69" transform="translate(505.615234 0)"/>
       <use xlink:href="#DejaVuSans-64" transform="translate(533.398438 0)"/>
       <use xlink:href="#DejaVuSans-73" transform="translate(596.875 0)"/>
      </g>
     </g>
    </g>
    <g id="ytick_12">
     <g id="line2d_21">
      <g>
       <use xlink:href="#m637aa06e72" x="178.579688" y="344.625244" style="stroke: #000000; stroke-width: 0.8"/>
      </g>
     </g>
     <g id="text_22">
      <!-- edge_cases_excluded_rows -->
      <g transform="translate(34.8 348.424462) scale(0.1 -0.1)">
       <use xlink:href="#DejaVuSans-65"/>
       <use xlink:href="#DejaVuSans-64" transform="translate(61.523438 0)"/>
       <use xlink:href="#DejaVuSans-67" transform="translate(125 0)"/>
       <use xlink:href="#DejaVuSans-65" transform="translate(188.476562 0)"/>
       <use xlink:href="#DejaVuSans-5f" transform="translate(250 0)"/>
       <use xlink:href="#DejaVuSans-63" transform="translate(300 0)"/>
       <use xlink:href="#DejaVuSans-61" transform="translate(354.980469 0)"/>
       <use xlink:href="#DejaVuSans-73" transform="translate(416.259766 0)"/>
       <use xlink:href="#DejaVuSans-65" transform="translate(468.359375 0)"/>
       <use xlink:href="#DejaVuSans-73" transform="translate(529.882812 0)"/>
       <use xlink:href="#DejaVuSans-5f" transform="translate(581.982422 0)"/>
       <use xlink:href="#DejaVuSans-65" transform="translate(631.982422 0)"/>
       <use xlink:href="#DejaVuSans-78" transform="translate(691.755859 0)"/>
       <use xlink:href="#DejaVuSans-63" transform="translate(749.185547 0)"/>
       <use xlink:href="#DejaVuSans-6c" transform="translate(804.166016 0)"/>
       <use xlink:href="#DejaVuSans-75" transform="translate(831.949219 0)"/>
       <use xlink:href="#DejaVuSans-64" transform="translate(895.328125 0)"/>
       <use xlink:href="#DejaVuSans-65" transform="translate(958.804688 0)"/>
       <use xlink:href="#DejaVuSans-64" transform="translate(1020.328125 0)"/>
       <use xlink:href="#DejaVuSans-5f" transform="translate(1083.804688 0)"/>
       <use xlink:href="#DejaVuSans-72" transform="translate(1133.804688 0)"/>
       <use xlink:href="#DejaVuSans-6f" transform="translate(1172.667969 0)"/>
       <use xlink:href="#DejaVuSans-77" transform="translate(1233.849609 0)"/>
       <use xlink:href="#DejaVuSans-73" transform="translate(1315.636719 0)"/>
      </g>
     </g>
    </g>
   </g>
   <g id="patch_15">
    <path d="M 178.579688 371.198125 
L 178.579688 22.798125 
" style="fill: none; stroke: #000000; stroke-width: 0.8; stroke-linejoin: miter; stroke-linecap: square"/>
   </g>
   <g id="patch_16">
    <path d="M 671.90683 371.198125 
L 671.90683 22.798125 
" style="fill: none; stroke: #000000; stroke-width: 0.8; stroke-linejoin: miter; stroke-linecap: square"/>
   </g>
   <g id="patch_17">
    <path d="M 178.579688 371.198125 
L 671.90683 371.198125 
" style="fill: none; stroke: #000000; stroke-width: 0.8; stroke-linejoin: miter; stroke-linecap: square"/>
   </g>
   <g id="patch_18">
    <path d="M 178.579688 22.798125 
L 671.90683 22.798125 
" style="fill: none; stroke: #000000; stroke-width: 0.8; stroke-linejoin: miter; stroke-linecap: square"/>
   </g>
   <g id="text_23">
    <!-- PASS | critical -->
    <g transform="translate(183.278041 51.484756) scale(0.08 -0.08)">
     <defs>
      <path id="DejaVuSans-50" d="M 1259 4147 
L 1259 2394 
L 2053 2394 
Q 2494 2394 2734 2622 
Q 2975 2850 2975 3272 
Q 2975 3691 2734 3919 
Q 2494 4147 2053 4147 
L 1259 4147 
z
M 628 4666 
L 2053 4666 
Q 2838 4666 3239 4311 
Q 3641 3956 3641 3272 
Q 3641 2581 3239 2228 
Q 2838 1875 2053 1875 
L 1259 1875 
L 1259 0 
L 628 0 
L 628 4666 
z
" transform="scale(0.015625)"/>
      <path id="DejaVuSans-41" d="M 2188 4044 
L 1331 1722 
L 3047 1722 
L 2188 4044 
z
M 1831 4666 
L 2547 4666 
L 4325 0 
L 3669 0 
L 3244 1197 
L 1141 1197 
L 716 0 
L 50 0 
L 1831 4666 
z
" transform="scale(0.015625)"/>
      <path id="DejaVuSans-53" d="M 3425 4513 
L 3425 3897 
Q 3066 4069 2747 4153 
Q 2428 4238 2131 4238 
Q 1616 4238 1336 4038 
Q 1056 3838 1056 3469 
Q 1056 3159 1242 3001 
Q 1428 2844 1947 2747 
L 2328 2669 
Q 3034 2534 3370 2195 
Q 3706 1856 3706 1288 
Q 3706 609 3251 259 
Q 2797 -91 1919 -91 
Q 1588 -91 1214 -16 
Q 841 59 441 206 
L 441 856 
Q 825 641 1194 531 
Q 1563 422 1919 422 
Q 2459 422 2753 634 
Q 3047 847 3047 1241 
Q 3047 1584 2836 1778 
Q 2625 1972 2144 2069 
L 1759 2144 
Q 1053 2284 737 2584 
Q 422 2884 422 3419 
Q 422 4038 858 4394 
Q 1294 4750 2059 4750 
Q 2388 4750 2728 4690 
Q 3069 4631 3425 4513 
z
" transform="scale(0.015625)"/>
      <path id="DejaVuSans-7c" d="M 1344 4891 
L 1344 -1509 
L 813 -1509 
L 813 4891 
L 1344 4891 
z
" transform="scale(0.015625)"/>
     </defs>
     <use xlink:href="#DejaVuSans-50"/>
     <use xlink:href="#DejaVuSans-41" transform="translate(53.927734 0)"/>
     <use xlink:href="#DejaVuSans-53" transform="translate(122.335938 0)"/>
     <use xlink:href="#DejaVuSans-53" transform="translate(185.8125 0)"/>
     <use xlink:href="#DejaVuSans-20" transform="translate(249.289062 0)"/>
     <use xlink:href="#DejaVuSans-7c" transform="translate(281.076172 0)"/>
     <use xlink:href="#DejaVuSans-20" transform="translate(314.767578 0)"/>
     <use xlink:href="#DejaVuSans-63" transform="translate(346.554688 0)"/>
     <use xlink:href="#DejaVuSans-72" transform="translate(401.535156 0)"/>
     <use xlink:href="#DejaVuSans-69" transform="translate(442.648438 0)"/>
     <use xlink:href="#DejaVuSans-74" transform="translate(470.431641 0)"/>
     <use xlink:href="#DejaVuSans-69" transform="translate(509.640625 0)"/>
     <use xlink:href="#DejaVuSans-63" transform="translate(537.423828 0)"/>
     <use xlink:href="#DejaVuSans-61" transform="translate(592.404297 0)"/>
     <use xlink:href="#DejaVuSans-6c" transform="translate(653.683594 0)"/>
    </g>
   </g>
   <g id="text_24">
    <!-- PASS | critical -->
    <g transform="translate(183.278041 78.326051) scale(0.08 -0.08)">
     <use xlink:href="#DejaVuSans-50"/>
     <use xlink:href="#DejaVuSans-41" transform="translate(53.927734 0)"/>
     <use xlink:href="#DejaVuSans-53" transform="translate(122.335938 0)"/>
     <use xlink:href="#DejaVuSans-53" transform="translate(185.8125 0)"/>
     <use xlink:href="#DejaVuSans-20" transform="translate(249.289062 0)"/>
     <use xlink:href="#DejaVuSans-7c" transform="translate(281.076172 0)"/>
     <use xlink:href="#DejaVuSans-20" transform="translate(314.767578 0)"/>
     <use xlink:href="#DejaVuSans-63" transform="translate(346.554688 0)"/>
     <use xlink:href="#DejaVuSans-72" transform="translate(401.535156 0)"/>
     <use xlink:href="#DejaVuSans-69" transform="translate(442.648438 0)"/>
     <use xlink:href="#DejaVuSans-74" transform="translate(470.431641 0)"/>
     <use xlink:href="#DejaVuSans-69" transform="translate(509.640625 0)"/>
     <use xlink:href="#DejaVuSans-63" transform="translate(537.423828 0)"/>
     <use xlink:href="#DejaVuSans-61" transform="translate(592.404297 0)"/>
     <use xlink:href="#DejaVuSans-6c" transform="translate(653.683594 0)"/>
    </g>
   </g>
   <g id="text_25">
    <!-- PASS | review -->
    <g transform="translate(183.278041 105.167345) scale(0.08 -0.08)">
     <use xlink:href="#DejaVuSans-50"/>
     <use xlink:href="#DejaVuSans-41" transform="translate(53.927734 0)"/>
     <use xlink:href="#DejaVuSans-53" transform="translate(122.335938 0)"/>
     <use xlink:href="#DejaVuSans-53" transform="translate(185.8125 0)"/>
     <use xlink:href="#DejaVuSans-20" transform="translate(249.289062 0)"/>
     <use xlink:href="#DejaVuSans-7c" transform="translate(281.076172 0)"/>
     <use xlink:href="#DejaVuSans-20" transform="translate(314.767578 0)"/>
     <use xlink:href="#DejaVuSans-72" transform="translate(346.554688 0)"/>
     <use xlink:href="#DejaVuSans-65" transform="translate(385.417969 0)"/>
     <use xlink:href="#DejaVuSans-76" transform="translate(446.941406 0)"/>
     <use xlink:href="#DejaVuSans-69" transform="translate(506.121094 0)"/>
     <use xlink:href="#DejaVuSans-65" transform="translate(533.904297 0)"/>
     <use xlink:href="#DejaVuSans-77" transform="translate(595.427734 0)"/>
    </g>
   </g>
   <g id="text_26">
    <!-- PASS | review -->
    <g transform="translate(183.278041 132.008639) scale(0.08 -0.08)">
     <use xlink:href="#DejaVuSans-50"/>
     <use xlink:href="#DejaVuSans-41" transform="translate(53.927734 0)"/>
     <use xlink:href="#DejaVuSans-53" transform="translate(122.335938 0)"/>
     <use xlink:href="#DejaVuSans-53" transform="translate(185.8125 0)"/>
     <use xlink:href="#DejaVuSans-20" transform="translate(249.289062 0)"/>
     <use xlink:href="#DejaVuSans-7c" transform="translate(281.076172 0)"/>
     <use xlink:href="#DejaVuSans-20" transform="translate(314.767578 0)"/>
     <use xlink:href="#DejaVuSans-72" transform="translate(346.554688 0)"/>
     <use xlink:href="#DejaVuSans-65" transform="translate(385.417969 0)"/>
     <use xlink:href="#DejaVuSans-76" transform="translate(446.941406 0)"/>
     <use xlink:href="#DejaVuSans-69" transform="translate(506.121094 0)"/>
     <use xlink:href="#DejaVuSans-65" transform="translate(533.904297 0)"/>
     <use xlink:href="#DejaVuSans-77" transform="translate(595.427734 0)"/>
    </g>
   </g>
   <g id="text_27">
    <!-- PASS | review -->
    <g transform="translate(183.278041 158.849934) scale(0.08 -0.08)">
     <use xlink:href="#DejaVuSans-50"/>
     <use xlink:href="#DejaVuSans-41" transform="translate(53.927734 0)"/>
     <use xlink:href="#DejaVuSans-53" transform="translate(122.335938 0)"/>
     <use xlink:href="#DejaVuSans-53" transform="translate(185.8125 0)"/>
     <use xlink:href="#DejaVuSans-20" transform="translate(249.289062 0)"/>
     <use xlink:href="#DejaVuSans-7c" transform="translate(281.076172 0)"/>
     <use xlink:href="#DejaVuSans-20" transform="translate(314.767578 0)"/>
     <use xlink:href="#DejaVuSans-72" transform="translate(346.554688 0)"/>
     <use xlink:href="#DejaVuSans-65" transform="translate(385.417969 0)"/>
     <use xlink:href="#DejaVuSans-76" transform="translate(446.941406 0)"/>
     <use xlink:href="#DejaVuSans-69" transform="translate(506.121094 0)"/>
     <use xlink:href="#DejaVuSans-65" transform="translate(533.904297 0)"/>
     <use xlink:href="#DejaVuSans-77" transform="translate(595.427734 0)"/>
    </g>
   </g>
   <g id="text_28">
    <!-- PASS | critical -->
    <g transform="translate(183.358076 185.691228) scale(0.08 -0.08)">
     <use xlink:href="#DejaVuSans-50"/>
     <use xlink:href="#DejaVuSans-41" transform="translate(53.927734 0)"/>
     <use xlink:href="#DejaVuSans-53" transform="translate(122.335938 0)"/>
     <use xlink:href="#DejaVuSans-53" transform="translate(185.8125 0)"/>
     <use xlink:href="#DejaVuSans-20" transform="translate(249.289062 0)"/>
     <use xlink:href="#DejaVuSans-7c" transform="translate(281.076172 0)"/>
     <use xlink:href="#DejaVuSans-20" transform="translate(314.767578 0)"/>
     <use xlink:href="#DejaVuSans-63" transform="translate(346.554688 0)"/>
     <use xlink:href="#DejaVuSans-72" transform="translate(401.535156 0)"/>
     <use xlink:href="#DejaVuSans-69" transform="translate(442.648438 0)"/>
     <use xlink:href="#DejaVuSans-74" transform="translate(470.431641 0)"/>
     <use xlink:href="#DejaVuSans-69" transform="translate(509.640625 0)"/>
     <use xlink:href="#DejaVuSans-63" transform="translate(537.423828 0)"/>
     <use xlink:href="#DejaVuSans-61" transform="translate(592.404297 0)"/>
     <use xlink:href="#DejaVuSans-6c" transform="translate(653.683594 0)"/>
    </g>
   </g>
   <g id="text_29">
    <!-- PASS | critical -->
    <g transform="translate(183.358009 212.532522) scale(0.08 -0.08)">
     <use xlink:href="#DejaVuSans-50"/>
     <use xlink:href="#DejaVuSans-41" transform="translate(53.927734 0)"/>
     <use xlink:href="#DejaVuSans-53" transform="translate(122.335938 0)"/>
     <use xlink:href="#DejaVuSans-53" transform="translate(185.8125 0)"/>
     <use xlink:href="#DejaVuSans-20" transform="translate(249.289062 0)"/>
     <use xlink:href="#DejaVuSans-7c" transform="translate(281.076172 0)"/>
     <use xlink:href="#DejaVuSans-20" transform="translate(314.767578 0)"/>
     <use xlink:href="#DejaVuSans-63" transform="translate(346.554688 0)"/>
     <use xlink:href="#DejaVuSans-72" transform="translate(401.535156 0)"/>
     <use xlink:href="#DejaVuSans-69" transform="translate(442.648438 0)"/>
     <use xlink:href="#DejaVuSans-74" transform="translate(470.431641 0)"/>
     <use xlink:href="#DejaVuSans-69" transform="translate(509.640625 0)"/>
     <use xlink:href="#DejaVuSans-63" transform="translate(537.423828 0)"/>
     <use xlink:href="#DejaVuSans-61" transform="translate(592.404297 0)"/>
     <use xlink:href="#DejaVuSans-6c" transform="translate(653.683594 0)"/>
    </g>
   </g>
   <g id="text_30">
    <!-- PASS | critical -->
    <g transform="translate(653.113415 239.373816) scale(0.08 -0.08)">
     <use xlink:href="#DejaVuSans-50"/>
     <use xlink:href="#DejaVuSans-41" transform="translate(53.927734 0)"/>
     <use xlink:href="#DejaVuSans-53" transform="translate(122.335938 0)"/>
     <use xlink:href="#DejaVuSans-53" transform="translate(185.8125 0)"/>
     <use xlink:href="#DejaVuSans-20" transform="translate(249.289062 0)"/>
     <use xlink:href="#DejaVuSans-7c" transform="translate(281.076172 0)"/>
     <use xlink:href="#DejaVuSans-20" transform="translate(314.767578 0)"/>
     <use xlink:href="#DejaVuSans-63" transform="translate(346.554688 0)"/>
     <use xlink:href="#DejaVuSans-72" transform="translate(401.535156 0)"/>
     <use xlink:href="#DejaVuSans-69" transform="translate(442.648438 0)"/>
     <use xlink:href="#DejaVuSans-74" transform="translate(470.431641 0)"/>
     <use xlink:href="#DejaVuSans-69" transform="translate(509.640625 0)"/>
     <use xlink:href="#DejaVuSans-63" transform="translate(537.423828 0)"/>
     <use xlink:href="#DejaVuSans-61" transform="translate(592.404297 0)"/>
     <use xlink:href="#DejaVuSans-6c" transform="translate(653.683594 0)"/>
    </g>
   </g>
   <g id="text_31">
    <!-- PASS | critical -->
    <g transform="translate(637.35084 266.215111) scale(0.08 -0.08)">
     <use xlink:href="#DejaVuSans-50"/>
     <use xlink:href="#DejaVuSans-41" transform="translate(53.927734 0)"/>
     <use xlink:href="#DejaVuSans-53" transform="translate(122.335938 0)"/>
     <use xlink:href="#DejaVuSans-53" transform="translate(185.8125 0)"/>
     <use xlink:href="#DejaVuSans-20" transform="translate(249.289062 0)"/>
     <use xlink:href="#DejaVuSans-7c" transform="translate(281.076172 0)"/>
     <use xlink:href="#DejaVuSans-20" transform="translate(314.767578 0)"/>
     <use xlink:href="#DejaVuSans-63" transform="translate(346.554688 0)"/>
     <use xlink:href="#DejaVuSans-72" transform="translate(401.535156 0)"/>
     <use xlink:href="#DejaVuSans-69" transform="translate(442.648438 0)"/>
     <use xlink:href="#DejaVuSans-74" transform="translate(470.431641 0)"/>
     <use xlink:href="#DejaVuSans-69" transform="translate(509.640625 0)"/>
     <use xlink:href="#DejaVuSans-63" transform="translate(537.423828 0)"/>
     <use xlink:href="#DejaVuSans-61" transform="translate(592.404297 0)"/>
     <use xlink:href="#DejaVuSans-6c" transform="translate(653.683594 0)"/>
    </g>
   </g>
   <g id="text_32">
    <!-- PASS | critical -->
    <g transform="translate(374.641242 293.056405) scale(0.08 -0.08)">
     <use xlink:href="#DejaVuSans-50"/>
     <use xlink:href="#DejaVuSans-41" transform="translate(53.927734 0)"/>
     <use xlink:href="#DejaVuSans-53" transform="translate(122.335938 0)"/>
     <use xlink:href="#DejaVuSans-53" transform="translate(185.8125 0)"/>
     <use xlink:href="#DejaVuSans-20" transform="translate(249.289062 0)"/>
     <use xlink:href="#DejaVuSans-7c" transform="translate(281.076172 0)"/>
     <use xlink:href="#DejaVuSans-20" transform="translate(314.767578 0)"/>
     <use xlink:href="#DejaVuSans-63" transform="translate(346.554688 0)"/>
     <use xlink:href="#DejaVuSans-72" transform="translate(401.535156 0)"/>
     <use xlink:href="#DejaVuSans-69" transform="translate(442.648438 0)"/>
     <use xlink:href="#DejaVuSans-74" transform="translate(470.431641 0)"/>
     <use xlink:href="#DejaVuSans-69" transform="translate(509.640625 0)"/>
     <use xlink:href="#DejaVuSans-63" transform="translate(537.423828 0)"/>
     <use xlink:href="#DejaVuSans-61" transform="translate(592.404297 0)"/>
     <use xlink:href="#DejaVuSans-6c" transform="translate(653.683594 0)"/>
    </g>
   </g>
   <g id="text_33">
    <!-- PASS | critical -->
    <g transform="translate(368.004368 319.897699) scale(0.08 -0.08)">
     <use xlink:href="#DejaVuSans-50"/>
     <use xlink:href="#DejaVuSans-41" transform="translate(53.927734 0)"/>
     <use xlink:href="#DejaVuSans-53" transform="translate(122.335938 0)"/>
     <use xlink:href="#DejaVuSans-53" transform="translate(185.8125 0)"/>
     <use xlink:href="#DejaVuSans-20" transform="translate(249.289062 0)"/>
     <use xlink:href="#DejaVuSans-7c" transform="translate(281.076172 0)"/>
     <use xlink:href="#DejaVuSans-20" transform="translate(314.767578 0)"/>
     <use xlink:href="#DejaVuSans-63" transform="translate(346.554688 0)"/>
     <use xlink:href="#DejaVuSans-72" transform="translate(401.535156 0)"/>
     <use xlink:href="#DejaVuSans-69" transform="translate(442.648438 0)"/>
     <use xlink:href="#DejaVuSans-74" transform="translate(470.431641 0)"/>
     <use xlink:href="#DejaVuSans-69" transform="translate(509.640625 0)"/>
     <use xlink:href="#DejaVuSans-63" transform="translate(537.423828 0)"/>
     <use xlink:href="#DejaVuSans-61" transform="translate(592.404297 0)"/>
     <use xlink:href="#DejaVuSans-6c" transform="translate(653.683594 0)"/>
    </g>
   </g>
   <g id="text_34">
    <!-- PASS | info -->
    <g transform="translate(276.194278 346.738994) scale(0.08 -0.08)">
     <defs>
      <path id="DejaVuSans-66" d="M 2375 4863 
L 2375 4384 
L 1825 4384 
Q 1516 4384 1395 4259 
Q 1275 4134 1275 3809 
L 1275 3500 
L 2222 3500 
L 2222 3053 
L 1275 3053 
L 1275 0 
L 697 0 
L 697 3053 
L 147 3053 
L 147 3500 
L 697 3500 
L 697 3744 
Q 697 4328 969 4595 
Q 1241 4863 1831 4863 
L 2375 4863 
z
" transform="scale(0.015625)"/>
     </defs>
     <use xlink:href="#DejaVuSans-50"/>
     <use xlink:href="#DejaVuSans-41" transform="translate(53.927734 0)"/>
     <use xlink:href="#DejaVuSans-53" transform="translate(122.335938 0)"/>
     <use xlink:href="#DejaVuSans-53" transform="translate(185.8125 0)"/>
     <use xlink:href="#DejaVuSans-20" transform="translate(249.289062 0)"/>
     <use xlink:href="#DejaVuSans-7c" transform="translate(281.076172 0)"/>
     <use xlink:href="#DejaVuSans-20" transform="translate(314.767578 0)"/>
     <use xlink:href="#DejaVuSans-69" transform="translate(346.554688 0)"/>
     <use xlink:href="#DejaVuSans-6e" transform="translate(374.337891 0)"/>
     <use xlink:href="#DejaVuSans-66" transform="translate(437.716797 0)"/>
     <use xlink:href="#DejaVuSans-6f" transform="translate(472.921875 0)"/>
    </g>
   </g>
   <g id="text_35">
    <!-- Auditoría de etiquetas V6.1 -->
    <g transform="translate(342.989821 16.798125) scale(0.12 -0.12)">
     <defs>
      <path id="DejaVuSans-ed" d="M 1322 5119 
L 1944 5119 
L 926 3944 
L 447 3944 
L 1322 5119 
z
M 603 3500 
L 1178 3500 
L 1178 0 
L 603 0 
L 603 3500 
z
M 891 3584 
L 891 3584 
z
" transform="scale(0.015625)"/>
      <path id="DejaVuSans-71" d="M 947 1747 
Q 947 1113 1208 752 
Q 1469 391 1925 391 
Q 2381 391 2643 752 
Q 2906 1113 2906 1747 
Q 2906 2381 2643 2742 
Q 2381 3103 1925 3103 
Q 1469 3103 1208 2742 
Q 947 2381 947 1747 
z
M 2906 525 
Q 2725 213 2448 61 
Q 2172 -91 1784 -91 
Q 1150 -91 751 415 
Q 353 922 353 1747 
Q 353 2572 751 3078 
Q 1150 3584 1784 3584 
Q 2172 3584 2448 3432 
Q 2725 3281 2906 2969 
L 2906 3500 
L 3481 3500 
L 3481 -1331 
L 2906 -1331 
L 2906 525 
z
" transform="scale(0.015625)"/>
      <path id="DejaVuSans-2e" d="M 684 794 
L 1344 794 
L 1344 0 
L 684 0 
L 684 794 
z
" transform="scale(0.015625)"/>
     </defs>
     <use xlink:href="#DejaVuSans-41"/>
     <use xlink:href="#DejaVuSans-75" transform="translate(68.408203 0)"/>
     <use xlink:href="#DejaVuSans-64" transform="translate(131.787109 0)"/>
     <use xlink:href="#DejaVuSans-69" transform="translate(195.263672 0)"/>
     <use xlink:href="#DejaVuSans-74" transform="translate(223.046875 0)"/>
     <use xlink:href="#DejaVuSans-6f" transform="translate(262.255859 0)"/>
     <use xlink:href="#DejaVuSans-72" transform="translate(323.4375 0)"/>
     <use xlink:href="#DejaVuSans-ed" transform="translate(364.550781 0)"/>
     <use xlink:href="#DejaVuSans-61" transform="translate(392.333984 0)"/>
     <use xlink:href="#DejaVuSans-20" transform="translate(453.613281 0)"/>
     <use xlink:href="#DejaVuSans-64" transform="translate(485.400391 0)"/>
     <use xlink:href="#DejaVuSans-65" transform="translate(548.876953 0)"/>
     <use xlink:href="#DejaVuSans-20" transform="translate(610.400391 0)"/>
     <use xlink:href="#DejaVuSans-65" transform="translate(642.1875 0)"/>
     <use xlink:href="#DejaVuSans-74" transform="translate(703.710938 0)"/>
     <use xlink:href="#DejaVuSans-69" transform="translate(742.919922 0)"/>
     <use xlink:href="#DejaVuSans-71" transform="translate(770.703125 0)"/>
     <use xlink:href="#DejaVuSans-75" transform="translate(834.179688 0)"/>
     <use xlink:href="#DejaVuSans-65" transform="translate(897.558594 0)"/>
     <use xlink:href="#DejaVuSans-74" transform="translate(959.082031 0)"/>
     <use xlink:href="#DejaVuSans-61" transform="translate(998.291016 0)"/>
     <use xlink:href="#DejaVuSans-73" transform="translate(1059.570312 0)"/>
     <use xlink:href="#DejaVuSans-20" transform="translate(1111.669922 0)"/>
     <use xlink:href="#DejaVuSans-56" transform="translate(1143.457031 0)"/>
     <use xlink:href="#DejaVuSans-36" transform="translate(1211.865234 0)"/>
     <use xlink:href="#DejaVuSans-2e" transform="translate(1275.488281 0)"/>
     <use xlink:href="#DejaVuSans-31" transform="translate(1307.275391 0)"/>
    </g>
   </g>
  </g>
 </g>
 <defs>
  <clipPath id="pa0b861355f">
   <rect x="178.579688" y="22.798125" width="493.327143" height="348.4"/>
  </clipPath>
 </defs>
</svg>
