<?xml version="1.0" encoding="utf-8" standalone="no"?>
<!DOCTYPE svg PUBLIC "-//W3C//DTD SVG 1.1//EN"
  "http://www.w3.org/Graphics/SVG/1.1/DTD/svg11.dtd">
<svg xmlns:xlink="http://www.w3.org/1999/xlink" width="1144.8pt" height="339.0375pt" viewBox="0 0 1144.8 339.0375" xmlns="http://www.w3.org/2000/svg" version="1.1">
 <metadata>
  <rdf:RDF xmlns:dc="http://purl.org/dc/elements/1.1/" xmlns:cc="http://creativecommons.org/ns#" xmlns:rdf="http://www.w3.org/1999/02/22-rdf-syntax-ns#">
   <cc:Work>
    <dc:type rdf:resource="http://purl.org/dc/dcmitype/StillImage"/>
    <dc:date>2026-05-17T23:24:36.566576</dc:date>
    <dc:format>image/svg+xml</dc:format>
    <dc:creator>
     <cc:Agent>
      <dc:title>Matplotlib v3.10.8, https://matplotlib.org/</dc:title>
     </cc:Agent>
    </dc:creator>
   </cc:Work>
  </rdf:RDF>
 </metadata>
 <defs>
  <style type="text/css">*{stroke-linejoin: round; stroke-linecap: butt}</style>
 </defs>
 <g id="figure_1">
  <g id="patch_1">
   <path d="M 0 339.0375 
L 1144.8 339.0375 
L 1144.8 0 
L 0 0 
z
" style="fill: #ffffff"/>
  </g>
  <g id="axes_1">
   <g id="patch_2">
    <path d="M 35.46 203.4911 
L 188.064 203.4911 
Q 216.324 203.4911 216.324 196.0291 
L 216.324 91.5611 
Q 216.324 84.0991 188.064 84.0991 
L 35.46 84.0991 
Q 7.2 84.0991 7.2 91.5611 
L 7.2 196.0291 
Q 7.2 203.4911 35.46 203.4911 
z
" clip-path="url(#p38b997ad65)" style="fill: #ffffff; stroke: #000000; stroke-width: 1.5; stroke-linejoin: miter"/>
   </g>
   <g id="patch_3">
    <path d="M 201.365518 143.7951 
Q 203.322356 143.7951 203.602142 143.7951 
" clip-path="url(#p38b997ad65)" style="fill: none; stroke: #000000; stroke-width: 1.5; stroke-linecap: round"/>
    <path d="M 196.402142 140.1951 
L 203.602142 143.7951 
L 196.402142 147.3951 
" clip-path="url(#p38b997ad65)" style="fill: none; stroke: #000000; stroke-width: 1.5; stroke-linecap: round"/>
   </g>
   <g id="patch_4">
    <path d="M 218.5848 203.4911 
L 371.1888 203.4911 
Q 399.4488 203.4911 399.4488 196.0291 
L 399.4488 91.5611 
Q 399.4488 84.0991 371.1888 84.0991 
L 218.5848 84.0991 
Q 190.3248 84.0991 190.3248 91.5611 
L 190.3248 196.0291 
Q 190.3248 203.4911 218.5848 203.4911 
z
" clip-path="url(#p38b997ad65)" style="fill: #ffffff; stroke: #000000; stroke-width: 1.5; stroke-linejoin: miter"/>
   </g>
   <g id="patch_5">
    <path d="M 384.490318 143.7951 
Q 386.447156 143.7951 386.726942 143.7951 
" clip-path="url(#p38b997ad65)" style="fill: none; stroke: #000000; stroke-width: 1.5; stroke-linecap: round"/>
    <path d="M 379.526942 140.1951 
L 386.726942 143.7951 
L 379.526942 147.3951 
" clip-path="url(#p38b997ad65)" style="fill: none; stroke: #000000; stroke-width: 1.5; stroke-linecap: round"/>
   </g>
   <g id="patch_6">
    <path d="M 401.7096 203.4911 
L 554.3136 203.4911 
Q 582.5736 203.4911 582.5736 196.0291 
L 582.5736 91.5611 
Q 582.5736 84.0991 554.3136 84.0991 
L 401.7096 84.0991 
Q 373.4496 84.0991 373.4496 91.5611 
L 373.4496 196.0291 
Q 373.4496 203.4911 401.7096 203.4911 
z
" clip-path="url(#p38b997ad65)" style="fill: #ffffff; stroke: #000000; stroke-width: 1.5; stroke-linejoin: miter"/>
   </g>
   <g id="patch_7">
    <path d="M 567.615118 143.7951 
Q 569.571956 143.7951 569.851742 143.7951 
" clip-path="url(#p38b997ad65)" style="fill: none; stroke: #000000; stroke-width: 1.5; stroke-linecap: round"/>
    <path d="M 562.651742 140.1951 
L 569.851742 143.7951 
L 562.651742 147.3951 
" clip-path="url(#p38b997ad65)" style="fill: none; stroke: #000000; stroke-width: 1.5; stroke-linecap: round"/>
   </g>
   <g id="patch_8">
    <path d="M 584.8344 203.4911 
L 737.4384 203.4911 
Q 765.6984 203.4911 765.6984 196.0291 
L 765.6984 91.5611 
Q 765.6984 84.0991 737.4384 84.0991 
L 584.8344 84.0991 
Q 556.5744 84.0991 556.5744 91.5611 
L 556.5744 196.0291 
Q 556.5744 203.4911 584.8344 203.4911 
z
" clip-path="url(#p38b997ad65)" style="fill: #ffffff; stroke: #000000; stroke-width: 1.5; stroke-linejoin: miter"/>
   </g>
   <g id="patch_9">
    <path d="M 750.739918 143.7951 
Q 752.696756 143.7951 752.976542 143.7951 
" clip-path="url(#p38b997ad65)" style="fill: none; stroke: #000000; stroke-width: 1.5; stroke-linecap: round"/>
    <path d="M 745.776542 140.1951 
L 752.976542 143.7951 
L 745.776542 147.3951 
" clip-path="url(#p38b997ad65)" style="fill: none; stroke: #000000; stroke-width: 1.5; stroke-linecap: round"/>
   </g>
   <g id="patch_10">
    <path d="M 767.9592 203.4911 
L 920.5632 203.4911 
Q 948.8232 203.4911 948.8232 196.0291 
L 948.8232 91.5611 
Q 948.8232 84.0991 920.5632 84.0991 
L 767.9592 84.0991 
Q 739.6992 84.0991 739.6992 91.5611 
L 739.6992 196.0291 
Q 739.6992 203.4911 767.9592 203.4911 
z
" clip-path="url(#p38b997ad65)" style="fill: #ffffff; stroke: #000000; stroke-width: 1.5; stroke-linejoin: miter"/>
   </g>
   <g id="patch_11">
    <path d="M 933.864718 143.7951 
Q 935.821556 143.7951 936.101342 143.7951 
" clip-path="url(#p38b997ad65)" style="fill: none; stroke: #000000; stroke-width: 1.5; stroke-linecap: round"/>
    <path d="M 928.901342 140.1951 
L 936.101342 143.7951 
L 928.901342 147.3951 
" clip-path="url(#p38b997ad65)" style="fill: none; stroke: #000000; stroke-width: 1.5; stroke-linecap: round"/>
   </g>
   <g id="patch_12">
    <path d="M 951.084 203.4911 
L 1103.688 203.4911 
Q 1131.948 203.4911 1131.948 196.0291 
L 1131.948 91.5611 
Q 1131.948 84.0991 1103.688 84.0991 
L 951.084 84.0991 
Q 922.824 84.0991 922.824 91.5611 
L 922.824 196.0291 
Q 922.824 203.4911 951.084 203.4911 
z
" clip-path="url(#p38b997ad65)" style="fill: #ffffff; stroke: #000000; stroke-width: 1.5; stroke-linejoin: miter"/>
   </g>
   <g id="text_1">
    <!-- Data input -->
    <g transform="translate(75.9645 123.466734) scale(0.12 -0.12)">
     <defs>
      <path id="DejaVuSans-Bold-44" d="M 1791 3756 
L 1791 909 
L 2222 909 
Q 2959 909 3348 1275 
Q 3738 1641 3738 2338 
Q 3738 3031 3350 3393 
Q 2963 3756 2222 3756 
L 1791 3756 
z
M 588 4666 
L 1856 4666 
Q 2919 4666 3439 4514 
Q 3959 4363 4331 4000 
Q 4659 3684 4818 3271 
Q 4978 2859 4978 2338 
Q 4978 1809 4818 1395 
Q 4659 981 4331 666 
Q 3956 303 3431 151 
Q 2906 0 1856 0 
L 588 0 
L 588 4666 
z
" transform="scale(0.015625)"/>
      <path id="DejaVuSans-Bold-61" d="M 2106 1575 
Q 1756 1575 1579 1456 
Q 1403 1338 1403 1106 
Q 1403 894 1545 773 
Q 1688 653 1941 653 
Q 2256 653 2472 879 
Q 2688 1106 2688 1447 
L 2688 1575 
L 2106 1575 
z
M 3816 1997 
L 3816 0 
L 2688 0 
L 2688 519 
Q 2463 200 2181 54 
Q 1900 -91 1497 -91 
Q 953 -91 614 226 
Q 275 544 275 1050 
Q 275 1666 698 1953 
Q 1122 2241 2028 2241 
L 2688 2241 
L 2688 2328 
Q 2688 2594 2478 2717 
Q 2269 2841 1825 2841 
Q 1466 2841 1156 2769 
Q 847 2697 581 2553 
L 581 3406 
Q 941 3494 1303 3539 
Q 1666 3584 2028 3584 
Q 2975 3584 3395 3211 
Q 3816 2838 3816 1997 
z
" transform="scale(0.015625)"/>
      <path id="DejaVuSans-Bold-74" d="M 1759 4494 
L 1759 3500 
L 2913 3500 
L 2913 2700 
L 1759 2700 
L 1759 1216 
Q 1759 972 1856 886 
Q 1953 800 2241 800 
L 2816 800 
L 2816 0 
L 1856 0 
Q 1194 0 917 276 
Q 641 553 641 1216 
L 641 2700 
L 84 2700 
L 84 3500 
L 641 3500 
L 641 4494 
L 1759 4494 
z
" transform="scale(0.015625)"/>
      <path id="DejaVuSans-Bold-20" transform="scale(0.015625)"/>
      <path id="DejaVuSans-Bold-69" d="M 538 3500 
L 1656 3500 
L 1656 0 
L 538 0 
L 538 3500 
z
M 538 4863 
L 1656 4863 
L 1656 3950 
L 538 3950 
L 538 4863 
z
" transform="scale(0.015625)"/>
      <path id="DejaVuSans-Bold-6e" d="M 4056 2131 
L 4056 0 
L 2931 0 
L 2931 347 
L 2931 1631 
Q 2931 2084 2911 2256 
Q 2891 2428 2841 2509 
Q 2775 2619 2662 2680 
Q 2550 2741 2406 2741 
Q 2056 2741 1856 2470 
Q 1656 2200 1656 1722 
L 1656 0 
L 538 0 
L 538 3500 
L 1656 3500 
L 1656 2988 
Q 1909 3294 2193 3439 
Q 2478 3584 2822 3584 
Q 3428 3584 3742 3212 
Q 4056 2841 4056 2131 
z
" transform="scale(0.015625)"/>
      <path id="DejaVuSans-Bold-70" d="M 1656 506 
L 1656 -1331 
L 538 -1331 
L 538 3500 
L 1656 3500 
L 1656 2988 
Q 1888 3294 2169 3439 
Q 2450 3584 2816 3584 
Q 3463 3584 3878 3070 
Q 4294 2556 4294 1747 
Q 4294 938 3878 423 
Q 3463 -91 2816 -91 
Q 2450 -91 2169 54 
Q 1888 200 1656 506 
z
M 2400 2772 
Q 2041 2772 1848 2508 
Q 1656 2244 1656 1747 
Q 1656 1250 1848 986 
Q 2041 722 2400 722 
Q 2759 722 2948 984 
Q 3138 1247 3138 1747 
Q 3138 2247 2948 2509 
Q 2759 2772 2400 2772 
z
" transform="scale(0.015625)"/>
      <path id="DejaVuSans-Bold-75" d="M 500 1363 
L 500 3500 
L 1625 3500 
L 1625 3150 
Q 1625 2866 1622 2436 
Q 1619 2006 1619 1863 
Q 1619 1441 1641 1255 
Q 1663 1069 1716 984 
Q 1784 875 1895 815 
Q 2006 756 2150 756 
Q 2500 756 2700 1025 
Q 2900 1294 2900 1772 
L 2900 3500 
L 4019 3500 
L 4019 0 
L 2900 0 
L 2900 506 
Q 2647 200 2364 54 
Q 2081 -91 1741 -91 
Q 1134 -91 817 281 
Q 500 653 500 1363 
z
" transform="scale(0.015625)"/>
     </defs>
     <use xlink:href="#DejaVuSans-Bold-44"/>
     <use xlink:href="#DejaVuSans-Bold-61" transform="translate(83.007812 0)"/>
     <use xlink:href="#DejaVuSans-Bold-74" transform="translate(150.488281 0)"/>
     <use xlink:href="#DejaVuSans-Bold-61" transform="translate(198.291016 0)"/>
     <use xlink:href="#DejaVuSans-Bold-20" transform="translate(265.771484 0)"/>
     <use xlink:href="#DejaVuSans-Bold-69" transform="translate(300.585938 0)"/>
     <use xlink:href="#DejaVuSans-Bold-6e" transform="translate(334.863281 0)"/>
     <use xlink:href="#DejaVuSans-Bold-70" transform="translate(406.054688 0)"/>
     <use xlink:href="#DejaVuSans-Bold-75" transform="translate(477.636719 0)"/>
     <use xlink:href="#DejaVuSans-Bold-74" transform="translate(548.828125 0)"/>
    </g>
   </g>
   <g id="text_2">
    <!-- IU X-Ray: imagen frontal -->
    <g transform="translate(57.1545 149.094842) scale(0.09 -0.09)">
     <defs>
      <path id="DejaVuSans-49" d="M 628 4666 
L 1259 4666 
L 1259 0 
L 628 0 
L 628 4666 
z
" transform="scale(0.015625)"/>
      <path id="DejaVuSans-55" d="M 556 4666 
L 1191 4666 
L 1191 1831 
Q 1191 1081 1462 751 
Q 1734 422 2344 422 
Q 2950 422 3222 751 
Q 3494 1081 3494 1831 
L 3494 4666 
L 4128 4666 
L 4128 1753 
Q 4128 841 3676 375 
Q 3225 -91 2344 -91 
Q 1459 -91 1007 375 
Q 556 841 556 1753 
L 556 4666 
z
" transform="scale(0.015625)"/>
      <path id="DejaVuSans-20" transform="scale(0.015625)"/>
      <path id="DejaVuSans-58" d="M 403 4666 
L 1081 4666 
L 2241 2931 
L 3406 4666 
L 4084 4666 
L 2584 2425 
L 4184 0 
L 3506 0 
L 2194 1984 
L 872 0 
L 191 0 
L 1856 2491 
L 403 4666 
z
" transform="scale(0.015625)"/>
      <path id="DejaVuSans-2d" d="M 313 2009 
L 1997 2009 
L 1997 1497 
L 313 1497 
L 313 2009 
z
" transform="scale(0.015625)"/>
      <path id="DejaVuSans-52" d="M 2841 2188 
Q 3044 2119 3236 1894 
Q 3428 1669 3622 1275 
L 4263 0 
L 3584 0 
L 2988 1197 
Q 2756 1666 2539 1819 
Q 2322 1972 1947 1972 
L 1259 1972 
L 1259 0 
L 628 0 
L 628 4666 
L 2053 4666 
Q 2853 4666 3247 4331 
Q 3641 3997 3641 3322 
Q 3641 2881 3436 2590 
Q 3231 2300 2841 2188 
z
M 1259 4147 
L 1259 2491 
L 2053 2491 
Q 2509 2491 2742 2702 
Q 2975 2913 2975 3322 
Q 2975 3731 2742 3939 
Q 2509 4147 2053 4147 
L 1259 4147 
z
" transform="scale(0.015625)"/>
      <path id="DejaVuSans-61" d="M 2194 1759 
Q 1497 1759 1228 1600 
Q 959 1441 959 1056 
Q 959 750 1161 570 
Q 1363 391 1709 391 
Q 2188 391 2477 730 
Q 2766 1069 2766 1631 
L 2766 1759 
L 2194 1759 
z
M 3341 1997 
L 3341 0 
L 2766 0 
L 2766 531 
Q 2569 213 2275 61 
Q 1981 -91 1556 -91 
Q 1019 -91 701 211 
Q 384 513 384 1019 
Q 384 1609 779 1909 
Q 1175 2209 1959 2209 
L 2766 2209 
L 2766 2266 
Q 2766 2663 2505 2880 
Q 2244 3097 1772 3097 
Q 1472 3097 1187 3025 
Q 903 2953 641 2809 
L 641 3341 
Q 956 3463 1253 3523 
Q 1550 3584 1831 3584 
Q 2591 3584 2966 3190 
Q 3341 2797 3341 1997 
z
" transform="scale(0.015625)"/>
      <path id="DejaVuSans-79" d="M 2059 -325 
Q 1816 -950 1584 -1140 
Q 1353 -1331 966 -1331 
L 506 -1331 
L 506 -850 
L 844 -850 
Q 1081 -850 1212 -737 
Q 1344 -625 1503 -206 
L 1606 56 
L 191 3500 
L 800 3500 
L 1894 763 
L 2988 3500 
L 3597 3500 
L 2059 -325 
z
" transform="scale(0.015625)"/>
      <path id="DejaVuSans-3a" d="M 750 794 
L 1409 794 
L 1409 0 
L 750 0 
L 750 794 
z
M 750 3309 
L 1409 3309 
L 1409 2516 
L 750 2516 
L 750 3309 
z
" transform="scale(0.015625)"/>
      <path id="DejaVuSans-69" d="M 603 3500 
L 1178 3500 
L 1178 0 
L 603 0 
L 603 3500 
z
M 603 4863 
L 1178 4863 
L 1178 4134 
L 603 4134 
L 603 4863 
z
" transform="scale(0.015625)"/>
      <path id="DejaVuSans-6d" d="M 3328 2828 
Q 3544 3216 3844 3400 
Q 4144 3584 4550 3584 
Q 5097 3584 5394 3201 
Q 5691 2819 5691 2113 
L 5691 0 
L 5113 0 
L 5113 2094 
Q 5113 2597 4934 2840 
Q 4756 3084 4391 3084 
Q 3944 3084 3684 2787 
Q 3425 2491 3425 1978 
L 3425 0 
L 2847 0 
L 2847 2094 
Q 2847 2600 2669 2842 
Q 2491 3084 2119 3084 
Q 1678 3084 1418 2786 
Q 1159 2488 1159 1978 
L 1159 0 
L 581 0 
L 581 3500 
L 1159 3500 
L 1159 2956 
Q 1356 3278 1631 3431 
Q 1906 3584 2284 3584 
Q 2666 3584 2933 3390 
Q 3200 3197 3328 2828 
z
" transform="scale(0.015625)"/>
      <path id="DejaVuSans-67" d="M 2906 1791 
Q 2906 2416 2648 2759 
Q 2391 3103 1925 3103 
Q 1463 3103 1205 2759 
Q 947 2416 947 1791 
Q 947 1169 1205 825 
Q 1463 481 1925 481 
Q 2391 481 2648 825 
Q 2906 1169 2906 1791 
z
M 3481 434 
Q 3481 -459 3084 -895 
Q 2688 -1331 1869 -1331 
Q 1566 -1331 1297 -1286 
Q 1028 -1241 775 -1147 
L 775 -588 
Q 1028 -725 1275 -790 
Q 1522 -856 1778 -856 
Q 2344 -856 2625 -561 
Q 2906 -266 2906 331 
L 2906 616 
Q 2728 306 2450 153 
Q 2172 0 1784 0 
Q 1141 0 747 490 
Q 353 981 353 1791 
Q 353 2603 747 3093 
Q 1141 3584 1784 3584 
Q 2172 3584 2450 3431 
Q 2728 3278 2906 2969 
L 2906 3500 
L 3481 3500 
L 3481 434 
z
" transform="scale(0.015625)"/>
      <path id="DejaVuSans-65" d="M 3597 1894 
L 3597 1613 
L 953 1613 
Q 991 1019 1311 708 
Q 1631 397 2203 397 
Q 2534 397 2845 478 
Q 3156 559 3463 722 
L 3463 178 
Q 3153 47 2828 -22 
Q 2503 -91 2169 -91 
Q 1331 -91 842 396 
Q 353 884 353 1716 
Q 353 2575 817 3079 
Q 1281 3584 2069 3584 
Q 2775 3584 3186 3129 
Q 3597 2675 3597 1894 
z
M 3022 2063 
Q 3016 2534 2758 2815 
Q 2500 3097 2075 3097 
Q 1594 3097 1305 2825 
Q 1016 2553 972 2059 
L 3022 2063 
z
" transform="scale(0.015625)"/>
      <path id="DejaVuSans-6e" d="M 3513 2113 
L 3513 0 
L 2938 0 
L 2938 2094 
Q 2938 2591 2744 2837 
Q 2550 3084 2163 3084 
Q 1697 3084 1428 2787 
Q 1159 2491 1159 1978 
L 1159 0 
L 581 0 
L 581 3500 
L 1159 3500 
L 1159 2956 
Q 1366 3272 1645 3428 
Q 1925 3584 2291 3584 
Q 2894 3584 3203 3211 
Q 3513 2838 3513 2113 
z
" transform="scale(0.015625)"/>
      <path id="DejaVuSans-66" d="M 2375 4863 
L 2375 4384 
L 1825 4384 
Q 1516 4384 1395 4259 
Q 1275 4134 1275 3809 
L 1275 3500 
L 2222 3500 
L 2222 3053 
L 1275 3053 
L 1275 0 
L 697 0 
L 697 3053 
L 147 3053 
L 147 3500 
L 697 3500 
L 697 3744 
Q 697 4328 969 4595 
Q 1241 4863 1831 4863 
L 2375 4863 
z
" transform="scale(0.015625)"/>
      <path id="DejaVuSans-72" d="M 2631 2963 
Q 2534 3019 2420 3045 
Q 2306 3072 2169 3072 
Q 1681 3072 1420 2755 
Q 1159 2438 1159 1844 
L 1159 0 
L 581 0 
L 581 3500 
L 1159 3500 
L 1159 2956 
Q 1341 3275 1631 3429 
Q 1922 3584 2338 3584 
Q 2397 3584 2469 3576 
Q 2541 3569 2628 3553 
L 2631 2963 
z
" transform="scale(0.015625)"/>
      <path id="DejaVuSans-6f" d="M 1959 3097 
Q 1497 3097 1228 2736 
Q 959 2375 959 1747 
Q 959 1119 1226 758 
Q 1494 397 1959 397 
Q 2419 397 2687 759 
Q 2956 1122 2956 1747 
Q 2956 2369 2687 2733 
Q 2419 3097 1959 3097 
z
M 1959 3584 
Q 2709 3584 3137 3096 
Q 3566 2609 3566 1747 
Q 3566 888 3137 398 
Q 2709 -91 1959 -91 
Q 1206 -91 779 398 
Q 353 888 353 1747 
Q 353 2609 779 3096 
Q 1206 3584 1959 3584 
z
" transform="scale(0.015625)"/>
      <path id="DejaVuSans-74" d="M 1172 4494 
L 1172 3500 
L 2356 3500 
L 2356 3053 
L 1172 3053 
L 1172 1153 
Q 1172 725 1289 603 
Q 1406 481 1766 481 
L 2356 481 
L 2356 0 
L 1766 0 
Q 1100 0 847 248 
Q 594 497 594 1153 
L 594 3053 
L 172 3053 
L 172 3500 
L 594 3500 
L 594 4494 
L 1172 4494 
z
" transform="scale(0.015625)"/>
      <path id="DejaVuSans-6c" d="M 603 4863 
L 1178 4863 
L 1178 0 
L 603 0 
L 603 4863 
z
" transform="scale(0.015625)"/>
     </defs>
     <use xlink:href="#DejaVuSans-49"/>
     <use xlink:href="#DejaVuSans-55" transform="translate(29.492188 0)"/>
     <use xlink:href="#DejaVuSans-20" transform="translate(102.685547 0)"/>
     <use xlink:href="#DejaVuSans-58" transform="translate(134.472656 0)"/>
     <use xlink:href="#DejaVuSans-2d" transform="translate(197.978516 0)"/>
     <use xlink:href="#DejaVuSans-52" transform="translate(234.0625 0)"/>
     <use xlink:href="#DejaVuSans-61" transform="translate(301.294922 0)"/>
     <use xlink:href="#DejaVuSans-79" transform="translate(362.574219 0)"/>
     <use xlink:href="#DejaVuSans-3a" transform="translate(414.503906 0)"/>
     <use xlink:href="#DejaVuSans-20" transform="translate(448.195312 0)"/>
     <use xlink:href="#DejaVuSans-69" transform="translate(479.982422 0)"/>
     <use xlink:href="#DejaVuSans-6d" transform="translate(507.765625 0)"/>
     <use xlink:href="#DejaVuSans-61" transform="translate(605.177734 0)"/>
     <use xlink:href="#DejaVuSans-67" transform="translate(666.457031 0)"/>
     <use xlink:href="#DejaVuSans-65" transform="translate(729.933594 0)"/>
     <use xlink:href="#DejaVuSans-6e" transform="translate(791.457031 0)"/>
     <use xlink:href="#DejaVuSans-20" transform="translate(854.835938 0)"/>
     <use xlink:href="#DejaVuSans-66" transform="translate(886.623047 0)"/>
     <use xlink:href="#DejaVuSans-72" transform="translate(921.828125 0)"/>
     <use xlink:href="#DejaVuSans-6f" transform="translate(960.691406 0)"/>
     <use xlink:href="#DejaVuSans-6e" transform="translate(1021.873047 0)"/>
     <use xlink:href="#DejaVuSans-74" transform="translate(1085.251953 0)"/>
     <use xlink:href="#DejaVuSans-61" transform="translate(1124.460938 0)"/>
     <use xlink:href="#DejaVuSans-6c" transform="translate(1185.740234 0)"/>
    </g>
    <!-- + indication clínica -->
    <g transform="translate(68.761688 159.172874) scale(0.09 -0.09)">
     <defs>
      <path id="DejaVuSans-2b" d="M 2944 4013 
L 2944 2272 
L 4684 2272 
L 4684 1741 
L 2944 1741 
L 2944 0 
L 2419 0 
L 2419 1741 
L 678 1741 
L 678 2272 
L 2419 2272 
L 2419 4013 
L 2944 4013 
z
" transform="scale(0.015625)"/>
      <path id="DejaVuSans-64" d="M 2906 2969 
L 2906 4863 
L 3481 4863 
L 3481 0 
L 2906 0 
L 2906 525 
Q 2725 213 2448 61 
Q 2172 -91 1784 -91 
Q 1150 -91 751 415 
Q 353 922 353 1747 
Q 353 2572 751 3078 
Q 1150 3584 1784 3584 
Q 2172 3584 2448 3432 
Q 2725 3281 2906 2969 
z
M 947 1747 
Q 947 1113 1208 752 
Q 1469 391 1925 391 
Q 2381 391 2643 752 
Q 2906 1113 2906 1747 
Q 2906 2381 2643 2742 
Q 2381 3103 1925 3103 
Q 1469 3103 1208 2742 
Q 947 2381 947 1747 
z
" transform="scale(0.015625)"/>
      <path id="DejaVuSans-63" d="M 3122 3366 
L 3122 2828 
Q 2878 2963 2633 3030 
Q 2388 3097 2138 3097 
Q 1578 3097 1268 2742 
Q 959 2388 959 1747 
Q 959 1106 1268 751 
Q 1578 397 2138 397 
Q 2388 397 2633 464 
Q 2878 531 3122 666 
L 3122 134 
Q 2881 22 2623 -34 
Q 2366 -91 2075 -91 
Q 1284 -91 818 406 
Q 353 903 353 1747 
Q 353 2603 823 3093 
Q 1294 3584 2113 3584 
Q 2378 3584 2631 3529 
Q 2884 3475 3122 3366 
z
" transform="scale(0.015625)"/>
      <path id="DejaVuSans-ed" d="M 1322 5119 
L 1944 5119 
L 926 3944 
L 447 3944 
L 1322 5119 
z
M 603 3500 
L 1178 3500 
L 1178 0 
L 603 0 
L 603 3500 
z
M 891 3584 
L 891 3584 
z
" transform="scale(0.015625)"/>
     </defs>
     <use xlink:href="#DejaVuSans-2b"/>
     <use xlink:href="#DejaVuSans-20" transform="translate(83.789062 0)"/>
     <use xlink:href="#DejaVuSans-69" transform="translate(115.576172 0)"/>
     <use xlink:href="#DejaVuSans-6e" transform="translate(143.359375 0)"/>
     <use xlink:href="#DejaVuSans-64" transform="translate(206.738281 0)"/>
     <use xlink:href="#DejaVuSans-69" transform="translate(270.214844 0)"/>
     <use xlink:href="#DejaVuSans-63" transform="translate(297.998047 0)"/>
     <use xlink:href="#DejaVuSans-61" transform="translate(352.978516 0)"/>
     <use xlink:href="#DejaVuSans-74" transform="translate(414.257812 0)"/>
     <use xlink:href="#DejaVuSans-69" transform="translate(453.466797 0)"/>
     <use xlink:href="#DejaVuSans-6f" transform="translate(481.25 0)"/>
     <use xlink:href="#DejaVuSans-6e" transform="translate(542.431641 0)"/>
     <use xlink:href="#DejaVuSans-20" transform="translate(605.810547 0)"/>
     <use xlink:href="#DejaVuSans-63" transform="translate(637.597656 0)"/>
     <use xlink:href="#DejaVuSans-6c" transform="translate(692.578125 0)"/>
     <use xlink:href="#DejaVuSans-ed" transform="translate(720.361328 0)"/>
     <use xlink:href="#DejaVuSans-6e" transform="translate(748.144531 0)"/>
     <use xlink:href="#DejaVuSans-69" transform="translate(811.523438 0)"/>
     <use xlink:href="#DejaVuSans-63" transform="translate(839.306641 0)"/>
     <use xlink:href="#DejaVuSans-61" transform="translate(894.287109 0)"/>
    </g>
    <!-- + metadata UID -->
    <g transform="translate(75.234656 169.250905) scale(0.09 -0.09)">
     <defs>
      <path id="DejaVuSans-44" d="M 1259 4147 
L 1259 519 
L 2022 519 
Q 2988 519 3436 956 
Q 3884 1394 3884 2338 
Q 3884 3275 3436 3711 
Q 2988 4147 2022 4147 
L 1259 4147 
z
M 628 4666 
L 1925 4666 
Q 3281 4666 3915 4102 
Q 4550 3538 4550 2338 
Q 4550 1131 3912 565 
Q 3275 0 1925 0 
L 628 0 
L 628 4666 
z
" transform="scale(0.015625)"/>
     </defs>
     <use xlink:href="#DejaVuSans-2b"/>
     <use xlink:href="#DejaVuSans-20" transform="translate(83.789062 0)"/>
     <use xlink:href="#DejaVuSans-6d" transform="translate(115.576172 0)"/>
     <use xlink:href="#DejaVuSans-65" transform="translate(212.988281 0)"/>
     <use xlink:href="#DejaVuSans-74" transform="translate(274.511719 0)"/>
     <use xlink:href="#DejaVuSans-61" transform="translate(313.720703 0)"/>
     <use xlink:href="#DejaVuSans-64" transform="translate(375 0)"/>
     <use xlink:href="#DejaVuSans-61" transform="translate(438.476562 0)"/>
     <use xlink:href="#DejaVuSans-74" transform="translate(499.755859 0)"/>
     <use xlink:href="#DejaVuSans-61" transform="translate(538.964844 0)"/>
     <use xlink:href="#DejaVuSans-20" transform="translate(600.244141 0)"/>
     <use xlink:href="#DejaVuSans-55" transform="translate(632.03125 0)"/>
     <use xlink:href="#DejaVuSans-49" transform="translate(705.224609 0)"/>
     <use xlink:href="#DejaVuSans-44" transform="translate(734.716797 0)"/>
    </g>
   </g>
   <g id="text_3">
    <!-- Preprocessing -->
    <g transform="translate(246.693675 123.419859) scale(0.12 -0.12)">
     <defs>
      <path id="DejaVuSans-Bold-50" d="M 588 4666 
L 2584 4666 
Q 3475 4666 3951 4270 
Q 4428 3875 4428 3144 
Q 4428 2409 3951 2014 
Q 3475 1619 2584 1619 
L 1791 1619 
L 1791 0 
L 588 0 
L 588 4666 
z
M 1791 3794 
L 1791 2491 
L 2456 2491 
Q 2806 2491 2997 2661 
Q 3188 2831 3188 3144 
Q 3188 3456 2997 3625 
Q 2806 3794 2456 3794 
L 1791 3794 
z
" transform="scale(0.015625)"/>
      <path id="DejaVuSans-Bold-72" d="M 3138 2547 
Q 2991 2616 2845 2648 
Q 2700 2681 2553 2681 
Q 2122 2681 1889 2404 
Q 1656 2128 1656 1613 
L 1656 0 
L 538 0 
L 538 3500 
L 1656 3500 
L 1656 2925 
Q 1872 3269 2151 3426 
Q 2431 3584 2822 3584 
Q 2878 3584 2943 3579 
Q 3009 3575 3134 3559 
L 3138 2547 
z
" transform="scale(0.015625)"/>
      <path id="DejaVuSans-Bold-65" d="M 4031 1759 
L 4031 1441 
L 1416 1441 
Q 1456 1047 1700 850 
Q 1944 653 2381 653 
Q 2734 653 3104 758 
Q 3475 863 3866 1075 
L 3866 213 
Q 3469 63 3072 -14 
Q 2675 -91 2278 -91 
Q 1328 -91 801 392 
Q 275 875 275 1747 
Q 275 2603 792 3093 
Q 1309 3584 2216 3584 
Q 3041 3584 3536 3087 
Q 4031 2591 4031 1759 
z
M 2881 2131 
Q 2881 2450 2695 2645 
Q 2509 2841 2209 2841 
Q 1884 2841 1681 2658 
Q 1478 2475 1428 2131 
L 2881 2131 
z
" transform="scale(0.015625)"/>
      <path id="DejaVuSans-Bold-6f" d="M 2203 2784 
Q 1831 2784 1636 2517 
Q 1441 2250 1441 1747 
Q 1441 1244 1636 976 
Q 1831 709 2203 709 
Q 2569 709 2762 976 
Q 2956 1244 2956 1747 
Q 2956 2250 2762 2517 
Q 2569 2784 2203 2784 
z
M 2203 3584 
Q 3106 3584 3614 3096 
Q 4122 2609 4122 1747 
Q 4122 884 3614 396 
Q 3106 -91 2203 -91 
Q 1297 -91 786 396 
Q 275 884 275 1747 
Q 275 2609 786 3096 
Q 1297 3584 2203 3584 
z
" transform="scale(0.015625)"/>
      <path id="DejaVuSans-Bold-63" d="M 3366 3391 
L 3366 2478 
Q 3138 2634 2908 2709 
Q 2678 2784 2431 2784 
Q 1963 2784 1702 2511 
Q 1441 2238 1441 1747 
Q 1441 1256 1702 982 
Q 1963 709 2431 709 
Q 2694 709 2930 787 
Q 3166 866 3366 1019 
L 3366 103 
Q 3103 6 2833 -42 
Q 2563 -91 2291 -91 
Q 1344 -91 809 395 
Q 275 881 275 1747 
Q 275 2613 809 3098 
Q 1344 3584 2291 3584 
Q 2566 3584 2833 3536 
Q 3100 3488 3366 3391 
z
" transform="scale(0.015625)"/>
      <path id="DejaVuSans-Bold-73" d="M 3272 3391 
L 3272 2541 
Q 2913 2691 2578 2766 
Q 2244 2841 1947 2841 
Q 1628 2841 1473 2761 
Q 1319 2681 1319 2516 
Q 1319 2381 1436 2309 
Q 1553 2238 1856 2203 
L 2053 2175 
Q 2913 2066 3209 1816 
Q 3506 1566 3506 1031 
Q 3506 472 3093 190 
Q 2681 -91 1863 -91 
Q 1516 -91 1145 -36 
Q 775 19 384 128 
L 384 978 
Q 719 816 1070 734 
Q 1422 653 1784 653 
Q 2113 653 2278 743 
Q 2444 834 2444 1013 
Q 2444 1163 2330 1236 
Q 2216 1309 1875 1350 
L 1678 1375 
Q 931 1469 631 1722 
Q 331 1975 331 2491 
Q 331 3047 712 3315 
Q 1094 3584 1881 3584 
Q 2191 3584 2531 3537 
Q 2872 3491 3272 3391 
z
" transform="scale(0.015625)"/>
      <path id="DejaVuSans-Bold-67" d="M 2919 594 
Q 2688 288 2409 144 
Q 2131 0 1766 0 
Q 1125 0 706 504 
Q 288 1009 288 1791 
Q 288 2575 706 3076 
Q 1125 3578 1766 3578 
Q 2131 3578 2409 3434 
Q 2688 3291 2919 2981 
L 2919 3500 
L 4044 3500 
L 4044 353 
Q 4044 -491 3511 -936 
Q 2978 -1381 1966 -1381 
Q 1638 -1381 1331 -1331 
Q 1025 -1281 716 -1178 
L 716 -306 
Q 1009 -475 1290 -558 
Q 1572 -641 1856 -641 
Q 2406 -641 2662 -400 
Q 2919 -159 2919 353 
L 2919 594 
z
M 2181 2772 
Q 1834 2772 1640 2515 
Q 1447 2259 1447 1791 
Q 1447 1309 1634 1061 
Q 1822 813 2181 813 
Q 2531 813 2725 1069 
Q 2919 1325 2919 1791 
Q 2919 2259 2725 2515 
Q 2531 2772 2181 2772 
z
" transform="scale(0.015625)"/>
     </defs>
     <use xlink:href="#DejaVuSans-Bold-50"/>
     <use xlink:href="#DejaVuSans-Bold-72" transform="translate(73.291016 0)"/>
     <use xlink:href="#DejaVuSans-Bold-65" transform="translate(122.607422 0)"/>
     <use xlink:href="#DejaVuSans-Bold-70" transform="translate(190.429688 0)"/>
     <use xlink:href="#DejaVuSans-Bold-72" transform="translate(262.011719 0)"/>
     <use xlink:href="#DejaVuSans-Bold-6f" transform="translate(311.328125 0)"/>
     <use xlink:href="#DejaVuSans-Bold-63" transform="translate(380.029297 0)"/>
     <use xlink:href="#DejaVuSans-Bold-65" transform="translate(439.306641 0)"/>
     <use xlink:href="#DejaVuSans-Bold-73" transform="translate(507.128906 0)"/>
     <use xlink:href="#DejaVuSans-Bold-73" transform="translate(566.650391 0)"/>
     <use xlink:href="#DejaVuSans-Bold-69" transform="translate(626.171875 0)"/>
     <use xlink:href="#DejaVuSans-Bold-6e" transform="translate(660.449219 0)"/>
     <use xlink:href="#DejaVuSans-Bold-67" transform="translate(731.640625 0)"/>
    </g>
   </g>
   <g id="text_4">
    <!-- Normalización, split por UID, -->
    <g transform="translate(230.742816 154.097858) scale(0.09 -0.09)">
     <defs>
      <path id="DejaVuSans-4e" d="M 628 4666 
L 1478 4666 
L 3547 763 
L 3547 4666 
L 4159 4666 
L 4159 0 
L 3309 0 
L 1241 3903 
L 1241 0 
L 628 0 
L 628 4666 
z
" transform="scale(0.015625)"/>
      <path id="DejaVuSans-7a" d="M 353 3500 
L 3084 3500 
L 3084 2975 
L 922 459 
L 3084 459 
L 3084 0 
L 275 0 
L 275 525 
L 2438 3041 
L 353 3041 
L 353 3500 
z
" transform="scale(0.015625)"/>
      <path id="DejaVuSans-f3" d="M 1959 3097 
Q 1497 3097 1228 2736 
Q 959 2375 959 1747 
Q 959 1119 1226 758 
Q 1494 397 1959 397 
Q 2419 397 2687 759 
Q 2956 1122 2956 1747 
Q 2956 2369 2687 2733 
Q 2419 3097 1959 3097 
z
M 1959 3584 
Q 2709 3584 3137 3096 
Q 3566 2609 3566 1747 
Q 3566 888 3137 398 
Q 2709 -91 1959 -91 
Q 1206 -91 779 398 
Q 353 888 353 1747 
Q 353 2609 779 3096 
Q 1206 3584 1959 3584 
z
M 2394 5119 
L 3016 5119 
L 1998 3944 
L 1519 3944 
L 2394 5119 
z
" transform="scale(0.015625)"/>
      <path id="DejaVuSans-2c" d="M 750 794 
L 1409 794 
L 1409 256 
L 897 -744 
L 494 -744 
L 750 256 
L 750 794 
z
" transform="scale(0.015625)"/>
      <path id="DejaVuSans-73" d="M 2834 3397 
L 2834 2853 
Q 2591 2978 2328 3040 
Q 2066 3103 1784 3103 
Q 1356 3103 1142 2972 
Q 928 2841 928 2578 
Q 928 2378 1081 2264 
Q 1234 2150 1697 2047 
L 1894 2003 
Q 2506 1872 2764 1633 
Q 3022 1394 3022 966 
Q 3022 478 2636 193 
Q 2250 -91 1575 -91 
Q 1294 -91 989 -36 
Q 684 19 347 128 
L 347 722 
Q 666 556 975 473 
Q 1284 391 1588 391 
Q 1994 391 2212 530 
Q 2431 669 2431 922 
Q 2431 1156 2273 1281 
Q 2116 1406 1581 1522 
L 1381 1569 
Q 847 1681 609 1914 
Q 372 2147 372 2553 
Q 372 3047 722 3315 
Q 1072 3584 1716 3584 
Q 2034 3584 2315 3537 
Q 2597 3491 2834 3397 
z
" transform="scale(0.015625)"/>
      <path id="DejaVuSans-70" d="M 1159 525 
L 1159 -1331 
L 581 -1331 
L 581 3500 
L 1159 3500 
L 1159 2969 
Q 1341 3281 1617 3432 
Q 1894 3584 2278 3584 
Q 2916 3584 3314 3078 
Q 3713 2572 3713 1747 
Q 3713 922 3314 415 
Q 2916 -91 2278 -91 
Q 1894 -91 1617 61 
Q 1341 213 1159 525 
z
M 3116 1747 
Q 3116 2381 2855 2742 
Q 2594 3103 2138 3103 
Q 1681 3103 1420 2742 
Q 1159 2381 1159 1747 
Q 1159 1113 1420 752 
Q 1681 391 2138 391 
Q 2594 391 2855 752 
Q 3116 1113 3116 1747 
z
" transform="scale(0.015625)"/>
     </defs>
     <use xlink:href="#DejaVuSans-4e"/>
     <use xlink:href="#DejaVuSans-6f" transform="translate(74.804688 0)"/>
     <use xlink:href="#DejaVuSans-72" transform="translate(135.986328 0)"/>
     <use xlink:href="#DejaVuSans-6d" transform="translate(175.349609 0)"/>
     <use xlink:href="#DejaVuSans-61" transform="translate(272.761719 0)"/>
     <use xlink:href="#DejaVuSans-6c" transform="translate(334.041016 0)"/>
     <use xlink:href="#DejaVuSans-69" transform="translate(361.824219 0)"/>
     <use xlink:href="#DejaVuSans-7a" transform="translate(389.607422 0)"/>
     <use xlink:href="#DejaVuSans-61" transform="translate(442.097656 0)"/>
     <use xlink:href="#DejaVuSans-63" transform="translate(503.376953 0)"/>
     <use xlink:href="#DejaVuSans-69" transform="translate(558.357422 0)"/>
     <use xlink:href="#DejaVuSans-f3" transform="translate(586.140625 0)"/>
     <use xlink:href="#DejaVuSans-6e" transform="translate(647.322266 0)"/>
     <use xlink:href="#DejaVuSans-2c" transform="translate(710.701172 0)"/>
     <use xlink:href="#DejaVuSans-20" transform="translate(742.488281 0)"/>
     <use xlink:href="#DejaVuSans-73" transform="translate(774.275391 0)"/>
     <use xlink:href="#DejaVuSans-70" transform="translate(826.375 0)"/>
     <use xlink:href="#DejaVuSans-6c" transform="translate(889.851562 0)"/>
     <use xlink:href="#DejaVuSans-69" transform="translate(917.634766 0)"/>
     <use xlink:href="#DejaVuSans-74" transform="translate(945.417969 0)"/>
     <use xlink:href="#DejaVuSans-20" transform="translate(984.626953 0)"/>
     <use xlink:href="#DejaVuSans-70" transform="translate(1016.414062 0)"/>
     <use xlink:href="#DejaVuSans-6f" transform="translate(1079.890625 0)"/>
     <use xlink:href="#DejaVuSans-72" transform="translate(1141.072266 0)"/>
     <use xlink:href="#DejaVuSans-20" transform="translate(1182.185547 0)"/>
     <use xlink:href="#DejaVuSans-55" transform="translate(1213.972656 0)"/>
     <use xlink:href="#DejaVuSans-49" transform="translate(1287.166016 0)"/>
     <use xlink:href="#DejaVuSans-44" transform="translate(1316.658203 0)"/>
     <use xlink:href="#DejaVuSans-2c" transform="translate(1393.660156 0)"/>
    </g>
    <!-- auditoría de etiquetas, exclusiones -->
    <g transform="translate(216.157894 164.607889) scale(0.09 -0.09)">
     <defs>
      <path id="DejaVuSans-75" d="M 544 1381 
L 544 3500 
L 1119 3500 
L 1119 1403 
Q 1119 906 1312 657 
Q 1506 409 1894 409 
Q 2359 409 2629 706 
Q 2900 1003 2900 1516 
L 2900 3500 
L 3475 3500 
L 3475 0 
L 2900 0 
L 2900 538 
Q 2691 219 2414 64 
Q 2138 -91 1772 -91 
Q 1169 -91 856 284 
Q 544 659 544 1381 
z
M 1991 3584 
L 1991 3584 
z
" transform="scale(0.015625)"/>
      <path id="DejaVuSans-71" d="M 947 1747 
Q 947 1113 1208 752 
Q 1469 391 1925 391 
Q 2381 391 2643 752 
Q 2906 1113 2906 1747 
Q 2906 2381 2643 2742 
Q 2381 3103 1925 3103 
Q 1469 3103 1208 2742 
Q 947 2381 947 1747 
z
M 2906 525 
Q 2725 213 2448 61 
Q 2172 -91 1784 -91 
Q 1150 -91 751 415 
Q 353 922 353 1747 
Q 353 2572 751 3078 
Q 1150 3584 1784 3584 
Q 2172 3584 2448 3432 
Q 2725 3281 2906 2969 
L 2906 3500 
L 3481 3500 
L 3481 -1331 
L 2906 -1331 
L 2906 525 
z
" transform="scale(0.015625)"/>
      <path id="DejaVuSans-78" d="M 3513 3500 
L 2247 1797 
L 3578 0 
L 2900 0 
L 1881 1375 
L 863 0 
L 184 0 
L 1544 1831 
L 300 3500 
L 978 3500 
L 1906 2253 
L 2834 3500 
L 3513 3500 
z
" transform="scale(0.015625)"/>
     </defs>
     <use xlink:href="#DejaVuSans-61"/>
     <use xlink:href="#DejaVuSans-75" transform="translate(61.279297 0)"/>
     <use xlink:href="#DejaVuSans-64" transform="translate(124.658203 0)"/>
     <use xlink:href="#DejaVuSans-69" transform="translate(188.134766 0)"/>
     <use xlink:href="#DejaVuSans-74" transform="translate(215.917969 0)"/>
     <use xlink:href="#DejaVuSans-6f" transform="translate(255.126953 0)"/>
     <use xlink:href="#DejaVuSans-72" transform="translate(316.308594 0)"/>
     <use xlink:href="#DejaVuSans-ed" transform="translate(357.421875 0)"/>
     <use xlink:href="#DejaVuSans-61" transform="translate(385.205078 0)"/>
     <use xlink:href="#DejaVuSans-20" transform="translate(446.484375 0)"/>
     <use xlink:href="#DejaVuSans-64" transform="translate(478.271484 0)"/>
     <use xlink:href="#DejaVuSans-65" transform="translate(541.748047 0)"/>
     <use xlink:href="#DejaVuSans-20" transform="translate(603.271484 0)"/>
     <use xlink:href="#DejaVuSans-65" transform="translate(635.058594 0)"/>
     <use xlink:href="#DejaVuSans-74" transform="translate(696.582031 0)"/>
     <use xlink:href="#DejaVuSans-69" transform="translate(735.791016 0)"/>
     <use xlink:href="#DejaVuSans-71" transform="translate(763.574219 0)"/>
     <use xlink:href="#DejaVuSans-75" transform="translate(827.050781 0)"/>
     <use xlink:href="#DejaVuSans-65" transform="translate(890.429688 0)"/>
     <use xlink:href="#DejaVuSans-74" transform="translate(951.953125 0)"/>
     <use xlink:href="#DejaVuSans-61" transform="translate(991.162109 0)"/>
     <use xlink:href="#DejaVuSans-73" transform="translate(1052.441406 0)"/>
     <use xlink:href="#DejaVuSans-2c" transform="translate(1104.541016 0)"/>
     <use xlink:href="#DejaVuSans-20" transform="translate(1136.328125 0)"/>
     <use xlink:href="#DejaVuSans-65" transform="translate(1168.115234 0)"/>
     <use xlink:href="#DejaVuSans-78" transform="translate(1227.888672 0)"/>
     <use xlink:href="#DejaVuSans-63" transform="translate(1285.318359 0)"/>
     <use xlink:href="#DejaVuSans-6c" transform="translate(1340.298828 0)"/>
     <use xlink:href="#DejaVuSans-75" transform="translate(1368.082031 0)"/>
     <use xlink:href="#DejaVuSans-73" transform="translate(1431.460938 0)"/>
     <use xlink:href="#DejaVuSans-69" transform="translate(1483.560547 0)"/>
     <use xlink:href="#DejaVuSans-6f" transform="translate(1511.34375 0)"/>
     <use xlink:href="#DejaVuSans-6e" transform="translate(1572.525391 0)"/>
     <use xlink:href="#DejaVuSans-65" transform="translate(1635.904297 0)"/>
     <use xlink:href="#DejaVuSans-73" transform="translate(1697.427734 0)"/>
    </g>
   </g>
   <g id="text_5">
    <!-- Model -->
    <g transform="translate(457.497225 123.466734) scale(0.12 -0.12)">
     <defs>
      <path id="DejaVuSans-Bold-4d" d="M 588 4666 
L 2119 4666 
L 3181 2169 
L 4250 4666 
L 5778 4666 
L 5778 0 
L 4641 0 
L 4641 3413 
L 3566 897 
L 2803 897 
L 1728 3413 
L 1728 0 
L 588 0 
L 588 4666 
z
" transform="scale(0.015625)"/>
      <path id="DejaVuSans-Bold-64" d="M 2919 2988 
L 2919 4863 
L 4044 4863 
L 4044 0 
L 2919 0 
L 2919 506 
Q 2688 197 2409 53 
Q 2131 -91 1766 -91 
Q 1119 -91 703 423 
Q 288 938 288 1747 
Q 288 2556 703 3070 
Q 1119 3584 1766 3584 
Q 2128 3584 2408 3439 
Q 2688 3294 2919 2988 
z
M 2181 722 
Q 2541 722 2730 984 
Q 2919 1247 2919 1747 
Q 2919 2247 2730 2509 
Q 2541 2772 2181 2772 
Q 1825 2772 1636 2509 
Q 1447 2247 1447 1747 
Q 1447 1247 1636 984 
Q 1825 722 2181 722 
z
" transform="scale(0.015625)"/>
      <path id="DejaVuSans-Bold-6c" d="M 538 4863 
L 1656 4863 
L 1656 0 
L 538 0 
L 538 4863 
z
" transform="scale(0.015625)"/>
     </defs>
     <use xlink:href="#DejaVuSans-Bold-4d"/>
     <use xlink:href="#DejaVuSans-Bold-6f" transform="translate(99.511719 0)"/>
     <use xlink:href="#DejaVuSans-Bold-64" transform="translate(168.212891 0)"/>
     <use xlink:href="#DejaVuSans-Bold-65" transform="translate(239.794922 0)"/>
     <use xlink:href="#DejaVuSans-Bold-6c" transform="translate(307.617188 0)"/>
    </g>
   </g>
   <g id="text_6">
    <!-- Rama visual CNN -->
    <g transform="translate(439.234256 149.094842) scale(0.09 -0.09)">
     <defs>
      <path id="DejaVuSans-76" d="M 191 3500 
L 800 3500 
L 1894 563 
L 2988 3500 
L 3597 3500 
L 2284 0 
L 1503 0 
L 191 3500 
z
" transform="scale(0.015625)"/>
      <path id="DejaVuSans-43" d="M 4122 4306 
L 4122 3641 
Q 3803 3938 3442 4084 
Q 3081 4231 2675 4231 
Q 1875 4231 1450 3742 
Q 1025 3253 1025 2328 
Q 1025 1406 1450 917 
Q 1875 428 2675 428 
Q 3081 428 3442 575 
Q 3803 722 4122 1019 
L 4122 359 
Q 3791 134 3420 21 
Q 3050 -91 2638 -91 
Q 1578 -91 968 557 
Q 359 1206 359 2328 
Q 359 3453 968 4101 
Q 1578 4750 2638 4750 
Q 3056 4750 3426 4639 
Q 3797 4528 4122 4306 
z
" transform="scale(0.015625)"/>
     </defs>
     <use xlink:href="#DejaVuSans-52"/>
     <use xlink:href="#DejaVuSans-61" transform="translate(67.232422 0)"/>
     <use xlink:href="#DejaVuSans-6d" transform="translate(128.511719 0)"/>
     <use xlink:href="#DejaVuSans-61" transform="translate(225.923828 0)"/>
     <use xlink:href="#DejaVuSans-20" transform="translate(287.203125 0)"/>
     <use xlink:href="#DejaVuSans-76" transform="translate(318.990234 0)"/>
     <use xlink:href="#DejaVuSans-69" transform="translate(378.169922 0)"/>
     <use xlink:href="#DejaVuSans-73" transform="translate(405.953125 0)"/>
     <use xlink:href="#DejaVuSans-75" transform="translate(458.052734 0)"/>
     <use xlink:href="#DejaVuSans-61" transform="translate(521.431641 0)"/>
     <use xlink:href="#DejaVuSans-6c" transform="translate(582.710938 0)"/>
     <use xlink:href="#DejaVuSans-20" transform="translate(610.494141 0)"/>
     <use xlink:href="#DejaVuSans-43" transform="translate(642.28125 0)"/>
     <use xlink:href="#DejaVuSans-4e" transform="translate(712.105469 0)"/>
     <use xlink:href="#DejaVuSans-4e" transform="translate(786.910156 0)"/>
    </g>
    <!-- + rama texto segura -->
    <g transform="translate(431.137069 159.172874) scale(0.09 -0.09)">
     <use xlink:href="#DejaVuSans-2b"/>
     <use xlink:href="#DejaVuSans-20" transform="translate(83.789062 0)"/>
     <use xlink:href="#DejaVuSans-72" transform="translate(115.576172 0)"/>
     <use xlink:href="#DejaVuSans-61" transform="translate(156.689453 0)"/>
     <use xlink:href="#DejaVuSans-6d" transform="translate(217.96875 0)"/>
     <use xlink:href="#DejaVuSans-61" transform="translate(315.380859 0)"/>
     <use xlink:href="#DejaVuSans-20" transform="translate(376.660156 0)"/>
     <use xlink:href="#DejaVuSans-74" transform="translate(408.447266 0)"/>
     <use xlink:href="#DejaVuSans-65" transform="translate(447.65625 0)"/>
     <use xlink:href="#DejaVuSans-78" transform="translate(507.429688 0)"/>
     <use xlink:href="#DejaVuSans-74" transform="translate(566.609375 0)"/>
     <use xlink:href="#DejaVuSans-6f" transform="translate(605.818359 0)"/>
     <use xlink:href="#DejaVuSans-20" transform="translate(667 0)"/>
     <use xlink:href="#DejaVuSans-73" transform="translate(698.787109 0)"/>
     <use xlink:href="#DejaVuSans-65" transform="translate(750.886719 0)"/>
     <use xlink:href="#DejaVuSans-67" transform="translate(812.410156 0)"/>
     <use xlink:href="#DejaVuSans-75" transform="translate(875.886719 0)"/>
     <use xlink:href="#DejaVuSans-72" transform="translate(939.265625 0)"/>
     <use xlink:href="#DejaVuSans-61" transform="translate(980.378906 0)"/>
    </g>
    <!-- + calibración -->
    <g transform="translate(448.284178 169.250905) scale(0.09 -0.09)">
     <defs>
      <path id="DejaVuSans-62" d="M 3116 1747 
Q 3116 2381 2855 2742 
Q 2594 3103 2138 3103 
Q 1681 3103 1420 2742 
Q 1159 2381 1159 1747 
Q 1159 1113 1420 752 
Q 1681 391 2138 391 
Q 2594 391 2855 752 
Q 3116 1113 3116 1747 
z
M 1159 2969 
Q 1341 3281 1617 3432 
Q 1894 3584 2278 3584 
Q 2916 3584 3314 3078 
Q 3713 2572 3713 1747 
Q 3713 922 3314 415 
Q 2916 -91 2278 -91 
Q 1894 -91 1617 61 
Q 1341 213 1159 525 
L 1159 0 
L 581 0 
L 581 4863 
L 1159 4863 
L 1159 2969 
z
" transform="scale(0.015625)"/>
     </defs>
     <use xlink:href="#DejaVuSans-2b"/>
     <use xlink:href="#DejaVuSans-20" transform="translate(83.789062 0)"/>
     <use xlink:href="#DejaVuSans-63" transform="translate(115.576172 0)"/>
     <use xlink:href="#DejaVuSans-61" transform="translate(170.556641 0)"/>
     <use xlink:href="#DejaVuSans-6c" transform="translate(231.835938 0)"/>
     <use xlink:href="#DejaVuSans-69" transform="translate(259.619141 0)"/>
     <use xlink:href="#DejaVuSans-62" transform="translate(287.402344 0)"/>
     <use xlink:href="#DejaVuSans-72" transform="translate(350.878906 0)"/>
     <use xlink:href="#DejaVuSans-61" transform="translate(391.992188 0)"/>
     <use xlink:href="#DejaVuSans-63" transform="translate(453.271484 0)"/>
     <use xlink:href="#DejaVuSans-69" transform="translate(508.251953 0)"/>
     <use xlink:href="#DejaVuSans-f3" transform="translate(536.035156 0)"/>
     <use xlink:href="#DejaVuSans-6e" transform="translate(597.216797 0)"/>
    </g>
   </g>
   <g id="text_7">
    <!-- Training -->
    <g transform="translate(633.744525 123.419859) scale(0.12 -0.12)">
     <defs>
      <path id="DejaVuSans-Bold-54" d="M 31 4666 
L 4331 4666 
L 4331 3756 
L 2784 3756 
L 2784 0 
L 1581 0 
L 1581 3756 
L 31 3756 
L 31 4666 
z
" transform="scale(0.015625)"/>
     </defs>
     <use xlink:href="#DejaVuSans-Bold-54"/>
     <use xlink:href="#DejaVuSans-Bold-72" transform="translate(57.212891 0)"/>
     <use xlink:href="#DejaVuSans-Bold-61" transform="translate(106.529297 0)"/>
     <use xlink:href="#DejaVuSans-Bold-69" transform="translate(174.009766 0)"/>
     <use xlink:href="#DejaVuSans-Bold-6e" transform="translate(208.287109 0)"/>
     <use xlink:href="#DejaVuSans-Bold-69" transform="translate(279.478516 0)"/>
     <use xlink:href="#DejaVuSans-Bold-6e" transform="translate(313.755859 0)"/>
     <use xlink:href="#DejaVuSans-Bold-67" transform="translate(384.947266 0)"/>
    </g>
   </g>
   <g id="text_8">
    <!-- Train/val/calibration/threshold/test -->
    <g transform="translate(583.959291 154.133858) scale(0.09 -0.09)">
     <defs>
      <path id="DejaVuSans-54" d="M -19 4666 
L 3928 4666 
L 3928 4134 
L 2272 4134 
L 2272 0 
L 1638 0 
L 1638 4134 
L -19 4134 
L -19 4666 
z
" transform="scale(0.015625)"/>
      <path id="DejaVuSans-2f" d="M 1625 4666 
L 2156 4666 
L 531 -594 
L 0 -594 
L 1625 4666 
z
" transform="scale(0.015625)"/>
      <path id="DejaVuSans-68" d="M 3513 2113 
L 3513 0 
L 2938 0 
L 2938 2094 
Q 2938 2591 2744 2837 
Q 2550 3084 2163 3084 
Q 1697 3084 1428 2787 
Q 1159 2491 1159 1978 
L 1159 0 
L 581 0 
L 581 4863 
L 1159 4863 
L 1159 2956 
Q 1366 3272 1645 3428 
Q 1925 3584 2291 3584 
Q 2894 3584 3203 3211 
Q 3513 2838 3513 2113 
z
" transform="scale(0.015625)"/>
     </defs>
     <use xlink:href="#DejaVuSans-54"/>
     <use xlink:href="#DejaVuSans-72" transform="translate(46.333984 0)"/>
     <use xlink:href="#DejaVuSans-61" transform="translate(87.447266 0)"/>
     <use xlink:href="#DejaVuSans-69" transform="translate(148.726562 0)"/>
     <use xlink:href="#DejaVuSans-6e" transform="translate(176.509766 0)"/>
     <use xlink:href="#DejaVuSans-2f" transform="translate(239.888672 0)"/>
     <use xlink:href="#DejaVuSans-76" transform="translate(273.580078 0)"/>
     <use xlink:href="#DejaVuSans-61" transform="translate(332.759766 0)"/>
     <use xlink:href="#DejaVuSans-6c" transform="translate(394.039062 0)"/>
     <use xlink:href="#DejaVuSans-2f" transform="translate(421.822266 0)"/>
     <use xlink:href="#DejaVuSans-63" transform="translate(455.513672 0)"/>
     <use xlink:href="#DejaVuSans-61" transform="translate(510.494141 0)"/>
     <use xlink:href="#DejaVuSans-6c" transform="translate(571.773438 0)"/>
     <use xlink:href="#DejaVuSans-69" transform="translate(599.556641 0)"/>
     <use xlink:href="#DejaVuSans-62" transform="translate(627.339844 0)"/>
     <use xlink:href="#DejaVuSans-72" transform="translate(690.816406 0)"/>
     <use xlink:href="#DejaVuSans-61" transform="translate(731.929688 0)"/>
     <use xlink:href="#DejaVuSans-74" transform="translate(793.208984 0)"/>
     <use xlink:href="#DejaVuSans-69" transform="translate(832.417969 0)"/>
     <use xlink:href="#DejaVuSans-6f" transform="translate(860.201172 0)"/>
     <use xlink:href="#DejaVuSans-6e" transform="translate(921.382812 0)"/>
     <use xlink:href="#DejaVuSans-2f" transform="translate(984.761719 0)"/>
     <use xlink:href="#DejaVuSans-74" transform="translate(1018.453125 0)"/>
     <use xlink:href="#DejaVuSans-68" transform="translate(1057.662109 0)"/>
     <use xlink:href="#DejaVuSans-72" transform="translate(1121.041016 0)"/>
     <use xlink:href="#DejaVuSans-65" transform="translate(1159.904297 0)"/>
     <use xlink:href="#DejaVuSans-73" transform="translate(1221.427734 0)"/>
     <use xlink:href="#DejaVuSans-68" transform="translate(1273.527344 0)"/>
     <use xlink:href="#DejaVuSans-6f" transform="translate(1336.90625 0)"/>
     <use xlink:href="#DejaVuSans-6c" transform="translate(1398.087891 0)"/>
     <use xlink:href="#DejaVuSans-64" transform="translate(1425.871094 0)"/>
     <use xlink:href="#DejaVuSans-2f" transform="translate(1489.347656 0)"/>
     <use xlink:href="#DejaVuSans-74" transform="translate(1523.039062 0)"/>
     <use xlink:href="#DejaVuSans-65" transform="translate(1562.248047 0)"/>
     <use xlink:href="#DejaVuSans-73" transform="translate(1623.771484 0)"/>
     <use xlink:href="#DejaVuSans-74" transform="translate(1675.871094 0)"/>
    </g>
    <!-- CV por UID -->
    <g transform="translate(636.509447 164.211889) scale(0.09 -0.09)">
     <defs>
      <path id="DejaVuSans-56" d="M 1831 0 
L 50 4666 
L 709 4666 
L 2188 738 
L 3669 4666 
L 4325 4666 
L 2547 0 
L 1831 0 
z
" transform="scale(0.015625)"/>
     </defs>
     <use xlink:href="#DejaVuSans-43"/>
     <use xlink:href="#DejaVuSans-56" transform="translate(69.824219 0)"/>
     <use xlink:href="#DejaVuSans-20" transform="translate(138.232422 0)"/>
     <use xlink:href="#DejaVuSans-70" transform="translate(170.019531 0)"/>
     <use xlink:href="#DejaVuSans-6f" transform="translate(233.496094 0)"/>
     <use xlink:href="#DejaVuSans-72" transform="translate(294.677734 0)"/>
     <use xlink:href="#DejaVuSans-20" transform="translate(335.791016 0)"/>
     <use xlink:href="#DejaVuSans-55" transform="translate(367.578125 0)"/>
     <use xlink:href="#DejaVuSans-49" transform="translate(440.771484 0)"/>
     <use xlink:href="#DejaVuSans-44" transform="translate(470.263672 0)"/>
    </g>
   </g>
   <g id="text_9">
    <!-- Evaluation -->
    <g transform="translate(808.506825 123.466734) scale(0.12 -0.12)">
     <defs>
      <path id="DejaVuSans-Bold-45" d="M 588 4666 
L 3834 4666 
L 3834 3756 
L 1791 3756 
L 1791 2888 
L 3713 2888 
L 3713 1978 
L 1791 1978 
L 1791 909 
L 3903 909 
L 3903 0 
L 588 0 
L 588 4666 
z
" transform="scale(0.015625)"/>
      <path id="DejaVuSans-Bold-76" d="M 97 3500 
L 1216 3500 
L 2088 1081 
L 2956 3500 
L 4078 3500 
L 2700 0 
L 1472 0 
L 97 3500 
z
" transform="scale(0.015625)"/>
     </defs>
     <use xlink:href="#DejaVuSans-Bold-45"/>
     <use xlink:href="#DejaVuSans-Bold-76" transform="translate(68.310547 0)"/>
     <use xlink:href="#DejaVuSans-Bold-61" transform="translate(133.496094 0)"/>
     <use xlink:href="#DejaVuSans-Bold-6c" transform="translate(200.976562 0)"/>
     <use xlink:href="#DejaVuSans-Bold-75" transform="translate(235.253906 0)"/>
     <use xlink:href="#DejaVuSans-Bold-61" transform="translate(306.445312 0)"/>
     <use xlink:href="#DejaVuSans-Bold-74" transform="translate(373.925781 0)"/>
     <use xlink:href="#DejaVuSans-Bold-69" transform="translate(421.728516 0)"/>
     <use xlink:href="#DejaVuSans-Bold-6f" transform="translate(456.005859 0)"/>
     <use xlink:href="#DejaVuSans-Bold-6e" transform="translate(524.707031 0)"/>
    </g>
   </g>
   <g id="text_10">
    <!-- ROC-AUC, PR-AUC, Brier, -->
    <g transform="translate(788.760028 154.133858) scale(0.09 -0.09)">
     <defs>
      <path id="DejaVuSans-4f" d="M 2522 4238 
Q 1834 4238 1429 3725 
Q 1025 3213 1025 2328 
Q 1025 1447 1429 934 
Q 1834 422 2522 422 
Q 3209 422 3611 934 
Q 4013 1447 4013 2328 
Q 4013 3213 3611 3725 
Q 3209 4238 2522 4238 
z
M 2522 4750 
Q 3503 4750 4090 4092 
Q 4678 3434 4678 2328 
Q 4678 1225 4090 567 
Q 3503 -91 2522 -91 
Q 1538 -91 948 565 
Q 359 1222 359 2328 
Q 359 3434 948 4092 
Q 1538 4750 2522 4750 
z
" transform="scale(0.015625)"/>
      <path id="DejaVuSans-41" d="M 2188 4044 
L 1331 1722 
L 3047 1722 
L 2188 4044 
z
M 1831 4666 
L 2547 4666 
L 4325 0 
L 3669 0 
L 3244 1197 
L 1141 1197 
L 716 0 
L 50 0 
L 1831 4666 
z
" transform="scale(0.015625)"/>
      <path id="DejaVuSans-50" d="M 1259 4147 
L 1259 2394 
L 2053 2394 
Q 2494 2394 2734 2622 
Q 2975 2850 2975 3272 
Q 2975 3691 2734 3919 
Q 2494 4147 2053 4147 
L 1259 4147 
z
M 628 4666 
L 2053 4666 
Q 2838 4666 3239 4311 
Q 3641 3956 3641 3272 
Q 3641 2581 3239 2228 
Q 2838 1875 2053 1875 
L 1259 1875 
L 1259 0 
L 628 0 
L 628 4666 
z
" transform="scale(0.015625)"/>
      <path id="DejaVuSans-42" d="M 1259 2228 
L 1259 519 
L 2272 519 
Q 2781 519 3026 730 
Q 3272 941 3272 1375 
Q 3272 1813 3026 2020 
Q 2781 2228 2272 2228 
L 1259 2228 
z
M 1259 4147 
L 1259 2741 
L 2194 2741 
Q 2656 2741 2882 2914 
Q 3109 3088 3109 3444 
Q 3109 3797 2882 3972 
Q 2656 4147 2194 4147 
L 1259 4147 
z
M 628 4666 
L 2241 4666 
Q 2963 4666 3353 4366 
Q 3744 4066 3744 3513 
Q 3744 3084 3544 2831 
Q 3344 2578 2956 2516 
Q 3422 2416 3680 2098 
Q 3938 1781 3938 1306 
Q 3938 681 3513 340 
Q 3088 0 2303 0 
L 628 0 
L 628 4666 
z
" transform="scale(0.015625)"/>
     </defs>
     <use xlink:href="#DejaVuSans-52"/>
     <use xlink:href="#DejaVuSans-4f" transform="translate(69.482422 0)"/>
     <use xlink:href="#DejaVuSans-43" transform="translate(148.193359 0)"/>
     <use xlink:href="#DejaVuSans-2d" transform="translate(218.017578 0)"/>
     <use xlink:href="#DejaVuSans-41" transform="translate(251.851562 0)"/>
     <use xlink:href="#DejaVuSans-55" transform="translate(320.259766 0)"/>
     <use xlink:href="#DejaVuSans-43" transform="translate(393.453125 0)"/>
     <use xlink:href="#DejaVuSans-2c" transform="translate(463.277344 0)"/>
     <use xlink:href="#DejaVuSans-20" transform="translate(495.064453 0)"/>
     <use xlink:href="#DejaVuSans-50" transform="translate(526.851562 0)"/>
     <use xlink:href="#DejaVuSans-52" transform="translate(587.154297 0)"/>
     <use xlink:href="#DejaVuSans-2d" transform="translate(652.636719 0)"/>
     <use xlink:href="#DejaVuSans-41" transform="translate(686.470703 0)"/>
     <use xlink:href="#DejaVuSans-55" transform="translate(754.878906 0)"/>
     <use xlink:href="#DejaVuSans-43" transform="translate(828.072266 0)"/>
     <use xlink:href="#DejaVuSans-2c" transform="translate(897.896484 0)"/>
     <use xlink:href="#DejaVuSans-20" transform="translate(929.683594 0)"/>
     <use xlink:href="#DejaVuSans-42" transform="translate(961.470703 0)"/>
     <use xlink:href="#DejaVuSans-72" transform="translate(1030.074219 0)"/>
     <use xlink:href="#DejaVuSans-69" transform="translate(1071.1875 0)"/>
     <use xlink:href="#DejaVuSans-65" transform="translate(1098.970703 0)"/>
     <use xlink:href="#DejaVuSans-72" transform="translate(1160.494141 0)"/>
     <use xlink:href="#DejaVuSans-2c" transform="translate(1201.607422 0)"/>
    </g>
    <!-- Recall, FPR, bootstrap, McNemar -->
    <g transform="translate(770.642606 164.211889) scale(0.09 -0.09)">
     <defs>
      <path id="DejaVuSans-46" d="M 628 4666 
L 3309 4666 
L 3309 4134 
L 1259 4134 
L 1259 2759 
L 3109 2759 
L 3109 2228 
L 1259 2228 
L 1259 0 
L 628 0 
L 628 4666 
z
" transform="scale(0.015625)"/>
      <path id="DejaVuSans-4d" d="M 628 4666 
L 1569 4666 
L 2759 1491 
L 3956 4666 
L 4897 4666 
L 4897 0 
L 4281 0 
L 4281 4097 
L 3078 897 
L 2444 897 
L 1241 4097 
L 1241 0 
L 628 0 
L 628 4666 
z
" transform="scale(0.015625)"/>
     </defs>
     <use xlink:href="#DejaVuSans-52"/>
     <use xlink:href="#DejaVuSans-65" transform="translate(64.982422 0)"/>
     <use xlink:href="#DejaVuSans-63" transform="translate(126.505859 0)"/>
     <use xlink:href="#DejaVuSans-61" transform="translate(181.486328 0)"/>
     <use xlink:href="#DejaVuSans-6c" transform="translate(242.765625 0)"/>
     <use xlink:href="#DejaVuSans-6c" transform="translate(270.548828 0)"/>
     <use xlink:href="#DejaVuSans-2c" transform="translate(298.332031 0)"/>
     <use xlink:href="#DejaVuSans-20" transform="translate(330.119141 0)"/>
     <use xlink:href="#DejaVuSans-46" transform="translate(361.90625 0)"/>
     <use xlink:href="#DejaVuSans-50" transform="translate(419.425781 0)"/>
     <use xlink:href="#DejaVuSans-52" transform="translate(479.728516 0)"/>
     <use xlink:href="#DejaVuSans-2c" transform="translate(549.210938 0)"/>
     <use xlink:href="#DejaVuSans-20" transform="translate(580.998047 0)"/>
     <use xlink:href="#DejaVuSans-62" transform="translate(612.785156 0)"/>
     <use xlink:href="#DejaVuSans-6f" transform="translate(676.261719 0)"/>
     <use xlink:href="#DejaVuSans-6f" transform="translate(737.443359 0)"/>
     <use xlink:href="#DejaVuSans-74" transform="translate(798.625 0)"/>
     <use xlink:href="#DejaVuSans-73" transform="translate(837.833984 0)"/>
     <use xlink:href="#DejaVuSans-74" transform="translate(889.933594 0)"/>
     <use xlink:href="#DejaVuSans-72" transform="translate(929.142578 0)"/>
     <use xlink:href="#DejaVuSans-61" transform="translate(970.255859 0)"/>
     <use xlink:href="#DejaVuSans-70" transform="translate(1031.535156 0)"/>
     <use xlink:href="#DejaVuSans-2c" transform="translate(1095.011719 0)"/>
     <use xlink:href="#DejaVuSans-20" transform="translate(1126.798828 0)"/>
     <use xlink:href="#DejaVuSans-4d" transform="translate(1158.585938 0)"/>
     <use xlink:href="#DejaVuSans-63" transform="translate(1244.865234 0)"/>
     <use xlink:href="#DejaVuSans-4e" transform="translate(1299.845703 0)"/>
     <use xlink:href="#DejaVuSans-65" transform="translate(1374.650391 0)"/>
     <use xlink:href="#DejaVuSans-6d" transform="translate(1436.173828 0)"/>
     <use xlink:href="#DejaVuSans-61" transform="translate(1533.585938 0)"/>
     <use xlink:href="#DejaVuSans-72" transform="translate(1594.865234 0)"/>
    </g>
   </g>
   <g id="text_11">
    <!-- Final output -->
    <g transform="translate(986.069437 123.466734) scale(0.12 -0.12)">
     <defs>
      <path id="DejaVuSans-Bold-46" d="M 588 4666 
L 3834 4666 
L 3834 3756 
L 1791 3756 
L 1791 2888 
L 3713 2888 
L 3713 1978 
L 1791 1978 
L 1791 0 
L 588 0 
L 588 4666 
z
" transform="scale(0.015625)"/>
     </defs>
     <use xlink:href="#DejaVuSans-Bold-46"/>
     <use xlink:href="#DejaVuSans-Bold-69" transform="translate(68.310547 0)"/>
     <use xlink:href="#DejaVuSans-Bold-6e" transform="translate(102.587891 0)"/>
     <use xlink:href="#DejaVuSans-Bold-61" transform="translate(173.779297 0)"/>
     <use xlink:href="#DejaVuSans-Bold-6c" transform="translate(241.259766 0)"/>
     <use xlink:href="#DejaVuSans-Bold-20" transform="translate(275.537109 0)"/>
     <use xlink:href="#DejaVuSans-Bold-6f" transform="translate(310.351562 0)"/>
     <use xlink:href="#DejaVuSans-Bold-75" transform="translate(379.052734 0)"/>
     <use xlink:href="#DejaVuSans-Bold-74" transform="translate(450.244141 0)"/>
     <use xlink:href="#DejaVuSans-Bold-70" transform="translate(498.046875 0)"/>
     <use xlink:href="#DejaVuSans-Bold-75" transform="translate(569.628906 0)"/>
     <use xlink:href="#DejaVuSans-Bold-74" transform="translate(640.820312 0)"/>
    </g>
   </g>
   <g id="text_12">
    <!-- Modelo principal: image_calibrated -->
    <g transform="translate(948.493266 154.008702) scale(0.09 -0.09)">
     <defs>
      <path id="DejaVuSans-5f" d="M 3263 -1063 
L 3263 -1509 
L -63 -1509 
L -63 -1063 
L 3263 -1063 
z
" transform="scale(0.015625)"/>
     </defs>
     <use xlink:href="#DejaVuSans-4d"/>
     <use xlink:href="#DejaVuSans-6f" transform="translate(86.279297 0)"/>
     <use xlink:href="#DejaVuSans-64" transform="translate(147.460938 0)"/>
     <use xlink:href="#DejaVuSans-65" transform="translate(210.9375 0)"/>
     <use xlink:href="#DejaVuSans-6c" transform="translate(272.460938 0)"/>
     <use xlink:href="#DejaVuSans-6f" transform="translate(300.244141 0)"/>
     <use xlink:href="#DejaVuSans-20" transform="translate(361.425781 0)"/>
     <use xlink:href="#DejaVuSans-70" transform="translate(393.212891 0)"/>
     <use xlink:href="#DejaVuSans-72" transform="translate(456.689453 0)"/>
     <use xlink:href="#DejaVuSans-69" transform="translate(497.802734 0)"/>
     <use xlink:href="#DejaVuSans-6e" transform="translate(525.585938 0)"/>
     <use xlink:href="#DejaVuSans-63" transform="translate(588.964844 0)"/>
     <use xlink:href="#DejaVuSans-69" transform="translate(643.945312 0)"/>
     <use xlink:href="#DejaVuSans-70" transform="translate(671.728516 0)"/>
     <use xlink:href="#DejaVuSans-61" transform="translate(735.205078 0)"/>
     <use xlink:href="#DejaVuSans-6c" transform="translate(796.484375 0)"/>
     <use xlink:href="#DejaVuSans-3a" transform="translate(824.267578 0)"/>
     <use xlink:href="#DejaVuSans-20" transform="translate(857.958984 0)"/>
     <use xlink:href="#DejaVuSans-69" transform="translate(889.746094 0)"/>
     <use xlink:href="#DejaVuSans-6d" transform="translate(917.529297 0)"/>
     <use xlink:href="#DejaVuSans-61" transform="translate(1014.941406 0)"/>
     <use xlink:href="#DejaVuSans-67" transform="translate(1076.220703 0)"/>
     <use xlink:href="#DejaVuSans-65" transform="translate(1139.697266 0)"/>
     <use xlink:href="#DejaVuSans-5f" transform="translate(1201.220703 0)"/>
     <use xlink:href="#DejaVuSans-63" transform="translate(1251.220703 0)"/>
     <use xlink:href="#DejaVuSans-61" transform="translate(1306.201172 0)"/>
     <use xlink:href="#DejaVuSans-6c" transform="translate(1367.480469 0)"/>
     <use xlink:href="#DejaVuSans-69" transform="translate(1395.263672 0)"/>
     <use xlink:href="#DejaVuSans-62" transform="translate(1423.046875 0)"/>
     <use xlink:href="#DejaVuSans-72" transform="translate(1486.523438 0)"/>
     <use xlink:href="#DejaVuSans-61" transform="translate(1527.636719 0)"/>
     <use xlink:href="#DejaVuSans-74" transform="translate(1588.916016 0)"/>
     <use xlink:href="#DejaVuSans-65" transform="translate(1628.125 0)"/>
     <use xlink:href="#DejaVuSans-64" transform="translate(1689.648438 0)"/>
    </g>
    <!-- Tablas, curvas, demo, ZIP GitHub -->
    <g transform="translate(952.981312 164.337045) scale(0.09 -0.09)">
     <defs>
      <path id="DejaVuSans-5a" d="M 359 4666 
L 4025 4666 
L 4025 4184 
L 1075 531 
L 4097 531 
L 4097 0 
L 288 0 
L 288 481 
L 3238 4134 
L 359 4134 
L 359 4666 
z
" transform="scale(0.015625)"/>
      <path id="DejaVuSans-47" d="M 3809 666 
L 3809 1919 
L 2778 1919 
L 2778 2438 
L 4434 2438 
L 4434 434 
Q 4069 175 3628 42 
Q 3188 -91 2688 -91 
Q 1594 -91 976 548 
Q 359 1188 359 2328 
Q 359 3472 976 4111 
Q 1594 4750 2688 4750 
Q 3144 4750 3555 4637 
Q 3966 4525 4313 4306 
L 4313 3634 
Q 3963 3931 3569 4081 
Q 3175 4231 2741 4231 
Q 1884 4231 1454 3753 
Q 1025 3275 1025 2328 
Q 1025 1384 1454 906 
Q 1884 428 2741 428 
Q 3075 428 3337 486 
Q 3600 544 3809 666 
z
" transform="scale(0.015625)"/>
      <path id="DejaVuSans-48" d="M 628 4666 
L 1259 4666 
L 1259 2753 
L 3553 2753 
L 3553 4666 
L 4184 4666 
L 4184 0 
L 3553 0 
L 3553 2222 
L 1259 2222 
L 1259 0 
L 628 0 
L 628 4666 
z
" transform="scale(0.015625)"/>
     </defs>
     <use xlink:href="#DejaVuSans-54"/>
     <use xlink:href="#DejaVuSans-61" transform="translate(44.583984 0)"/>
     <use xlink:href="#DejaVuSans-62" transform="translate(105.863281 0)"/>
     <use xlink:href="#DejaVuSans-6c" transform="translate(169.339844 0)"/>
     <use xlink:href="#DejaVuSans-61" transform="translate(197.123047 0)"/>
     <use xlink:href="#DejaVuSans-73" transform="translate(258.402344 0)"/>
     <use xlink:href="#DejaVuSans-2c" transform="translate(310.501953 0)"/>
     <use xlink:href="#DejaVuSans-20" transform="translate(342.289062 0)"/>
     <use xlink:href="#DejaVuSans-63" transform="translate(374.076172 0)"/>
     <use xlink:href="#DejaVuSans-75" transform="translate(429.056641 0)"/>
     <use xlink:href="#DejaVuSans-72" transform="translate(492.435547 0)"/>
     <use xlink:href="#DejaVuSans-76" transform="translate(533.548828 0)"/>
     <use xlink:href="#DejaVuSans-61" transform="translate(592.728516 0)"/>
     <use xlink:href="#DejaVuSans-73" transform="translate(654.007812 0)"/>
     <use xlink:href="#DejaVuSans-2c" transform="translate(706.107422 0)"/>
     <use xlink:href="#DejaVuSans-20" transform="translate(737.894531 0)"/>
     <use xlink:href="#DejaVuSans-64" transform="translate(769.681641 0)"/>
     <use xlink:href="#DejaVuSans-65" transform="translate(833.158203 0)"/>
     <use xlink:href="#DejaVuSans-6d" transform="translate(894.681641 0)"/>
     <use xlink:href="#DejaVuSans-6f" transform="translate(992.09375 0)"/>
     <use xlink:href="#DejaVuSans-2c" transform="translate(1053.275391 0)"/>
     <use xlink:href="#DejaVuSans-20" transform="translate(1085.0625 0)"/>
     <use xlink:href="#DejaVuSans-5a" transform="translate(1116.849609 0)"/>
     <use xlink:href="#DejaVuSans-49" transform="translate(1185.355469 0)"/>
     <use xlink:href="#DejaVuSans-50" transform="translate(1214.847656 0)"/>
     <use xlink:href="#DejaVuSans-20" transform="translate(1275.150391 0)"/>
     <use xlink:href="#DejaVuSans-47" transform="translate(1306.9375 0)"/>
     <use xlink:href="#DejaVuSans-69" transform="translate(1384.427734 0)"/>
     <use xlink:href="#DejaVuSans-74" transform="translate(1412.210938 0)"/>
     <use xlink:href="#DejaVuSans-48" transform="translate(1451.419922 0)"/>
     <use xlink:href="#DejaVuSans-75" transform="translate(1526.615234 0)"/>
     <use xlink:href="#DejaVuSans-62" transform="translate(1589.994141 0)"/>
    </g>
   </g>
   <g id="text_13">
    <!-- Pipeline completo del proyecto -->
    <g transform="translate(432.12375 19.3575) scale(0.16 -0.16)">
     <defs>
      <path id="DejaVuSans-Bold-6d" d="M 3781 2919 
Q 3994 3244 4286 3414 
Q 4578 3584 4928 3584 
Q 5531 3584 5847 3212 
Q 6163 2841 6163 2131 
L 6163 0 
L 5038 0 
L 5038 1825 
Q 5041 1866 5042 1909 
Q 5044 1953 5044 2034 
Q 5044 2406 4934 2573 
Q 4825 2741 4581 2741 
Q 4263 2741 4089 2478 
Q 3916 2216 3909 1719 
L 3909 0 
L 2784 0 
L 2784 1825 
Q 2784 2406 2684 2573 
Q 2584 2741 2328 2741 
Q 2006 2741 1831 2477 
Q 1656 2213 1656 1722 
L 1656 0 
L 531 0 
L 531 3500 
L 1656 3500 
L 1656 2988 
Q 1863 3284 2130 3434 
Q 2397 3584 2719 3584 
Q 3081 3584 3359 3409 
Q 3638 3234 3781 2919 
z
" transform="scale(0.015625)"/>
      <path id="DejaVuSans-Bold-79" d="M 78 3500 
L 1197 3500 
L 2138 1125 
L 2938 3500 
L 4056 3500 
L 2584 -331 
Q 2363 -916 2067 -1148 
Q 1772 -1381 1288 -1381 
L 641 -1381 
L 641 -647 
L 991 -647 
Q 1275 -647 1404 -556 
Q 1534 -466 1606 -231 
L 1638 -134 
L 78 3500 
z
" transform="scale(0.015625)"/>
     </defs>
     <use xlink:href="#DejaVuSans-Bold-50"/>
     <use xlink:href="#DejaVuSans-Bold-69" transform="translate(73.291016 0)"/>
     <use xlink:href="#DejaVuSans-Bold-70" transform="translate(107.568359 0)"/>
     <use xlink:href="#DejaVuSans-Bold-65" transform="translate(179.150391 0)"/>
     <use xlink:href="#DejaVuSans-Bold-6c" transform="translate(246.972656 0)"/>
     <use xlink:href="#DejaVuSans-Bold-69" transform="translate(281.25 0)"/>
     <use xlink:href="#DejaVuSans-Bold-6e" transform="translate(315.527344 0)"/>
     <use xlink:href="#DejaVuSans-Bold-65" transform="translate(386.71875 0)"/>
     <use xlink:href="#DejaVuSans-Bold-20" transform="translate(454.541016 0)"/>
     <use xlink:href="#DejaVuSans-Bold-63" transform="translate(489.355469 0)"/>
     <use xlink:href="#DejaVuSans-Bold-6f" transform="translate(548.632812 0)"/>
     <use xlink:href="#DejaVuSans-Bold-6d" transform="translate(617.333984 0)"/>
     <use xlink:href="#DejaVuSans-Bold-70" transform="translate(721.533203 0)"/>
     <use xlink:href="#DejaVuSans-Bold-6c" transform="translate(793.115234 0)"/>
     <use xlink:href="#DejaVuSans-Bold-65" transform="translate(827.392578 0)"/>
     <use xlink:href="#DejaVuSans-Bold-74" transform="translate(895.214844 0)"/>
     <use xlink:href="#DejaVuSans-Bold-6f" transform="translate(943.017578 0)"/>
     <use xlink:href="#DejaVuSans-Bold-20" transform="translate(1011.71875 0)"/>
     <use xlink:href="#DejaVuSans-Bold-64" transform="translate(1046.533203 0)"/>
     <use xlink:href="#DejaVuSans-Bold-65" transform="translate(1118.115234 0)"/>
     <use xlink:href="#DejaVuSans-Bold-6c" transform="translate(1185.9375 0)"/>
     <use xlink:href="#DejaVuSans-Bold-20" transform="translate(1220.214844 0)"/>
     <use xlink:href="#DejaVuSans-Bold-70" transform="translate(1255.029297 0)"/>
     <use xlink:href="#DejaVuSans-Bold-72" transform="translate(1326.611328 0)"/>
     <use xlink:href="#DejaVuSans-Bold-6f" transform="translate(1375.927734 0)"/>
     <use xlink:href="#DejaVuSans-Bold-79" transform="translate(1444.628906 0)"/>
     <use xlink:href="#DejaVuSans-Bold-65" transform="translate(1509.814453 0)"/>
     <use xlink:href="#DejaVuSans-Bold-63" transform="translate(1577.636719 0)"/>
     <use xlink:href="#DejaVuSans-Bold-74" transform="translate(1636.914062 0)"/>
     <use xlink:href="#DejaVuSans-Bold-6f" transform="translate(1684.716797 0)"/>
    </g>
   </g>
  </g>
 </g>
 <defs>
  <clipPath id="p38b997ad65">
   <rect x="7.2" y="33.3575" width="1130.4" height="298.48"/>
  </clipPath>
 </defs>
</svg>
